SplineFontDB: 3.2
FontName: SignPinyin-Italic
FullName: SignPinyin-Italic
FamilyName: SignPinyin
Weight: Book
Copyright: Copyright (c) 2025 by ErSanSan233 (with 256 hash: f3047b1cb1fff295615fae222912d1074bdffc4fd9a47a68f2bc12e602823a07), and Zhang 3-er (with SHA-256 hash: 683934d011609f6a0da62aa096b040865c5c6e8b0a39be0eac9a0edf5167348b). ALL RIGHTS RESERVED.
Version: 0.5
ItalicAngle: 0
UnderlinePosition: -119
UnderlineWidth: 35
Ascent: 819
Descent: 205
InvalidEm: 0
sfntRevision: 0x00010000
LayerCount: 2
Layer: 0 1 "Back" 1
Layer: 1 1 "Fore" 0
XUID: [1021 520 2022644484 15146108]
StyleMap: 0x0001
FSType: 0
OS2Version: 2
OS2_WeightWidthSlopeOnly: 0
OS2_UseTypoMetrics: 0
CreationTime: 1654780060
ModificationTime: 1743599473
PfmFamily: 81
TTFWeight: 400
TTFWidth: 5
LineGap: 61
VLineGap: 0
Panose: 0 0 0 0 0 0 0 0 0 0
OS2TypoAscent: 696
OS2TypoAOffset: 0
OS2TypoDescent: -451
OS2TypoDOffset: 0
OS2TypoLinegap: 61
OS2WinAscent: 696
OS2WinAOffset: 0
OS2WinDescent: 451
OS2WinDOffset: 0
HheadAscent: 696
HheadAOffset: 0
HheadDescent: -451
HheadDOffset: 0
OS2SubXSize: 650
OS2SubYSize: 700
OS2SubXOff: 47
OS2SubYOff: 140
OS2SupXSize: 650
OS2SupYSize: 700
OS2SupXOff: -164
OS2SupYOff: 480
OS2StrikeYSize: 49
OS2StrikeYPos: 258
OS2CapHeight: 696
OS2XHeight: 389
OS2Vendor: 'Bird'
OS2CodePages: 202e00fb.cdd50000
OS2UnicodeRanges: 00000001.00000000.00000000.00000000
Lookup: 4 0 0 "Ligature Substitution lookup 0" { "Ligature Substitution lookup 0 subtable"  } []
Lookup: 4 0 0 "Ligature Substitution lookup 1" { "Ligature Substitution lookup 1 subtable"  } []
Lookup: 4 0 0 "Ligature Substitution lookup 2" { "Ligature Substitution lookup 2 subtable"  } []
Lookup: 4 0 0 "Ligature Substitution lookup 3" { "Ligature Substitution lookup 3 subtable"  } []
Lookup: 4 0 0 "Ligature Substitution lookup 4" { "Ligature Substitution lookup 4 subtable"  } []
Lookup: 4 0 0 "Ligature Substitution lookup 5" { "Ligature Substitution lookup 5 subtable"  } []

StartChar: .notdef
Encoding: 1114112 -1 0
Width: 543
GlyphClass: 1
Flags: W
LayerCount: 2
Fore
SplineSet
51 102 m 1,0,1
 128 102 128 102 358 102 c 1,2,3
 358 220 358 220 358 575 c 1,4,5
 282 575 282 575 51 575 c 1,6,7
 51 456 51 456 51 102 c 1,0,1
0 626 m 1,8,9
 102 626 102 626 410 626 c 1,10,11
 410 482 410 482 410 51 c 1,12,13
 307 51 307 51 0 51 c 1,14,15
 0 195 0 195 0 626 c 1,8,9
EndSplineSet
EndChar

StartChar: quotesingle
Encoding: 39 39 4
Width: 123
GlyphClass: 1
Flags: W
LayerCount: 2
Fore
SplineSet
61 676 m 0,0,1
 92 676 92 676 97 655 c 0,2,3
 102 635 102 635 102 635 c 257,4,5
 102 635 102 635 97 614 c 0,6,7
 92 594 92 594 61 594 c 0,8,9
 31 594 31 594 26 614 c 0,10,11
 20 635 20 635 20 635 c 257,12,13
 20 635 20 635 26 655 c 0,14,15
 31 676 31 676 61 676 c 0,0,1
EndSplineSet
EndChar

StartChar: period
Encoding: 46 46 5
Width: 123
GlyphClass: 1
Flags: W
LayerCount: 2
Fore
SplineSet
61 82 m 0,0,1
 92 82 92 82 97 61 c 0,2,3
 102 41 102 41 102 41 c 257,4,5
 102 41 102 41 97 20 c 0,6,7
 92 0 92 0 61 0 c 0,8,9
 31 0 31 0 26 20 c 0,10,11
 20 41 20 41 20 41 c 257,12,13
 20 41 20 41 26 61 c 0,14,15
 31 82 31 82 61 82 c 0,0,1
EndSplineSet
EndChar

StartChar: slash
Encoding: 47 47 6
Width: 574
GlyphClass: 1
Flags: W
LayerCount: 2
Fore
SplineSet
82 0 m 1,0,1
 61 0 61 0 20 0 c 1,2,3
 177 225 177 225 492 676 c 1,4,5
 512 676 512 676 553 676 c 1,6,7
 396 451 396 451 82 0 c 1,0,1
EndSplineSet
EndChar

StartChar: zero
Encoding: 48 48 7
Width: 492
GlyphClass: 1
Flags: W
LayerCount: 2
Fore
SplineSet
102 0 m 0,0,1
 56 0 56 0 61 0 c 0,2,3
 67 0 67 0 20 0 c 1,4,5
 20 31 20 31 20 92 c 0,6,7
 20 154 20 154 20 225 c 1,8,9
 54 225 54 225 53 225 c 0,10,11
 51 225 51 225 82 225 c 1,12,13
 82 247 82 247 90 267 c 0,14,15
 99 286 99 286 111 304 c 0,16,17
 134 337 134 337 159 363 c 0,18,19
 184 390 184 390 184 410 c 256,20,21
 184 430 184 430 181 458 c 0,22,23
 178 487 178 487 186 508 c 0,24,25
 191 519 191 519 200 526 c 0,26,27
 209 532 209 532 225 532 c 1,28,29
 225 563 225 563 248 576 c 0,30,31
 259 582 259 582 268 582 c 0,32,33
 278 582 278 582 287 573 c 0,34,35
 327 533 327 533 369 491 c 0,36,37
 411 448 411 448 439 416 c 0,38,39
 454 399 454 399 462 386 c 0,40,41
 471 374 471 374 471 369 c 0,42,43
 471 353 471 353 471 302 c 256,44,45
 471 251 471 251 471 205 c 0,46,47
 471 195 471 195 453 173 c 0,48,49
 434 150 434 150 414 128 c 0,50,51
 399 113 399 113 387 100 c 0,52,53
 375 88 375 88 369 82 c 0,54,55
 359 73 359 73 310 55 c 0,56,57
 260 38 260 38 208 23 c 0,58,59
 173 13 173 13 144 7 c 0,60,61
 115 0 115 0 102 0 c 0,0,1
287 430 m 1,62,63
 307 410 307 410 330 389 c 0,64,65
 353 369 353 369 353 348 c 0,66,67
 353 328 353 328 361 328 c 256,68,69
 369 328 369 328 369 348 c 0,70,71
 369 367 369 367 338 399 c 0,72,73
 307 430 307 430 266 471 c 1,74,75
 266 369 266 369 260 328 c 256,76,77
 254 287 254 287 266 287 c 1,78,79
 266 287 266 287 284 277 c 0,80,81
 301 267 301 267 307 266 c 0,82,83
 323 251 323 251 325 259 c 0,84,85
 328 266 328 266 328 266 c 257,86,87
 328 266 328 266 307 276 c 0,88,89
 287 287 287 287 287 287 c 1,90,91
 301 297 301 297 314 317 c 0,92,93
 328 337 328 337 328 348 c 0,94,95
 328 358 328 358 307 384 c 0,96,97
 287 410 287 410 287 430 c 1,62,63
EndSplineSet
EndChar

StartChar: one
Encoding: 49 49 8
Width: 492
GlyphClass: 1
Flags: W
LayerCount: 2
Fore
SplineSet
102 20 m 0,0,1
 56 20 56 20 61 20 c 0,2,3
 67 20 67 20 20 20 c 1,4,5
 20 51 20 51 20 113 c 0,6,7
 20 174 20 174 20 246 c 1,8,9
 54 246 54 246 53 246 c 0,10,11
 51 246 51 246 82 246 c 1,12,13
 82 267 82 267 90 287 c 0,14,15
 99 307 99 307 111 324 c 0,16,17
 134 357 134 357 159 384 c 0,18,19
 184 410 184 410 184 430 c 256,20,21
 184 450 184 450 181 479 c 256,22,23
 178 508 178 508 186 528 c 0,24,25
 191 539 191 539 200 546 c 256,26,27
 209 553 209 553 225 553 c 1,28,29
 225 584 225 584 248 596 c 0,30,31
 259 602 259 602 268 602 c 0,32,33
 278 602 278 602 287 594 c 0,34,35
 327 554 327 554 369 511 c 256,36,37
 411 468 411 468 439 436 c 0,38,39
 454 419 454 419 462 407 c 0,40,41
 471 394 471 394 471 389 c 0,42,43
 471 374 471 374 471 323 c 0,44,45
 471 271 471 271 471 225 c 0,46,47
 471 216 471 216 453 193 c 0,48,49
 434 171 434 171 414 148 c 0,50,51
 399 133 399 133 387 121 c 256,52,53
 375 109 375 109 369 102 c 0,54,55
 359 93 359 93 310 76 c 0,56,57
 260 58 260 58 208 43 c 0,58,59
 173 34 173 34 144 27 c 256,60,61
 115 20 115 20 102 20 c 0,0,1
287 451 m 1,62,63
 307 430 307 430 330 410 c 0,64,65
 353 389 353 389 353 369 c 0,66,67
 353 348 353 348 361 348 c 256,68,69
 369 348 369 348 369 369 c 0,70,71
 369 388 369 388 338 419 c 0,72,73
 307 451 307 451 266 492 c 1,74,75
 266 389 266 389 260 348 c 256,76,77
 254 307 254 307 266 307 c 1,78,79
 266 307 266 307 284 298 c 0,80,81
 301 288 301 288 307 287 c 0,82,83
 323 271 323 271 325 279 c 0,84,85
 328 287 328 287 328 287 c 257,86,87
 328 287 328 287 307 297 c 0,88,89
 287 307 287 307 287 307 c 1,90,91
 301 317 301 317 314 338 c 0,92,93
 328 358 328 358 328 369 c 0,94,95
 328 378 328 378 307 404 c 0,96,97
 287 430 287 430 287 451 c 1,62,63
EndSplineSet
EndChar

StartChar: two
Encoding: 50 50 9
Width: 492
GlyphClass: 1
Flags: W
LayerCount: 2
Fore
SplineSet
102 41 m 0,0,1
 56 41 56 41 61 41 c 0,2,3
 67 41 67 41 20 41 c 1,4,5
 20 72 20 72 20 133 c 0,6,7
 20 195 20 195 20 266 c 1,8,9
 54 266 54 266 53 266 c 0,10,11
 51 266 51 266 82 266 c 1,12,13
 82 288 82 288 90 307 c 0,14,15
 99 327 99 327 111 345 c 0,16,17
 134 378 134 378 159 404 c 0,18,19
 184 431 184 431 184 451 c 256,20,21
 184 471 184 471 181 499 c 0,22,23
 178 528 178 528 186 549 c 0,24,25
 191 560 191 560 200 567 c 0,26,27
 209 573 209 573 225 573 c 1,28,29
 225 604 225 604 248 617 c 0,30,31
 259 623 259 623 268 623 c 0,32,33
 278 623 278 623 287 614 c 0,34,35
 327 574 327 574 369 531 c 0,36,37
 411 489 411 489 439 457 c 0,38,39
 454 440 454 440 462 427 c 0,40,41
 471 415 471 415 471 410 c 0,42,43
 471 394 471 394 471 343 c 256,44,45
 471 292 471 292 471 246 c 0,46,47
 471 236 471 236 453 214 c 0,48,49
 434 191 434 191 414 169 c 0,50,51
 399 154 399 154 387 141 c 0,52,53
 375 129 375 129 369 123 c 0,54,55
 359 114 359 114 310 96 c 0,56,57
 260 79 260 79 208 64 c 0,58,59
 173 54 173 54 144 48 c 0,60,61
 115 41 115 41 102 41 c 0,0,1
287 471 m 1,62,63
 307 451 307 451 330 430 c 0,64,65
 353 410 353 410 353 389 c 0,66,67
 353 369 353 369 361 369 c 256,68,69
 369 369 369 369 369 389 c 0,70,71
 369 408 369 408 338 440 c 0,72,73
 307 471 307 471 266 512 c 1,74,75
 266 410 266 410 260 369 c 256,76,77
 254 328 254 328 266 328 c 1,78,79
 266 328 266 328 284 318 c 0,80,81
 301 308 301 308 307 307 c 0,82,83
 323 292 323 292 325 300 c 0,84,85
 328 307 328 307 328 307 c 257,86,87
 328 307 328 307 307 317 c 0,88,89
 287 328 287 328 287 328 c 1,90,91
 301 338 301 338 314 358 c 0,92,93
 328 378 328 378 328 389 c 0,94,95
 328 399 328 399 307 425 c 0,96,97
 287 451 287 451 287 471 c 1,62,63
EndSplineSet
EndChar

StartChar: three
Encoding: 51 51 10
Width: 492
GlyphClass: 1
Flags: W
LayerCount: 2
Fore
SplineSet
102 61 m 0,0,1
 56 61 56 61 61 61 c 0,2,3
 67 61 67 61 20 61 c 1,4,5
 20 92 20 92 20 154 c 0,6,7
 20 215 20 215 20 287 c 1,8,9
 54 287 54 287 53 287 c 0,10,11
 51 287 51 287 82 287 c 1,12,13
 82 308 82 308 90 328 c 0,14,15
 99 348 99 348 111 365 c 0,16,17
 134 398 134 398 159 425 c 0,18,19
 184 451 184 451 184 471 c 256,20,21
 184 491 184 491 181 520 c 256,22,23
 178 549 178 549 186 569 c 0,24,25
 191 580 191 580 200 587 c 256,26,27
 209 594 209 594 225 594 c 1,28,29
 225 625 225 625 248 637 c 0,30,31
 259 643 259 643 268 643 c 0,32,33
 278 643 278 643 287 635 c 0,34,35
 327 595 327 595 369 552 c 256,36,37
 411 509 411 509 439 477 c 0,38,39
 454 460 454 460 462 448 c 0,40,41
 471 435 471 435 471 430 c 0,42,43
 471 415 471 415 471 364 c 0,44,45
 471 312 471 312 471 266 c 0,46,47
 471 257 471 257 453 234 c 0,48,49
 434 212 434 212 414 189 c 0,50,51
 399 174 399 174 387 162 c 0,52,53
 375 149 375 149 369 143 c 0,54,55
 359 134 359 134 310 117 c 0,56,57
 260 99 260 99 208 84 c 0,58,59
 173 75 173 75 144 68 c 256,60,61
 115 61 115 61 102 61 c 0,0,1
287 492 m 1,62,63
 307 471 307 471 330 451 c 0,64,65
 353 430 353 430 353 410 c 0,66,67
 353 389 353 389 361 389 c 256,68,69
 369 389 369 389 369 410 c 0,70,71
 369 429 369 429 338 460 c 0,72,73
 307 492 307 492 266 532 c 1,74,75
 266 430 266 430 260 389 c 256,76,77
 254 348 254 348 266 348 c 1,78,79
 266 348 266 348 284 339 c 0,80,81
 301 329 301 329 307 328 c 0,82,83
 323 312 323 312 325 320 c 0,84,85
 328 328 328 328 328 328 c 257,86,87
 328 328 328 328 307 338 c 0,88,89
 287 348 287 348 287 348 c 1,90,91
 301 358 301 358 314 378 c 0,92,93
 328 399 328 399 328 410 c 0,94,95
 328 419 328 419 307 445 c 0,96,97
 287 471 287 471 287 492 c 1,62,63
EndSplineSet
EndChar

StartChar: four
Encoding: 52 52 11
Width: 512
GlyphClass: 1
Flags: W
LayerCount: 2
Fore
SplineSet
102 82 m 0,0,1
 56 82 56 82 61 82 c 0,2,3
 67 82 67 82 20 82 c 1,4,5
 20 113 20 113 20 174 c 0,6,7
 20 236 20 236 20 307 c 1,8,9
 54 307 54 307 53 307 c 0,10,11
 51 307 51 307 82 307 c 1,12,13
 82 329 82 329 90 348 c 0,14,15
 99 368 99 368 111 386 c 0,16,17
 134 419 134 419 159 445 c 0,18,19
 184 472 184 472 184 492 c 256,20,21
 184 512 184 512 181 540 c 0,22,23
 178 569 178 569 186 590 c 0,24,25
 191 601 191 601 200 608 c 0,26,27
 209 614 209 614 225 614 c 1,28,29
 225 645 225 645 248 658 c 0,30,31
 259 664 259 664 268 664 c 0,32,33
 278 664 278 664 287 655 c 0,34,35
 327 615 327 615 369 572 c 0,36,37
 411 530 411 530 439 498 c 0,38,39
 454 481 454 481 462 468 c 0,40,41
 471 456 471 456 471 451 c 0,42,43
 471 435 471 435 471 384 c 256,44,45
 471 333 471 333 471 287 c 0,46,47
 471 277 471 277 453 255 c 0,48,49
 434 232 434 232 414 210 c 0,50,51
 399 195 399 195 387 182 c 0,52,53
 375 170 375 170 369 164 c 0,54,55
 359 155 359 155 310 137 c 0,56,57
 260 120 260 120 208 105 c 0,58,59
 173 95 173 95 144 88 c 0,60,61
 115 82 115 82 102 82 c 0,0,1
287 512 m 1,62,63
 307 492 307 492 330 471 c 0,64,65
 353 451 353 451 353 430 c 0,66,67
 353 410 353 410 361 410 c 256,68,69
 369 410 369 410 369 430 c 0,70,71
 369 449 369 449 338 481 c 0,72,73
 307 512 307 512 266 553 c 1,74,75
 266 451 266 451 260 410 c 256,76,77
 254 369 254 369 266 369 c 1,78,79
 266 369 266 369 284 359 c 0,80,81
 301 349 301 349 307 348 c 0,82,83
 323 333 323 333 325 340 c 0,84,85
 328 348 328 348 328 348 c 257,86,87
 328 348 328 348 307 358 c 0,88,89
 287 369 287 369 287 369 c 1,90,91
 301 379 301 379 314 399 c 0,92,93
 328 419 328 419 328 430 c 0,94,95
 328 440 328 440 307 466 c 0,96,97
 287 492 287 492 287 512 c 1,62,63
EndSplineSet
EndChar

StartChar: five
Encoding: 53 53 12
Width: 492
GlyphClass: 1
Flags: W
LayerCount: 2
Fore
SplineSet
102 102 m 0,0,1
 56 102 56 102 61 102 c 0,2,3
 67 102 67 102 20 102 c 1,4,5
 20 133 20 133 20 195 c 0,6,7
 20 256 20 256 20 328 c 1,8,9
 54 328 54 328 53 328 c 0,10,11
 51 328 51 328 82 328 c 1,12,13
 82 349 82 349 90 369 c 0,14,15
 99 389 99 389 111 406 c 0,16,17
 134 439 134 439 159 466 c 0,18,19
 184 492 184 492 184 512 c 256,20,21
 184 532 184 532 181 561 c 256,22,23
 178 590 178 590 186 610 c 0,24,25
 191 621 191 621 200 628 c 256,26,27
 209 635 209 635 225 635 c 1,28,29
 225 666 225 666 248 678 c 0,30,31
 259 684 259 684 268 684 c 0,32,33
 278 684 278 684 287 676 c 0,34,35
 327 636 327 636 369 593 c 256,36,37
 411 550 411 550 439 518 c 0,38,39
 454 501 454 501 462 489 c 0,40,41
 471 476 471 476 471 471 c 0,42,43
 471 456 471 456 471 404 c 0,44,45
 471 353 471 353 471 307 c 0,46,47
 471 298 471 298 453 275 c 0,48,49
 434 253 434 253 414 230 c 0,50,51
 399 215 399 215 387 203 c 0,52,53
 375 190 375 190 369 184 c 0,54,55
 359 175 359 175 310 158 c 0,56,57
 260 140 260 140 208 125 c 0,58,59
 173 116 173 116 144 109 c 256,60,61
 115 102 115 102 102 102 c 0,0,1
287 532 m 1,62,63
 307 512 307 512 330 492 c 0,64,65
 353 471 353 471 353 451 c 0,66,67
 353 430 353 430 361 430 c 256,68,69
 369 430 369 430 369 451 c 0,70,71
 369 469 369 469 338 501 c 0,72,73
 307 532 307 532 266 573 c 1,74,75
 266 471 266 471 260 430 c 256,76,77
 254 389 254 389 266 389 c 1,78,79
 266 389 266 389 284 379 c 0,80,81
 301 370 301 370 307 369 c 0,82,83
 323 353 323 353 325 361 c 0,84,85
 328 369 328 369 328 369 c 257,86,87
 328 369 328 369 307 379 c 0,88,89
 287 389 287 389 287 389 c 1,90,91
 301 399 301 399 314 419 c 0,92,93
 328 440 328 440 328 451 c 0,94,95
 328 460 328 460 307 486 c 0,96,97
 287 512 287 512 287 532 c 1,62,63
EndSplineSet
EndChar

StartChar: six
Encoding: 54 54 13
Width: 492
GlyphClass: 1
Flags: W
LayerCount: 2
Fore
SplineSet
102 82 m 0,0,1
 56 82 56 82 61 82 c 0,2,3
 67 82 67 82 20 82 c 1,4,5
 20 113 20 113 20 174 c 0,6,7
 20 236 20 236 20 307 c 1,8,9
 54 307 54 307 53 307 c 0,10,11
 51 307 51 307 82 307 c 1,12,13
 82 329 82 329 90 348 c 0,14,15
 99 368 99 368 111 386 c 0,16,17
 134 419 134 419 159 445 c 0,18,19
 184 472 184 472 184 492 c 256,20,21
 184 512 184 512 181 540 c 0,22,23
 178 569 178 569 186 590 c 0,24,25
 191 601 191 601 200 608 c 0,26,27
 209 614 209 614 225 614 c 1,28,29
 225 645 225 645 248 658 c 0,30,31
 259 664 259 664 268 664 c 0,32,33
 278 664 278 664 287 655 c 0,34,35
 327 615 327 615 369 572 c 0,36,37
 411 530 411 530 439 498 c 0,38,39
 454 481 454 481 462 468 c 0,40,41
 471 456 471 456 471 451 c 0,42,43
 471 435 471 435 471 384 c 256,44,45
 471 333 471 333 471 287 c 0,46,47
 471 277 471 277 453 255 c 0,48,49
 434 232 434 232 414 210 c 0,50,51
 399 195 399 195 387 182 c 0,52,53
 375 170 375 170 369 164 c 0,54,55
 359 155 359 155 310 137 c 0,56,57
 260 120 260 120 208 105 c 0,58,59
 173 95 173 95 144 88 c 0,60,61
 115 82 115 82 102 82 c 0,0,1
287 512 m 1,62,63
 307 492 307 492 330 471 c 0,64,65
 353 451 353 451 353 430 c 0,66,67
 353 410 353 410 361 410 c 256,68,69
 369 410 369 410 369 430 c 0,70,71
 369 449 369 449 338 481 c 0,72,73
 307 512 307 512 266 553 c 1,74,75
 266 451 266 451 260 410 c 256,76,77
 254 369 254 369 266 369 c 1,78,79
 266 369 266 369 284 359 c 0,80,81
 301 349 301 349 307 348 c 0,82,83
 323 333 323 333 325 340 c 0,84,85
 328 348 328 348 328 348 c 257,86,87
 328 348 328 348 307 358 c 0,88,89
 287 369 287 369 287 369 c 1,90,91
 301 379 301 379 314 399 c 0,92,93
 328 419 328 419 328 430 c 0,94,95
 328 440 328 440 307 466 c 0,96,97
 287 492 287 492 287 512 c 1,62,63
EndSplineSet
EndChar

StartChar: seven
Encoding: 55 55 14
Width: 574
GlyphClass: 1
Flags: W
LayerCount: 2
Fore
SplineSet
102 61 m 0,0,1
 56 61 56 61 61 61 c 0,2,3
 67 61 67 61 20 61 c 1,4,5
 20 92 20 92 20 154 c 0,6,7
 20 215 20 215 20 287 c 1,8,9
 54 287 54 287 53 287 c 0,10,11
 51 287 51 287 82 287 c 1,12,13
 82 308 82 308 90 328 c 0,14,15
 99 348 99 348 111 365 c 0,16,17
 134 398 134 398 159 425 c 0,18,19
 184 451 184 451 184 471 c 256,20,21
 184 491 184 491 181 520 c 256,22,23
 178 549 178 549 186 569 c 0,24,25
 191 580 191 580 200 587 c 256,26,27
 209 594 209 594 225 594 c 1,28,29
 225 625 225 625 248 637 c 0,30,31
 259 643 259 643 268 643 c 0,32,33
 278 643 278 643 287 635 c 0,34,35
 327 595 327 595 369 552 c 256,36,37
 411 509 411 509 439 477 c 0,38,39
 454 460 454 460 462 448 c 0,40,41
 471 435 471 435 471 430 c 0,42,43
 471 415 471 415 471 364 c 0,44,45
 471 312 471 312 471 266 c 0,46,47
 471 257 471 257 453 234 c 0,48,49
 434 212 434 212 414 189 c 0,50,51
 399 174 399 174 387 162 c 0,52,53
 375 149 375 149 369 143 c 0,54,55
 359 134 359 134 310 117 c 0,56,57
 260 99 260 99 208 84 c 0,58,59
 173 75 173 75 144 68 c 256,60,61
 115 61 115 61 102 61 c 0,0,1
287 492 m 1,62,63
 307 471 307 471 330 451 c 0,64,65
 353 430 353 430 353 410 c 0,66,67
 353 389 353 389 361 389 c 256,68,69
 369 389 369 389 369 410 c 0,70,71
 369 429 369 429 338 460 c 0,72,73
 307 492 307 492 266 532 c 1,74,75
 266 430 266 430 260 389 c 256,76,77
 254 348 254 348 266 348 c 1,78,79
 266 348 266 348 284 339 c 0,80,81
 301 329 301 329 307 328 c 0,82,83
 323 312 323 312 325 320 c 0,84,85
 328 328 328 328 328 328 c 257,86,87
 328 328 328 328 307 338 c 0,88,89
 287 348 287 348 287 348 c 1,90,91
 301 358 301 358 314 378 c 0,92,93
 328 399 328 399 328 410 c 0,94,95
 328 419 328 419 307 445 c 0,96,97
 287 471 287 471 287 492 c 1,62,63
EndSplineSet
EndChar

StartChar: eight
Encoding: 56 56 15
Width: 492
GlyphClass: 1
Flags: W
LayerCount: 2
Fore
SplineSet
102 41 m 0,0,1
 56 41 56 41 61 41 c 0,2,3
 67 41 67 41 20 41 c 1,4,5
 20 72 20 72 20 133 c 0,6,7
 20 195 20 195 20 266 c 1,8,9
 54 266 54 266 53 266 c 0,10,11
 51 266 51 266 82 266 c 1,12,13
 82 288 82 288 90 307 c 0,14,15
 99 327 99 327 111 345 c 0,16,17
 134 378 134 378 159 404 c 0,18,19
 184 431 184 431 184 451 c 256,20,21
 184 471 184 471 181 499 c 0,22,23
 178 528 178 528 186 549 c 0,24,25
 191 560 191 560 200 567 c 0,26,27
 209 573 209 573 225 573 c 1,28,29
 225 604 225 604 248 617 c 0,30,31
 259 623 259 623 268 623 c 0,32,33
 278 623 278 623 287 614 c 0,34,35
 327 574 327 574 369 531 c 0,36,37
 411 489 411 489 439 457 c 0,38,39
 454 440 454 440 462 427 c 0,40,41
 471 415 471 415 471 410 c 0,42,43
 471 394 471 394 471 343 c 256,44,45
 471 292 471 292 471 246 c 0,46,47
 471 236 471 236 453 214 c 0,48,49
 434 191 434 191 414 169 c 0,50,51
 399 154 399 154 387 141 c 0,52,53
 375 129 375 129 369 123 c 0,54,55
 359 114 359 114 310 96 c 0,56,57
 260 79 260 79 208 64 c 0,58,59
 173 54 173 54 144 48 c 0,60,61
 115 41 115 41 102 41 c 0,0,1
287 471 m 1,62,63
 307 451 307 451 330 430 c 0,64,65
 353 410 353 410 353 389 c 0,66,67
 353 369 353 369 361 369 c 256,68,69
 369 369 369 369 369 389 c 0,70,71
 369 408 369 408 338 440 c 0,72,73
 307 471 307 471 266 512 c 1,74,75
 266 410 266 410 260 369 c 256,76,77
 254 328 254 328 266 328 c 1,78,79
 266 328 266 328 284 318 c 0,80,81
 301 308 301 308 307 307 c 0,82,83
 323 292 323 292 325 300 c 0,84,85
 328 307 328 307 328 307 c 257,86,87
 328 307 328 307 307 317 c 0,88,89
 287 328 287 328 287 328 c 1,90,91
 301 338 301 338 314 358 c 0,92,93
 328 378 328 378 328 389 c 0,94,95
 328 399 328 399 307 425 c 0,96,97
 287 451 287 451 287 471 c 1,62,63
EndSplineSet
EndChar

StartChar: nine
Encoding: 57 57 16
Width: 512
GlyphClass: 1
Flags: W
LayerCount: 2
Fore
SplineSet
102 20 m 0,0,1
 56 20 56 20 61 20 c 0,2,3
 67 20 67 20 20 20 c 1,4,5
 20 51 20 51 20 113 c 0,6,7
 20 174 20 174 20 246 c 1,8,9
 54 246 54 246 53 246 c 0,10,11
 51 246 51 246 82 246 c 1,12,13
 82 267 82 267 90 287 c 0,14,15
 99 307 99 307 111 324 c 0,16,17
 134 357 134 357 159 384 c 0,18,19
 184 410 184 410 184 430 c 256,20,21
 184 450 184 450 181 479 c 256,22,23
 178 508 178 508 186 528 c 0,24,25
 191 539 191 539 200 546 c 256,26,27
 209 553 209 553 225 553 c 1,28,29
 225 584 225 584 248 596 c 0,30,31
 259 602 259 602 268 602 c 0,32,33
 278 602 278 602 287 594 c 0,34,35
 327 554 327 554 369 511 c 256,36,37
 411 468 411 468 439 436 c 0,38,39
 454 419 454 419 462 407 c 0,40,41
 471 394 471 394 471 389 c 0,42,43
 471 374 471 374 471 323 c 0,44,45
 471 271 471 271 471 225 c 0,46,47
 471 216 471 216 453 193 c 0,48,49
 434 171 434 171 414 148 c 0,50,51
 399 133 399 133 387 121 c 256,52,53
 375 109 375 109 369 102 c 0,54,55
 359 93 359 93 310 76 c 0,56,57
 260 58 260 58 208 43 c 0,58,59
 173 34 173 34 144 27 c 256,60,61
 115 20 115 20 102 20 c 0,0,1
287 451 m 1,62,63
 307 430 307 430 330 410 c 0,64,65
 353 389 353 389 353 369 c 0,66,67
 353 348 353 348 361 348 c 256,68,69
 369 348 369 348 369 369 c 0,70,71
 369 388 369 388 338 419 c 0,72,73
 307 451 307 451 266 492 c 1,74,75
 266 389 266 389 260 348 c 256,76,77
 254 307 254 307 266 307 c 1,78,79
 266 307 266 307 284 298 c 0,80,81
 301 288 301 288 307 287 c 0,82,83
 323 271 323 271 325 279 c 0,84,85
 328 287 328 287 328 287 c 257,86,87
 328 287 328 287 307 297 c 0,88,89
 287 307 287 307 287 307 c 1,90,91
 301 317 301 317 314 338 c 0,92,93
 328 358 328 358 328 369 c 0,94,95
 328 378 328 378 307 404 c 0,96,97
 287 430 287 430 287 451 c 1,62,63
EndSplineSet
EndChar

StartChar: A
Encoding: 65 65 17
Width: 491
GlyphClass: 1
Flags: W
LayerCount: 2
Fore
SplineSet
102 0 m 0,0,1
 56 0 56 0 61 0 c 0,2,3
 67 0 67 0 20 0 c 1,4,5
 20 31 20 31 20 92 c 0,6,7
 20 154 20 154 20 225 c 1,8,9
 54 225 54 225 53 225 c 0,10,11
 51 225 51 225 82 225 c 1,12,13
 82 247 82 247 90 267 c 0,14,15
 99 286 99 286 111 304 c 0,16,17
 134 337 134 337 159 363 c 0,18,19
 184 390 184 390 184 410 c 256,20,21
 184 430 184 430 181 458 c 0,22,23
 178 487 178 487 186 508 c 0,24,25
 191 519 191 519 200 526 c 0,26,27
 209 532 209 532 225 532 c 1,28,29
 225 563 225 563 248 576 c 0,30,31
 259 582 259 582 268 582 c 0,32,33
 278 582 278 582 287 573 c 0,34,35
 327 533 327 533 369 491 c 0,36,37
 411 448 411 448 439 416 c 0,38,39
 454 399 454 399 462 386 c 0,40,41
 471 374 471 374 471 369 c 0,42,43
 471 353 471 353 471 302 c 256,44,45
 471 251 471 251 471 205 c 0,46,47
 471 195 471 195 453 173 c 0,48,49
 434 150 434 150 414 128 c 0,50,51
 399 113 399 113 387 100 c 0,52,53
 375 88 375 88 369 82 c 0,54,55
 359 73 359 73 310 55 c 0,56,57
 260 38 260 38 208 23 c 0,58,59
 173 13 173 13 144 7 c 0,60,61
 115 0 115 0 102 0 c 0,0,1
287 430 m 1,62,63
 307 410 307 410 330 389 c 0,64,65
 353 369 353 369 353 348 c 0,66,67
 353 328 353 328 361 328 c 256,68,69
 369 328 369 328 369 348 c 0,70,71
 369 367 369 367 338 399 c 0,72,73
 307 430 307 430 266 471 c 1,74,75
 266 369 266 369 260 328 c 256,76,77
 254 287 254 287 266 287 c 1,78,79
 266 287 266 287 284 277 c 0,80,81
 301 267 301 267 307 266 c 0,82,83
 323 251 323 251 325 259 c 0,84,85
 328 266 328 266 328 266 c 257,86,87
 328 266 328 266 307 276 c 0,88,89
 287 287 287 287 287 287 c 1,90,91
 301 297 301 297 314 317 c 0,92,93
 328 337 328 337 328 348 c 0,94,95
 328 358 328 358 307 384 c 0,96,97
 287 410 287 410 287 430 c 1,62,63
EndSplineSet
EndChar

StartChar: B
Encoding: 66 66 18
Width: 491
GlyphClass: 1
Flags: W
LayerCount: 2
Fore
SplineSet
102 0 m 0,0,1
 56 0 56 0 61 0 c 0,2,3
 67 0 67 0 20 0 c 1,4,5
 20 31 20 31 20 92 c 0,6,7
 20 154 20 154 20 225 c 1,8,9
 54 225 54 225 53 225 c 0,10,11
 51 225 51 225 82 225 c 1,12,13
 82 247 82 247 90 267 c 0,14,15
 99 286 99 286 111 304 c 0,16,17
 134 337 134 337 159 363 c 0,18,19
 184 390 184 390 184 410 c 256,20,21
 184 430 184 430 181 458 c 0,22,23
 178 487 178 487 186 508 c 0,24,25
 191 519 191 519 200 526 c 0,26,27
 209 532 209 532 225 532 c 1,28,29
 225 563 225 563 248 576 c 0,30,31
 259 582 259 582 268 582 c 0,32,33
 278 582 278 582 287 573 c 0,34,35
 308 552 308 552 331 529 c 256,36,37
 354 506 354 506 375 484 c 0,38,39
 415 444 415 444 443 411 c 0,40,41
 471 379 471 379 471 369 c 0,42,43
 471 353 471 353 471 302 c 256,44,45
 471 251 471 251 471 205 c 0,46,47
 471 195 471 195 453 173 c 0,48,49
 434 150 434 150 414 128 c 0,50,51
 399 113 399 113 387 100 c 0,52,53
 375 88 375 88 369 82 c 0,54,55
 359 73 359 73 310 55 c 0,56,57
 260 38 260 38 208 23 c 0,58,59
 173 13 173 13 144 7 c 0,60,61
 115 0 115 0 102 0 c 0,0,1
287 430 m 1,62,63
 307 410 307 410 330 389 c 0,64,65
 353 369 353 369 353 348 c 0,66,67
 353 328 353 328 361 328 c 256,68,69
 369 328 369 328 369 348 c 0,70,71
 369 367 369 367 338 399 c 0,72,73
 307 430 307 430 266 471 c 1,74,75
 266 369 266 369 260 328 c 256,76,77
 254 287 254 287 266 287 c 1,78,79
 266 287 266 287 284 277 c 0,80,81
 301 267 301 267 307 266 c 0,82,83
 323 251 323 251 325 259 c 0,84,85
 328 266 328 266 328 266 c 257,86,87
 328 266 328 266 307 276 c 0,88,89
 287 287 287 287 287 287 c 1,90,91
 301 297 301 297 314 317 c 0,92,93
 328 337 328 337 328 348 c 0,94,95
 328 358 328 358 307 384 c 0,96,97
 287 410 287 410 287 430 c 1,62,63
EndSplineSet
EndChar

StartChar: C
Encoding: 67 67 19
Width: 491
GlyphClass: 1
Flags: W
LayerCount: 2
Fore
SplineSet
102 0 m 0,0,1
 56 0 56 0 61 0 c 0,2,3
 67 0 67 0 20 0 c 1,4,5
 20 31 20 31 20 92 c 0,6,7
 20 154 20 154 20 225 c 1,8,9
 54 225 54 225 53 225 c 0,10,11
 51 225 51 225 82 225 c 1,12,13
 82 247 82 247 90 267 c 0,14,15
 99 286 99 286 111 304 c 0,16,17
 134 337 134 337 159 363 c 0,18,19
 184 390 184 390 184 410 c 256,20,21
 184 430 184 430 181 458 c 0,22,23
 178 487 178 487 186 508 c 0,24,25
 191 519 191 519 200 526 c 0,26,27
 209 532 209 532 225 532 c 1,28,29
 225 563 225 563 248 576 c 0,30,31
 259 582 259 582 268 582 c 0,32,33
 278 582 278 582 287 573 c 0,34,35
 308 552 308 552 331 529 c 256,36,37
 354 506 354 506 375 484 c 0,38,39
 415 444 415 444 443 411 c 0,40,41
 471 379 471 379 471 369 c 0,42,43
 471 353 471 353 471 302 c 256,44,45
 471 251 471 251 471 205 c 0,46,47
 471 195 471 195 453 173 c 0,48,49
 434 150 434 150 414 128 c 0,50,51
 399 113 399 113 387 100 c 0,52,53
 375 88 375 88 369 82 c 0,54,55
 359 73 359 73 310 55 c 0,56,57
 260 38 260 38 208 23 c 0,58,59
 173 13 173 13 144 7 c 0,60,61
 115 0 115 0 102 0 c 0,0,1
287 430 m 1,62,63
 307 410 307 410 330 389 c 0,64,65
 353 369 353 369 353 348 c 0,66,67
 353 328 353 328 361 328 c 256,68,69
 369 328 369 328 369 348 c 0,70,71
 369 367 369 367 338 399 c 0,72,73
 307 430 307 430 266 471 c 1,74,75
 266 369 266 369 260 328 c 256,76,77
 254 287 254 287 266 287 c 1,78,79
 266 287 266 287 284 277 c 0,80,81
 301 267 301 267 307 266 c 0,82,83
 323 251 323 251 325 259 c 0,84,85
 328 266 328 266 328 266 c 257,86,87
 328 266 328 266 307 276 c 0,88,89
 287 287 287 287 287 287 c 1,90,91
 301 297 301 297 314 317 c 0,92,93
 328 337 328 337 328 348 c 0,94,95
 328 358 328 358 307 384 c 0,96,97
 287 410 287 410 287 430 c 1,62,63
EndSplineSet
EndChar

StartChar: D
Encoding: 68 68 20
Width: 491
GlyphClass: 1
Flags: W
LayerCount: 2
Fore
SplineSet
102 0 m 0,0,1
 56 0 56 0 61 0 c 0,2,3
 67 0 67 0 20 0 c 1,4,5
 20 31 20 31 20 92 c 0,6,7
 20 154 20 154 20 225 c 1,8,9
 54 225 54 225 53 225 c 0,10,11
 51 225 51 225 82 225 c 1,12,13
 82 247 82 247 90 267 c 0,14,15
 99 286 99 286 111 304 c 0,16,17
 134 337 134 337 159 363 c 0,18,19
 184 390 184 390 184 410 c 256,20,21
 184 430 184 430 181 458 c 0,22,23
 178 487 178 487 186 508 c 0,24,25
 191 519 191 519 200 526 c 0,26,27
 209 532 209 532 225 532 c 1,28,29
 225 563 225 563 248 576 c 0,30,31
 259 582 259 582 268 582 c 0,32,33
 278 582 278 582 287 573 c 0,34,35
 308 552 308 552 331 529 c 256,36,37
 354 506 354 506 375 484 c 0,38,39
 415 444 415 444 443 411 c 0,40,41
 471 379 471 379 471 369 c 0,42,43
 471 353 471 353 471 302 c 256,44,45
 471 251 471 251 471 205 c 0,46,47
 471 195 471 195 453 173 c 0,48,49
 434 150 434 150 414 128 c 0,50,51
 399 113 399 113 387 100 c 0,52,53
 375 88 375 88 369 82 c 0,54,55
 359 73 359 73 310 55 c 0,56,57
 260 38 260 38 208 23 c 0,58,59
 173 13 173 13 144 7 c 0,60,61
 115 0 115 0 102 0 c 0,0,1
287 430 m 1,62,63
 307 410 307 410 330 389 c 0,64,65
 353 369 353 369 353 348 c 0,66,67
 353 328 353 328 361 328 c 256,68,69
 369 328 369 328 369 348 c 0,70,71
 369 367 369 367 338 399 c 0,72,73
 307 430 307 430 266 471 c 1,74,75
 266 369 266 369 260 328 c 256,76,77
 254 287 254 287 266 287 c 1,78,79
 266 287 266 287 284 277 c 0,80,81
 301 267 301 267 307 266 c 0,82,83
 323 251 323 251 325 259 c 0,84,85
 328 266 328 266 328 266 c 257,86,87
 328 266 328 266 307 276 c 0,88,89
 287 287 287 287 287 287 c 1,90,91
 301 297 301 297 314 317 c 0,92,93
 328 337 328 337 328 348 c 0,94,95
 328 358 328 358 307 384 c 0,96,97
 287 410 287 410 287 430 c 1,62,63
EndSplineSet
EndChar

StartChar: E
Encoding: 69 69 21
Width: 491
GlyphClass: 1
Flags: W
LayerCount: 2
Fore
SplineSet
102 0 m 0,0,1
 56 0 56 0 61 0 c 0,2,3
 67 0 67 0 20 0 c 1,4,5
 20 31 20 31 20 92 c 0,6,7
 20 154 20 154 20 225 c 1,8,9
 54 225 54 225 53 225 c 0,10,11
 51 225 51 225 82 225 c 1,12,13
 82 247 82 247 90 267 c 0,14,15
 99 286 99 286 111 304 c 0,16,17
 134 337 134 337 159 363 c 0,18,19
 184 390 184 390 184 410 c 256,20,21
 184 430 184 430 181 458 c 0,22,23
 178 487 178 487 186 508 c 0,24,25
 191 519 191 519 200 526 c 0,26,27
 209 532 209 532 225 532 c 1,28,29
 225 563 225 563 248 576 c 0,30,31
 259 582 259 582 268 582 c 0,32,33
 278 582 278 582 287 573 c 0,34,35
 308 552 308 552 331 529 c 256,36,37
 354 506 354 506 375 484 c 0,38,39
 415 444 415 444 443 411 c 0,40,41
 471 379 471 379 471 369 c 0,42,43
 471 353 471 353 471 302 c 256,44,45
 471 251 471 251 471 205 c 0,46,47
 471 195 471 195 453 173 c 0,48,49
 434 150 434 150 414 128 c 0,50,51
 399 113 399 113 387 100 c 0,52,53
 375 88 375 88 369 82 c 0,54,55
 359 73 359 73 310 55 c 0,56,57
 260 38 260 38 208 23 c 0,58,59
 173 13 173 13 144 7 c 0,60,61
 115 0 115 0 102 0 c 0,0,1
287 430 m 1,62,63
 307 410 307 410 330 389 c 0,64,65
 353 369 353 369 353 348 c 0,66,67
 353 328 353 328 361 328 c 256,68,69
 369 328 369 328 369 348 c 0,70,71
 369 367 369 367 338 399 c 0,72,73
 307 430 307 430 266 471 c 1,74,75
 266 369 266 369 260 328 c 256,76,77
 254 287 254 287 266 287 c 1,78,79
 266 287 266 287 284 277 c 0,80,81
 301 267 301 267 307 266 c 0,82,83
 323 251 323 251 325 259 c 0,84,85
 328 266 328 266 328 266 c 257,86,87
 328 266 328 266 307 276 c 0,88,89
 287 287 287 287 287 287 c 1,90,91
 301 297 301 297 314 317 c 0,92,93
 328 337 328 337 328 348 c 0,94,95
 328 358 328 358 307 384 c 0,96,97
 287 410 287 410 287 430 c 1,62,63
EndSplineSet
EndChar

StartChar: F
Encoding: 70 70 22
Width: 491
GlyphClass: 1
Flags: W
LayerCount: 2
Fore
SplineSet
102 0 m 0,0,1
 56 0 56 0 61 0 c 0,2,3
 67 0 67 0 20 0 c 1,4,5
 20 31 20 31 20 92 c 0,6,7
 20 154 20 154 20 225 c 1,8,9
 54 225 54 225 53 225 c 0,10,11
 51 225 51 225 82 225 c 1,12,13
 82 247 82 247 90 267 c 0,14,15
 99 286 99 286 111 304 c 0,16,17
 134 337 134 337 159 363 c 0,18,19
 184 390 184 390 184 410 c 256,20,21
 184 430 184 430 181 458 c 0,22,23
 178 487 178 487 186 508 c 0,24,25
 191 519 191 519 200 526 c 0,26,27
 209 532 209 532 225 532 c 1,28,29
 225 563 225 563 248 576 c 0,30,31
 259 582 259 582 268 582 c 0,32,33
 278 582 278 582 287 573 c 0,34,35
 308 552 308 552 331 529 c 256,36,37
 354 506 354 506 375 484 c 0,38,39
 415 444 415 444 443 411 c 0,40,41
 471 379 471 379 471 369 c 0,42,43
 471 353 471 353 471 302 c 256,44,45
 471 251 471 251 471 205 c 0,46,47
 471 195 471 195 453 173 c 0,48,49
 434 150 434 150 414 128 c 0,50,51
 399 113 399 113 387 100 c 0,52,53
 375 88 375 88 369 82 c 0,54,55
 359 73 359 73 310 55 c 0,56,57
 260 38 260 38 208 23 c 0,58,59
 173 13 173 13 144 7 c 0,60,61
 115 0 115 0 102 0 c 0,0,1
287 430 m 1,62,63
 307 410 307 410 330 389 c 0,64,65
 353 369 353 369 353 348 c 0,66,67
 353 328 353 328 361 328 c 256,68,69
 369 328 369 328 369 348 c 0,70,71
 369 367 369 367 338 399 c 0,72,73
 307 430 307 430 266 471 c 1,74,75
 266 369 266 369 260 328 c 256,76,77
 254 287 254 287 266 287 c 1,78,79
 266 287 266 287 284 277 c 0,80,81
 301 267 301 267 307 266 c 0,82,83
 323 251 323 251 325 259 c 0,84,85
 328 266 328 266 328 266 c 257,86,87
 328 266 328 266 307 276 c 0,88,89
 287 287 287 287 287 287 c 1,90,91
 301 297 301 297 314 317 c 0,92,93
 328 337 328 337 328 348 c 0,94,95
 328 358 328 358 307 384 c 0,96,97
 287 410 287 410 287 430 c 1,62,63
EndSplineSet
EndChar

StartChar: G
Encoding: 71 71 23
Width: 491
GlyphClass: 1
Flags: W
LayerCount: 2
Fore
SplineSet
102 0 m 0,0,1
 56 0 56 0 61 0 c 0,2,3
 67 0 67 0 20 0 c 1,4,5
 20 31 20 31 20 92 c 0,6,7
 20 154 20 154 20 225 c 1,8,9
 54 225 54 225 53 225 c 0,10,11
 51 225 51 225 82 225 c 1,12,13
 82 247 82 247 90 267 c 0,14,15
 99 286 99 286 111 304 c 0,16,17
 134 337 134 337 159 363 c 0,18,19
 184 390 184 390 184 410 c 256,20,21
 184 430 184 430 181 458 c 0,22,23
 178 487 178 487 186 508 c 0,24,25
 191 519 191 519 200 526 c 0,26,27
 209 532 209 532 225 532 c 1,28,29
 225 563 225 563 248 576 c 0,30,31
 259 582 259 582 268 582 c 0,32,33
 278 582 278 582 287 573 c 0,34,35
 308 552 308 552 331 529 c 256,36,37
 354 506 354 506 375 484 c 0,38,39
 415 444 415 444 443 411 c 0,40,41
 471 379 471 379 471 369 c 0,42,43
 471 353 471 353 471 302 c 256,44,45
 471 251 471 251 471 205 c 0,46,47
 471 195 471 195 453 173 c 0,48,49
 434 150 434 150 414 128 c 0,50,51
 399 113 399 113 387 100 c 0,52,53
 375 88 375 88 369 82 c 0,54,55
 359 73 359 73 310 55 c 0,56,57
 260 38 260 38 208 23 c 0,58,59
 173 13 173 13 144 7 c 0,60,61
 115 0 115 0 102 0 c 0,0,1
287 430 m 1,62,63
 307 410 307 410 330 389 c 0,64,65
 353 369 353 369 353 348 c 0,66,67
 353 328 353 328 361 328 c 256,68,69
 369 328 369 328 369 348 c 0,70,71
 369 367 369 367 338 399 c 0,72,73
 307 430 307 430 266 471 c 1,74,75
 266 369 266 369 260 328 c 256,76,77
 254 287 254 287 266 287 c 1,78,79
 266 287 266 287 284 277 c 0,80,81
 301 267 301 267 307 266 c 0,82,83
 323 251 323 251 325 259 c 0,84,85
 328 266 328 266 328 266 c 257,86,87
 328 266 328 266 307 276 c 0,88,89
 287 287 287 287 287 287 c 1,90,91
 301 297 301 297 314 317 c 0,92,93
 328 337 328 337 328 348 c 0,94,95
 328 358 328 358 307 384 c 0,96,97
 287 410 287 410 287 430 c 1,62,63
EndSplineSet
EndChar

StartChar: H
Encoding: 72 72 24
Width: 491
GlyphClass: 1
Flags: W
LayerCount: 2
Fore
SplineSet
102 0 m 0,0,1
 56 0 56 0 61 0 c 0,2,3
 67 0 67 0 20 0 c 1,4,5
 20 31 20 31 20 92 c 0,6,7
 20 154 20 154 20 225 c 1,8,9
 54 225 54 225 53 225 c 0,10,11
 51 225 51 225 82 225 c 1,12,13
 82 247 82 247 90 267 c 0,14,15
 99 286 99 286 111 304 c 0,16,17
 134 337 134 337 159 363 c 0,18,19
 184 390 184 390 184 410 c 256,20,21
 184 430 184 430 181 458 c 0,22,23
 178 487 178 487 186 508 c 0,24,25
 191 519 191 519 200 526 c 0,26,27
 209 532 209 532 225 532 c 1,28,29
 225 563 225 563 248 576 c 0,30,31
 259 582 259 582 268 582 c 0,32,33
 278 582 278 582 287 573 c 0,34,35
 308 552 308 552 331 529 c 256,36,37
 354 506 354 506 375 484 c 0,38,39
 415 444 415 444 443 411 c 0,40,41
 471 379 471 379 471 369 c 0,42,43
 471 353 471 353 471 302 c 256,44,45
 471 251 471 251 471 205 c 0,46,47
 471 195 471 195 453 173 c 0,48,49
 434 150 434 150 414 128 c 0,50,51
 399 113 399 113 387 100 c 0,52,53
 375 88 375 88 369 82 c 0,54,55
 359 73 359 73 310 55 c 0,56,57
 260 38 260 38 208 23 c 0,58,59
 173 13 173 13 144 7 c 0,60,61
 115 0 115 0 102 0 c 0,0,1
287 430 m 1,62,63
 307 410 307 410 330 389 c 0,64,65
 353 369 353 369 353 348 c 0,66,67
 353 328 353 328 361 328 c 256,68,69
 369 328 369 328 369 348 c 0,70,71
 369 367 369 367 338 399 c 0,72,73
 307 430 307 430 266 471 c 1,74,75
 266 369 266 369 260 328 c 256,76,77
 254 287 254 287 266 287 c 1,78,79
 266 287 266 287 284 277 c 0,80,81
 301 267 301 267 307 266 c 0,82,83
 323 251 323 251 325 259 c 0,84,85
 328 266 328 266 328 266 c 257,86,87
 328 266 328 266 307 276 c 0,88,89
 287 287 287 287 287 287 c 1,90,91
 301 297 301 297 314 317 c 0,92,93
 328 337 328 337 328 348 c 0,94,95
 328 358 328 358 307 384 c 0,96,97
 287 410 287 410 287 430 c 1,62,63
EndSplineSet
EndChar

StartChar: I
Encoding: 73 73 25
Width: 491
GlyphClass: 1
Flags: W
LayerCount: 2
Fore
SplineSet
102 0 m 0,0,1
 56 0 56 0 61 0 c 0,2,3
 67 0 67 0 20 0 c 1,4,5
 20 31 20 31 20 92 c 0,6,7
 20 154 20 154 20 225 c 1,8,9
 54 225 54 225 53 225 c 0,10,11
 51 225 51 225 82 225 c 1,12,13
 82 247 82 247 90 267 c 0,14,15
 99 286 99 286 111 304 c 0,16,17
 134 337 134 337 159 363 c 0,18,19
 184 390 184 390 184 410 c 256,20,21
 184 430 184 430 181 458 c 0,22,23
 178 487 178 487 186 508 c 0,24,25
 191 519 191 519 200 526 c 0,26,27
 209 532 209 532 225 532 c 1,28,29
 225 563 225 563 248 576 c 0,30,31
 259 582 259 582 268 582 c 0,32,33
 278 582 278 582 287 573 c 0,34,35
 308 552 308 552 331 529 c 256,36,37
 354 506 354 506 375 484 c 0,38,39
 415 444 415 444 443 411 c 0,40,41
 471 379 471 379 471 369 c 0,42,43
 471 353 471 353 471 302 c 256,44,45
 471 251 471 251 471 205 c 0,46,47
 471 195 471 195 453 173 c 0,48,49
 434 150 434 150 414 128 c 0,50,51
 399 113 399 113 387 100 c 0,52,53
 375 88 375 88 369 82 c 0,54,55
 359 73 359 73 310 55 c 0,56,57
 260 38 260 38 208 23 c 0,58,59
 173 13 173 13 144 7 c 0,60,61
 115 0 115 0 102 0 c 0,0,1
287 430 m 1,62,63
 307 410 307 410 330 389 c 0,64,65
 353 369 353 369 353 348 c 0,66,67
 353 328 353 328 361 328 c 256,68,69
 369 328 369 328 369 348 c 0,70,71
 369 367 369 367 338 399 c 0,72,73
 307 430 307 430 266 471 c 1,74,75
 266 369 266 369 260 328 c 256,76,77
 254 287 254 287 266 287 c 1,78,79
 266 287 266 287 284 277 c 0,80,81
 301 267 301 267 307 266 c 0,82,83
 323 251 323 251 325 259 c 0,84,85
 328 266 328 266 328 266 c 257,86,87
 328 266 328 266 307 276 c 0,88,89
 287 287 287 287 287 287 c 1,90,91
 301 297 301 297 314 317 c 0,92,93
 328 337 328 337 328 348 c 0,94,95
 328 358 328 358 307 384 c 0,96,97
 287 410 287 410 287 430 c 1,62,63
EndSplineSet
EndChar

StartChar: J
Encoding: 74 74 26
Width: 491
GlyphClass: 1
Flags: W
LayerCount: 2
Fore
SplineSet
102 0 m 0,0,1
 56 0 56 0 61 0 c 0,2,3
 67 0 67 0 20 0 c 1,4,5
 20 31 20 31 20 92 c 0,6,7
 20 154 20 154 20 225 c 1,8,9
 54 225 54 225 53 225 c 0,10,11
 51 225 51 225 82 225 c 1,12,13
 82 247 82 247 90 267 c 0,14,15
 99 286 99 286 111 304 c 0,16,17
 134 337 134 337 159 363 c 0,18,19
 184 390 184 390 184 410 c 256,20,21
 184 430 184 430 181 458 c 0,22,23
 178 487 178 487 186 508 c 0,24,25
 191 519 191 519 200 526 c 0,26,27
 209 532 209 532 225 532 c 1,28,29
 225 563 225 563 248 576 c 0,30,31
 259 582 259 582 268 582 c 0,32,33
 278 582 278 582 287 573 c 0,34,35
 308 552 308 552 331 529 c 256,36,37
 354 506 354 506 375 484 c 0,38,39
 415 444 415 444 443 411 c 0,40,41
 471 379 471 379 471 369 c 0,42,43
 471 353 471 353 471 302 c 256,44,45
 471 251 471 251 471 205 c 0,46,47
 471 195 471 195 453 173 c 0,48,49
 434 150 434 150 414 128 c 0,50,51
 399 113 399 113 387 100 c 0,52,53
 375 88 375 88 369 82 c 0,54,55
 359 73 359 73 310 55 c 0,56,57
 260 38 260 38 208 23 c 0,58,59
 173 13 173 13 144 7 c 0,60,61
 115 0 115 0 102 0 c 0,0,1
287 430 m 1,62,63
 307 410 307 410 330 389 c 0,64,65
 353 369 353 369 353 348 c 0,66,67
 353 328 353 328 361 328 c 256,68,69
 369 328 369 328 369 348 c 0,70,71
 369 367 369 367 338 399 c 0,72,73
 307 430 307 430 266 471 c 1,74,75
 266 369 266 369 260 328 c 256,76,77
 254 287 254 287 266 287 c 1,78,79
 266 287 266 287 284 277 c 0,80,81
 301 267 301 267 307 266 c 0,82,83
 323 251 323 251 325 259 c 0,84,85
 328 266 328 266 328 266 c 257,86,87
 328 266 328 266 307 276 c 0,88,89
 287 287 287 287 287 287 c 1,90,91
 301 297 301 297 314 317 c 0,92,93
 328 337 328 337 328 348 c 0,94,95
 328 358 328 358 307 384 c 0,96,97
 287 410 287 410 287 430 c 1,62,63
EndSplineSet
EndChar

StartChar: K
Encoding: 75 75 27
Width: 491
GlyphClass: 1
Flags: W
LayerCount: 2
Fore
SplineSet
102 0 m 0,0,1
 56 0 56 0 61 0 c 0,2,3
 67 0 67 0 20 0 c 1,4,5
 20 31 20 31 20 92 c 0,6,7
 20 154 20 154 20 225 c 1,8,9
 54 225 54 225 53 225 c 0,10,11
 51 225 51 225 82 225 c 1,12,13
 82 247 82 247 90 267 c 0,14,15
 99 286 99 286 111 304 c 0,16,17
 134 337 134 337 159 363 c 0,18,19
 184 390 184 390 184 410 c 256,20,21
 184 430 184 430 181 458 c 0,22,23
 178 487 178 487 186 508 c 0,24,25
 191 519 191 519 200 526 c 0,26,27
 209 532 209 532 225 532 c 1,28,29
 225 563 225 563 248 576 c 0,30,31
 259 582 259 582 268 582 c 0,32,33
 278 582 278 582 287 573 c 0,34,35
 308 552 308 552 331 529 c 256,36,37
 354 506 354 506 375 484 c 0,38,39
 415 444 415 444 443 411 c 0,40,41
 471 379 471 379 471 369 c 0,42,43
 471 353 471 353 471 302 c 256,44,45
 471 251 471 251 471 205 c 0,46,47
 471 195 471 195 453 173 c 0,48,49
 434 150 434 150 414 128 c 0,50,51
 399 113 399 113 387 100 c 0,52,53
 375 88 375 88 369 82 c 0,54,55
 359 73 359 73 310 55 c 0,56,57
 260 38 260 38 208 23 c 0,58,59
 173 13 173 13 144 7 c 0,60,61
 115 0 115 0 102 0 c 0,0,1
287 430 m 1,62,63
 307 410 307 410 330 389 c 0,64,65
 353 369 353 369 353 348 c 0,66,67
 353 328 353 328 361 328 c 256,68,69
 369 328 369 328 369 348 c 0,70,71
 369 367 369 367 338 399 c 0,72,73
 307 430 307 430 266 471 c 1,74,75
 266 369 266 369 260 328 c 256,76,77
 254 287 254 287 266 287 c 1,78,79
 266 287 266 287 284 277 c 0,80,81
 301 267 301 267 307 266 c 0,82,83
 323 251 323 251 325 259 c 0,84,85
 328 266 328 266 328 266 c 257,86,87
 328 266 328 266 307 276 c 0,88,89
 287 287 287 287 287 287 c 1,90,91
 301 297 301 297 314 317 c 0,92,93
 328 337 328 337 328 348 c 0,94,95
 328 358 328 358 307 384 c 0,96,97
 287 410 287 410 287 430 c 1,62,63
EndSplineSet
EndChar

StartChar: L
Encoding: 76 76 28
Width: 491
GlyphClass: 1
Flags: W
LayerCount: 2
Fore
SplineSet
102 0 m 0,0,1
 56 0 56 0 61 0 c 0,2,3
 67 0 67 0 20 0 c 1,4,5
 20 31 20 31 20 92 c 0,6,7
 20 154 20 154 20 225 c 1,8,9
 54 225 54 225 53 225 c 0,10,11
 51 225 51 225 82 225 c 1,12,13
 82 247 82 247 90 267 c 0,14,15
 99 286 99 286 111 304 c 0,16,17
 134 337 134 337 159 363 c 0,18,19
 184 390 184 390 184 410 c 256,20,21
 184 430 184 430 181 458 c 0,22,23
 178 487 178 487 186 508 c 0,24,25
 191 519 191 519 200 526 c 0,26,27
 209 532 209 532 225 532 c 1,28,29
 225 563 225 563 248 576 c 0,30,31
 259 582 259 582 268 582 c 0,32,33
 278 582 278 582 287 573 c 0,34,35
 308 552 308 552 331 529 c 256,36,37
 354 506 354 506 375 484 c 0,38,39
 415 444 415 444 443 411 c 0,40,41
 471 379 471 379 471 369 c 0,42,43
 471 353 471 353 471 302 c 256,44,45
 471 251 471 251 471 205 c 0,46,47
 471 195 471 195 453 173 c 0,48,49
 434 150 434 150 414 128 c 0,50,51
 399 113 399 113 387 100 c 0,52,53
 375 88 375 88 369 82 c 0,54,55
 359 73 359 73 310 55 c 0,56,57
 260 38 260 38 208 23 c 0,58,59
 173 13 173 13 144 7 c 0,60,61
 115 0 115 0 102 0 c 0,0,1
287 430 m 1,62,63
 307 410 307 410 330 389 c 0,64,65
 353 369 353 369 353 348 c 0,66,67
 353 328 353 328 361 328 c 256,68,69
 369 328 369 328 369 348 c 0,70,71
 369 367 369 367 338 399 c 0,72,73
 307 430 307 430 266 471 c 1,74,75
 266 369 266 369 260 328 c 256,76,77
 254 287 254 287 266 287 c 1,78,79
 266 287 266 287 284 277 c 0,80,81
 301 267 301 267 307 266 c 0,82,83
 323 251 323 251 325 259 c 0,84,85
 328 266 328 266 328 266 c 257,86,87
 328 266 328 266 307 276 c 0,88,89
 287 287 287 287 287 287 c 1,90,91
 301 297 301 297 314 317 c 0,92,93
 328 337 328 337 328 348 c 0,94,95
 328 358 328 358 307 384 c 0,96,97
 287 410 287 410 287 430 c 1,62,63
EndSplineSet
EndChar

StartChar: M
Encoding: 77 77 29
Width: 491
GlyphClass: 1
Flags: W
LayerCount: 2
Fore
SplineSet
102 0 m 0,0,1
 56 0 56 0 61 0 c 0,2,3
 67 0 67 0 20 0 c 1,4,5
 20 31 20 31 20 92 c 0,6,7
 20 154 20 154 20 225 c 1,8,9
 54 225 54 225 53 225 c 0,10,11
 51 225 51 225 82 225 c 1,12,13
 82 247 82 247 90 267 c 0,14,15
 99 286 99 286 111 304 c 0,16,17
 134 337 134 337 159 363 c 0,18,19
 184 390 184 390 184 410 c 256,20,21
 184 430 184 430 181 458 c 0,22,23
 178 487 178 487 186 508 c 0,24,25
 191 519 191 519 200 526 c 0,26,27
 209 532 209 532 225 532 c 1,28,29
 225 563 225 563 248 576 c 0,30,31
 259 582 259 582 268 582 c 0,32,33
 278 582 278 582 287 573 c 0,34,35
 308 552 308 552 331 529 c 256,36,37
 354 506 354 506 375 484 c 0,38,39
 415 444 415 444 443 411 c 0,40,41
 471 379 471 379 471 369 c 0,42,43
 471 353 471 353 471 302 c 256,44,45
 471 251 471 251 471 205 c 0,46,47
 471 195 471 195 453 173 c 0,48,49
 434 150 434 150 414 128 c 0,50,51
 399 113 399 113 387 100 c 0,52,53
 375 88 375 88 369 82 c 0,54,55
 359 73 359 73 310 55 c 0,56,57
 260 38 260 38 208 23 c 0,58,59
 173 13 173 13 144 7 c 0,60,61
 115 0 115 0 102 0 c 0,0,1
287 430 m 1,62,63
 307 410 307 410 330 389 c 0,64,65
 353 369 353 369 353 348 c 0,66,67
 353 328 353 328 361 328 c 256,68,69
 369 328 369 328 369 348 c 0,70,71
 369 367 369 367 338 399 c 0,72,73
 307 430 307 430 266 471 c 1,74,75
 266 369 266 369 260 328 c 256,76,77
 254 287 254 287 266 287 c 1,78,79
 266 287 266 287 284 277 c 0,80,81
 301 267 301 267 307 266 c 0,82,83
 323 251 323 251 325 259 c 0,84,85
 328 266 328 266 328 266 c 257,86,87
 328 266 328 266 307 276 c 0,88,89
 287 287 287 287 287 287 c 1,90,91
 301 297 301 297 314 317 c 0,92,93
 328 337 328 337 328 348 c 0,94,95
 328 358 328 358 307 384 c 0,96,97
 287 410 287 410 287 430 c 1,62,63
EndSplineSet
EndChar

StartChar: N
Encoding: 78 78 30
Width: 491
GlyphClass: 1
Flags: W
LayerCount: 2
Fore
SplineSet
102 0 m 0,0,1
 56 0 56 0 61 0 c 0,2,3
 67 0 67 0 20 0 c 1,4,5
 20 31 20 31 20 92 c 0,6,7
 20 154 20 154 20 225 c 1,8,9
 54 225 54 225 53 225 c 0,10,11
 51 225 51 225 82 225 c 1,12,13
 82 247 82 247 90 267 c 0,14,15
 99 286 99 286 111 304 c 0,16,17
 134 337 134 337 159 363 c 0,18,19
 184 390 184 390 184 410 c 256,20,21
 184 430 184 430 181 458 c 0,22,23
 178 487 178 487 186 508 c 0,24,25
 191 519 191 519 200 526 c 0,26,27
 209 532 209 532 225 532 c 1,28,29
 225 563 225 563 248 576 c 0,30,31
 259 582 259 582 268 582 c 0,32,33
 278 582 278 582 287 573 c 0,34,35
 308 552 308 552 331 529 c 256,36,37
 354 506 354 506 375 484 c 0,38,39
 415 444 415 444 443 411 c 0,40,41
 471 379 471 379 471 369 c 0,42,43
 471 353 471 353 471 302 c 256,44,45
 471 251 471 251 471 205 c 0,46,47
 471 195 471 195 453 173 c 0,48,49
 434 150 434 150 414 128 c 0,50,51
 399 113 399 113 387 100 c 0,52,53
 375 88 375 88 369 82 c 0,54,55
 359 73 359 73 310 55 c 0,56,57
 260 38 260 38 208 23 c 0,58,59
 173 13 173 13 144 7 c 0,60,61
 115 0 115 0 102 0 c 0,0,1
287 430 m 1,62,63
 307 410 307 410 330 389 c 0,64,65
 353 369 353 369 353 348 c 0,66,67
 353 328 353 328 361 328 c 256,68,69
 369 328 369 328 369 348 c 0,70,71
 369 367 369 367 338 399 c 0,72,73
 307 430 307 430 266 471 c 1,74,75
 266 369 266 369 260 328 c 256,76,77
 254 287 254 287 266 287 c 1,78,79
 266 287 266 287 284 277 c 0,80,81
 301 267 301 267 307 266 c 0,82,83
 323 251 323 251 325 259 c 0,84,85
 328 266 328 266 328 266 c 257,86,87
 328 266 328 266 307 276 c 0,88,89
 287 287 287 287 287 287 c 1,90,91
 301 297 301 297 314 317 c 0,92,93
 328 337 328 337 328 348 c 0,94,95
 328 358 328 358 307 384 c 0,96,97
 287 410 287 410 287 430 c 1,62,63
EndSplineSet
EndChar

StartChar: O
Encoding: 79 79 31
Width: 491
GlyphClass: 1
Flags: W
LayerCount: 2
Fore
SplineSet
102 0 m 0,0,1
 56 0 56 0 61 0 c 0,2,3
 67 0 67 0 20 0 c 1,4,5
 20 31 20 31 20 92 c 0,6,7
 20 154 20 154 20 225 c 1,8,9
 54 225 54 225 53 225 c 0,10,11
 51 225 51 225 82 225 c 1,12,13
 82 247 82 247 90 267 c 0,14,15
 99 286 99 286 111 304 c 0,16,17
 134 337 134 337 159 363 c 0,18,19
 184 390 184 390 184 410 c 256,20,21
 184 430 184 430 181 458 c 0,22,23
 178 487 178 487 186 508 c 0,24,25
 191 519 191 519 200 526 c 0,26,27
 209 532 209 532 225 532 c 1,28,29
 225 563 225 563 248 576 c 0,30,31
 259 582 259 582 268 582 c 0,32,33
 278 582 278 582 287 573 c 0,34,35
 308 552 308 552 331 529 c 256,36,37
 354 506 354 506 375 484 c 0,38,39
 415 444 415 444 443 411 c 0,40,41
 471 379 471 379 471 369 c 0,42,43
 471 353 471 353 471 302 c 256,44,45
 471 251 471 251 471 205 c 0,46,47
 471 195 471 195 453 173 c 0,48,49
 434 150 434 150 414 128 c 0,50,51
 399 113 399 113 387 100 c 0,52,53
 375 88 375 88 369 82 c 0,54,55
 359 73 359 73 310 55 c 0,56,57
 260 38 260 38 208 23 c 0,58,59
 173 13 173 13 144 7 c 0,60,61
 115 0 115 0 102 0 c 0,0,1
287 430 m 1,62,63
 307 410 307 410 330 389 c 0,64,65
 353 369 353 369 353 348 c 0,66,67
 353 328 353 328 361 328 c 256,68,69
 369 328 369 328 369 348 c 0,70,71
 369 367 369 367 338 399 c 0,72,73
 307 430 307 430 266 471 c 1,74,75
 266 369 266 369 260 328 c 256,76,77
 254 287 254 287 266 287 c 1,78,79
 266 287 266 287 284 277 c 0,80,81
 301 267 301 267 307 266 c 0,82,83
 323 251 323 251 325 259 c 0,84,85
 328 266 328 266 328 266 c 257,86,87
 328 266 328 266 307 276 c 0,88,89
 287 287 287 287 287 287 c 1,90,91
 301 297 301 297 314 317 c 0,92,93
 328 337 328 337 328 348 c 0,94,95
 328 358 328 358 307 384 c 0,96,97
 287 410 287 410 287 430 c 1,62,63
EndSplineSet
EndChar

StartChar: P
Encoding: 80 80 32
Width: 491
GlyphClass: 1
Flags: W
LayerCount: 2
Fore
SplineSet
102 0 m 0,0,1
 56 0 56 0 61 0 c 0,2,3
 67 0 67 0 20 0 c 1,4,5
 20 31 20 31 20 92 c 0,6,7
 20 154 20 154 20 225 c 1,8,9
 54 225 54 225 53 225 c 0,10,11
 51 225 51 225 82 225 c 1,12,13
 82 247 82 247 90 267 c 0,14,15
 99 286 99 286 111 304 c 0,16,17
 134 337 134 337 159 363 c 0,18,19
 184 390 184 390 184 410 c 256,20,21
 184 430 184 430 181 458 c 0,22,23
 178 487 178 487 186 508 c 0,24,25
 191 519 191 519 200 526 c 0,26,27
 209 532 209 532 225 532 c 1,28,29
 225 563 225 563 248 576 c 0,30,31
 259 582 259 582 268 582 c 0,32,33
 278 582 278 582 287 573 c 0,34,35
 308 552 308 552 331 529 c 256,36,37
 354 506 354 506 375 484 c 0,38,39
 415 444 415 444 443 411 c 0,40,41
 471 379 471 379 471 369 c 0,42,43
 471 353 471 353 471 302 c 256,44,45
 471 251 471 251 471 205 c 0,46,47
 471 195 471 195 453 173 c 0,48,49
 434 150 434 150 414 128 c 0,50,51
 399 113 399 113 387 100 c 0,52,53
 375 88 375 88 369 82 c 0,54,55
 359 73 359 73 310 55 c 0,56,57
 260 38 260 38 208 23 c 0,58,59
 173 13 173 13 144 7 c 0,60,61
 115 0 115 0 102 0 c 0,0,1
287 430 m 1,62,63
 307 410 307 410 330 389 c 0,64,65
 353 369 353 369 353 348 c 0,66,67
 353 328 353 328 361 328 c 256,68,69
 369 328 369 328 369 348 c 0,70,71
 369 367 369 367 338 399 c 0,72,73
 307 430 307 430 266 471 c 1,74,75
 266 369 266 369 260 328 c 256,76,77
 254 287 254 287 266 287 c 1,78,79
 266 287 266 287 284 277 c 0,80,81
 301 267 301 267 307 266 c 0,82,83
 323 251 323 251 325 259 c 0,84,85
 328 266 328 266 328 266 c 257,86,87
 328 266 328 266 307 276 c 0,88,89
 287 287 287 287 287 287 c 1,90,91
 301 297 301 297 314 317 c 0,92,93
 328 337 328 337 328 348 c 0,94,95
 328 358 328 358 307 384 c 0,96,97
 287 410 287 410 287 430 c 1,62,63
EndSplineSet
EndChar

StartChar: Q
Encoding: 81 81 33
Width: 491
GlyphClass: 1
Flags: W
LayerCount: 2
Fore
SplineSet
102 0 m 0,0,1
 56 0 56 0 61 0 c 0,2,3
 67 0 67 0 20 0 c 1,4,5
 20 31 20 31 20 92 c 0,6,7
 20 154 20 154 20 225 c 1,8,9
 54 225 54 225 53 225 c 0,10,11
 51 225 51 225 82 225 c 1,12,13
 82 247 82 247 90 267 c 0,14,15
 99 286 99 286 111 304 c 0,16,17
 134 337 134 337 159 363 c 0,18,19
 184 390 184 390 184 410 c 256,20,21
 184 430 184 430 181 458 c 0,22,23
 178 487 178 487 186 508 c 0,24,25
 191 519 191 519 200 526 c 0,26,27
 209 532 209 532 225 532 c 1,28,29
 225 563 225 563 248 576 c 0,30,31
 259 582 259 582 268 582 c 0,32,33
 278 582 278 582 287 573 c 0,34,35
 308 552 308 552 331 529 c 256,36,37
 354 506 354 506 375 484 c 0,38,39
 415 444 415 444 443 411 c 0,40,41
 471 379 471 379 471 369 c 0,42,43
 471 353 471 353 471 302 c 256,44,45
 471 251 471 251 471 205 c 0,46,47
 471 195 471 195 453 173 c 0,48,49
 434 150 434 150 414 128 c 0,50,51
 399 113 399 113 387 100 c 0,52,53
 375 88 375 88 369 82 c 0,54,55
 359 73 359 73 310 55 c 0,56,57
 260 38 260 38 208 23 c 0,58,59
 173 13 173 13 144 7 c 0,60,61
 115 0 115 0 102 0 c 0,0,1
287 430 m 1,62,63
 307 410 307 410 330 389 c 0,64,65
 353 369 353 369 353 348 c 0,66,67
 353 328 353 328 361 328 c 256,68,69
 369 328 369 328 369 348 c 0,70,71
 369 367 369 367 338 399 c 0,72,73
 307 430 307 430 266 471 c 1,74,75
 266 369 266 369 260 328 c 256,76,77
 254 287 254 287 266 287 c 1,78,79
 266 287 266 287 284 277 c 0,80,81
 301 267 301 267 307 266 c 0,82,83
 323 251 323 251 325 259 c 0,84,85
 328 266 328 266 328 266 c 257,86,87
 328 266 328 266 307 276 c 0,88,89
 287 287 287 287 287 287 c 1,90,91
 301 297 301 297 314 317 c 0,92,93
 328 337 328 337 328 348 c 0,94,95
 328 358 328 358 307 384 c 0,96,97
 287 410 287 410 287 430 c 1,62,63
EndSplineSet
EndChar

StartChar: R
Encoding: 82 82 34
Width: 491
GlyphClass: 1
Flags: W
LayerCount: 2
Fore
SplineSet
102 0 m 0,0,1
 56 0 56 0 61 0 c 0,2,3
 67 0 67 0 20 0 c 1,4,5
 20 31 20 31 20 92 c 0,6,7
 20 154 20 154 20 225 c 1,8,9
 54 225 54 225 53 225 c 0,10,11
 51 225 51 225 82 225 c 1,12,13
 82 247 82 247 90 267 c 0,14,15
 99 286 99 286 111 304 c 0,16,17
 134 337 134 337 159 363 c 0,18,19
 184 390 184 390 184 410 c 256,20,21
 184 430 184 430 181 458 c 0,22,23
 178 487 178 487 186 508 c 0,24,25
 191 519 191 519 200 526 c 0,26,27
 209 532 209 532 225 532 c 1,28,29
 225 563 225 563 248 576 c 0,30,31
 259 582 259 582 268 582 c 0,32,33
 278 582 278 582 287 573 c 0,34,35
 308 552 308 552 331 529 c 256,36,37
 354 506 354 506 375 484 c 0,38,39
 415 444 415 444 443 411 c 0,40,41
 471 379 471 379 471 369 c 0,42,43
 471 353 471 353 471 302 c 256,44,45
 471 251 471 251 471 205 c 0,46,47
 471 195 471 195 453 173 c 0,48,49
 434 150 434 150 414 128 c 0,50,51
 399 113 399 113 387 100 c 0,52,53
 375 88 375 88 369 82 c 0,54,55
 359 73 359 73 310 55 c 0,56,57
 260 38 260 38 208 23 c 0,58,59
 173 13 173 13 144 7 c 0,60,61
 115 0 115 0 102 0 c 0,0,1
287 430 m 1,62,63
 307 410 307 410 330 389 c 0,64,65
 353 369 353 369 353 348 c 0,66,67
 353 328 353 328 361 328 c 256,68,69
 369 328 369 328 369 348 c 0,70,71
 369 367 369 367 338 399 c 0,72,73
 307 430 307 430 266 471 c 1,74,75
 266 369 266 369 260 328 c 256,76,77
 254 287 254 287 266 287 c 1,78,79
 266 287 266 287 284 277 c 0,80,81
 301 267 301 267 307 266 c 0,82,83
 323 251 323 251 325 259 c 0,84,85
 328 266 328 266 328 266 c 257,86,87
 328 266 328 266 307 276 c 0,88,89
 287 287 287 287 287 287 c 1,90,91
 301 297 301 297 314 317 c 0,92,93
 328 337 328 337 328 348 c 0,94,95
 328 358 328 358 307 384 c 0,96,97
 287 410 287 410 287 430 c 1,62,63
EndSplineSet
EndChar

StartChar: S
Encoding: 83 83 35
Width: 491
GlyphClass: 1
Flags: W
LayerCount: 2
Fore
SplineSet
102 0 m 0,0,1
 56 0 56 0 61 0 c 0,2,3
 67 0 67 0 20 0 c 1,4,5
 20 31 20 31 20 92 c 0,6,7
 20 154 20 154 20 225 c 1,8,9
 54 225 54 225 53 225 c 0,10,11
 51 225 51 225 82 225 c 1,12,13
 82 247 82 247 90 267 c 0,14,15
 99 286 99 286 111 304 c 0,16,17
 134 337 134 337 159 363 c 0,18,19
 184 390 184 390 184 410 c 256,20,21
 184 430 184 430 181 458 c 0,22,23
 178 487 178 487 186 508 c 0,24,25
 191 519 191 519 200 526 c 0,26,27
 209 532 209 532 225 532 c 1,28,29
 225 563 225 563 248 576 c 0,30,31
 259 582 259 582 268 582 c 0,32,33
 278 582 278 582 287 573 c 0,34,35
 308 552 308 552 331 529 c 256,36,37
 354 506 354 506 375 484 c 0,38,39
 415 444 415 444 443 411 c 0,40,41
 471 379 471 379 471 369 c 0,42,43
 471 353 471 353 471 302 c 256,44,45
 471 251 471 251 471 205 c 0,46,47
 471 195 471 195 453 173 c 0,48,49
 434 150 434 150 414 128 c 0,50,51
 399 113 399 113 387 100 c 0,52,53
 375 88 375 88 369 82 c 0,54,55
 359 73 359 73 310 55 c 0,56,57
 260 38 260 38 208 23 c 0,58,59
 173 13 173 13 144 7 c 0,60,61
 115 0 115 0 102 0 c 0,0,1
287 430 m 1,62,63
 307 410 307 410 330 389 c 0,64,65
 353 369 353 369 353 348 c 0,66,67
 353 328 353 328 361 328 c 256,68,69
 369 328 369 328 369 348 c 0,70,71
 369 367 369 367 338 399 c 0,72,73
 307 430 307 430 266 471 c 1,74,75
 266 369 266 369 260 328 c 256,76,77
 254 287 254 287 266 287 c 1,78,79
 266 287 266 287 284 277 c 0,80,81
 301 267 301 267 307 266 c 0,82,83
 323 251 323 251 325 259 c 0,84,85
 328 266 328 266 328 266 c 257,86,87
 328 266 328 266 307 276 c 0,88,89
 287 287 287 287 287 287 c 1,90,91
 301 297 301 297 314 317 c 0,92,93
 328 337 328 337 328 348 c 0,94,95
 328 358 328 358 307 384 c 0,96,97
 287 410 287 410 287 430 c 1,62,63
EndSplineSet
EndChar

StartChar: T
Encoding: 84 84 36
Width: 491
GlyphClass: 1
Flags: W
LayerCount: 2
Fore
SplineSet
102 0 m 0,0,1
 56 0 56 0 61 0 c 0,2,3
 67 0 67 0 20 0 c 1,4,5
 20 31 20 31 20 92 c 0,6,7
 20 154 20 154 20 225 c 1,8,9
 54 225 54 225 53 225 c 0,10,11
 51 225 51 225 82 225 c 1,12,13
 82 247 82 247 90 267 c 0,14,15
 99 286 99 286 111 304 c 0,16,17
 134 337 134 337 159 363 c 0,18,19
 184 390 184 390 184 410 c 256,20,21
 184 430 184 430 181 458 c 0,22,23
 178 487 178 487 186 508 c 0,24,25
 191 519 191 519 200 526 c 0,26,27
 209 532 209 532 225 532 c 1,28,29
 225 563 225 563 248 576 c 0,30,31
 259 582 259 582 268 582 c 0,32,33
 278 582 278 582 287 573 c 0,34,35
 308 552 308 552 331 529 c 256,36,37
 354 506 354 506 375 484 c 0,38,39
 415 444 415 444 443 411 c 0,40,41
 471 379 471 379 471 369 c 0,42,43
 471 353 471 353 471 302 c 256,44,45
 471 251 471 251 471 205 c 0,46,47
 471 195 471 195 453 173 c 0,48,49
 434 150 434 150 414 128 c 0,50,51
 399 113 399 113 387 100 c 0,52,53
 375 88 375 88 369 82 c 0,54,55
 359 73 359 73 310 55 c 0,56,57
 260 38 260 38 208 23 c 0,58,59
 173 13 173 13 144 7 c 0,60,61
 115 0 115 0 102 0 c 0,0,1
287 430 m 1,62,63
 307 410 307 410 330 389 c 0,64,65
 353 369 353 369 353 348 c 0,66,67
 353 328 353 328 361 328 c 256,68,69
 369 328 369 328 369 348 c 0,70,71
 369 367 369 367 338 399 c 0,72,73
 307 430 307 430 266 471 c 1,74,75
 266 369 266 369 260 328 c 256,76,77
 254 287 254 287 266 287 c 1,78,79
 266 287 266 287 284 277 c 0,80,81
 301 267 301 267 307 266 c 0,82,83
 323 251 323 251 325 259 c 0,84,85
 328 266 328 266 328 266 c 257,86,87
 328 266 328 266 307 276 c 0,88,89
 287 287 287 287 287 287 c 1,90,91
 301 297 301 297 314 317 c 0,92,93
 328 337 328 337 328 348 c 0,94,95
 328 358 328 358 307 384 c 0,96,97
 287 410 287 410 287 430 c 1,62,63
EndSplineSet
EndChar

StartChar: U
Encoding: 85 85 37
Width: 491
GlyphClass: 1
Flags: W
LayerCount: 2
Fore
SplineSet
102 0 m 0,0,1
 56 0 56 0 61 0 c 0,2,3
 67 0 67 0 20 0 c 1,4,5
 20 31 20 31 20 92 c 0,6,7
 20 154 20 154 20 225 c 1,8,9
 54 225 54 225 53 225 c 0,10,11
 51 225 51 225 82 225 c 1,12,13
 82 247 82 247 90 267 c 0,14,15
 99 286 99 286 111 304 c 0,16,17
 134 337 134 337 159 363 c 0,18,19
 184 390 184 390 184 410 c 256,20,21
 184 430 184 430 181 458 c 0,22,23
 178 487 178 487 186 508 c 0,24,25
 191 519 191 519 200 526 c 0,26,27
 209 532 209 532 225 532 c 1,28,29
 225 563 225 563 248 576 c 0,30,31
 259 582 259 582 268 582 c 0,32,33
 278 582 278 582 287 573 c 0,34,35
 308 552 308 552 331 529 c 256,36,37
 354 506 354 506 375 484 c 0,38,39
 415 444 415 444 443 411 c 0,40,41
 471 379 471 379 471 369 c 0,42,43
 471 353 471 353 471 302 c 256,44,45
 471 251 471 251 471 205 c 0,46,47
 471 195 471 195 453 173 c 0,48,49
 434 150 434 150 414 128 c 0,50,51
 399 113 399 113 387 100 c 0,52,53
 375 88 375 88 369 82 c 0,54,55
 359 73 359 73 310 55 c 0,56,57
 260 38 260 38 208 23 c 0,58,59
 173 13 173 13 144 7 c 0,60,61
 115 0 115 0 102 0 c 0,0,1
287 430 m 1,62,63
 307 410 307 410 330 389 c 0,64,65
 353 369 353 369 353 348 c 0,66,67
 353 328 353 328 361 328 c 256,68,69
 369 328 369 328 369 348 c 0,70,71
 369 367 369 367 338 399 c 0,72,73
 307 430 307 430 266 471 c 1,74,75
 266 369 266 369 260 328 c 256,76,77
 254 287 254 287 266 287 c 1,78,79
 266 287 266 287 284 277 c 0,80,81
 301 267 301 267 307 266 c 0,82,83
 323 251 323 251 325 259 c 0,84,85
 328 266 328 266 328 266 c 257,86,87
 328 266 328 266 307 276 c 0,88,89
 287 287 287 287 287 287 c 1,90,91
 301 297 301 297 314 317 c 0,92,93
 328 337 328 337 328 348 c 0,94,95
 328 358 328 358 307 384 c 0,96,97
 287 410 287 410 287 430 c 1,62,63
EndSplineSet
EndChar

StartChar: V
Encoding: 86 86 38
Width: 491
GlyphClass: 1
Flags: W
LayerCount: 2
Fore
SplineSet
102 0 m 0,0,1
 56 0 56 0 61 0 c 0,2,3
 67 0 67 0 20 0 c 1,4,5
 20 31 20 31 20 92 c 0,6,7
 20 154 20 154 20 225 c 1,8,9
 54 225 54 225 53 225 c 0,10,11
 51 225 51 225 82 225 c 1,12,13
 82 247 82 247 90 267 c 0,14,15
 99 286 99 286 111 304 c 0,16,17
 134 337 134 337 159 363 c 0,18,19
 184 390 184 390 184 410 c 256,20,21
 184 430 184 430 181 458 c 0,22,23
 178 487 178 487 186 508 c 0,24,25
 191 519 191 519 200 526 c 0,26,27
 209 532 209 532 225 532 c 1,28,29
 225 563 225 563 248 576 c 0,30,31
 259 582 259 582 268 582 c 0,32,33
 278 582 278 582 287 573 c 0,34,35
 308 552 308 552 331 529 c 256,36,37
 354 506 354 506 375 484 c 0,38,39
 415 444 415 444 443 411 c 0,40,41
 471 379 471 379 471 369 c 0,42,43
 471 353 471 353 471 302 c 256,44,45
 471 251 471 251 471 205 c 0,46,47
 471 195 471 195 453 173 c 0,48,49
 434 150 434 150 414 128 c 0,50,51
 399 113 399 113 387 100 c 0,52,53
 375 88 375 88 369 82 c 0,54,55
 359 73 359 73 310 55 c 0,56,57
 260 38 260 38 208 23 c 0,58,59
 173 13 173 13 144 7 c 0,60,61
 115 0 115 0 102 0 c 0,0,1
287 430 m 1,62,63
 307 410 307 410 330 389 c 0,64,65
 353 369 353 369 353 348 c 0,66,67
 353 328 353 328 361 328 c 256,68,69
 369 328 369 328 369 348 c 0,70,71
 369 367 369 367 338 399 c 0,72,73
 307 430 307 430 266 471 c 1,74,75
 266 369 266 369 260 328 c 256,76,77
 254 287 254 287 266 287 c 1,78,79
 266 287 266 287 284 277 c 0,80,81
 301 267 301 267 307 266 c 0,82,83
 323 251 323 251 325 259 c 0,84,85
 328 266 328 266 328 266 c 257,86,87
 328 266 328 266 307 276 c 0,88,89
 287 287 287 287 287 287 c 1,90,91
 301 297 301 297 314 317 c 0,92,93
 328 337 328 337 328 348 c 0,94,95
 328 358 328 358 307 384 c 0,96,97
 287 410 287 410 287 430 c 1,62,63
EndSplineSet
EndChar

StartChar: W
Encoding: 87 87 39
Width: 491
GlyphClass: 1
Flags: W
LayerCount: 2
Fore
SplineSet
102 0 m 0,0,1
 56 0 56 0 61 0 c 0,2,3
 67 0 67 0 20 0 c 1,4,5
 20 31 20 31 20 92 c 0,6,7
 20 154 20 154 20 225 c 1,8,9
 54 225 54 225 53 225 c 0,10,11
 51 225 51 225 82 225 c 1,12,13
 82 247 82 247 90 267 c 0,14,15
 99 286 99 286 111 304 c 0,16,17
 134 337 134 337 159 363 c 0,18,19
 184 390 184 390 184 410 c 256,20,21
 184 430 184 430 181 458 c 0,22,23
 178 487 178 487 186 508 c 0,24,25
 191 519 191 519 200 526 c 0,26,27
 209 532 209 532 225 532 c 1,28,29
 225 563 225 563 248 576 c 0,30,31
 259 582 259 582 268 582 c 0,32,33
 278 582 278 582 287 573 c 0,34,35
 308 552 308 552 331 529 c 256,36,37
 354 506 354 506 375 484 c 0,38,39
 415 444 415 444 443 411 c 0,40,41
 471 379 471 379 471 369 c 0,42,43
 471 353 471 353 471 302 c 256,44,45
 471 251 471 251 471 205 c 0,46,47
 471 195 471 195 453 173 c 0,48,49
 434 150 434 150 414 128 c 0,50,51
 399 113 399 113 387 100 c 0,52,53
 375 88 375 88 369 82 c 0,54,55
 359 73 359 73 310 55 c 0,56,57
 260 38 260 38 208 23 c 0,58,59
 173 13 173 13 144 7 c 0,60,61
 115 0 115 0 102 0 c 0,0,1
287 430 m 1,62,63
 307 410 307 410 330 389 c 0,64,65
 353 369 353 369 353 348 c 0,66,67
 353 328 353 328 361 328 c 256,68,69
 369 328 369 328 369 348 c 0,70,71
 369 367 369 367 338 399 c 0,72,73
 307 430 307 430 266 471 c 1,74,75
 266 369 266 369 260 328 c 256,76,77
 254 287 254 287 266 287 c 1,78,79
 266 287 266 287 284 277 c 0,80,81
 301 267 301 267 307 266 c 0,82,83
 323 251 323 251 325 259 c 0,84,85
 328 266 328 266 328 266 c 257,86,87
 328 266 328 266 307 276 c 0,88,89
 287 287 287 287 287 287 c 1,90,91
 301 297 301 297 314 317 c 0,92,93
 328 337 328 337 328 348 c 0,94,95
 328 358 328 358 307 384 c 0,96,97
 287 410 287 410 287 430 c 1,62,63
EndSplineSet
EndChar

StartChar: X
Encoding: 88 88 40
Width: 491
GlyphClass: 1
Flags: W
LayerCount: 2
Fore
SplineSet
102 0 m 0,0,1
 56 0 56 0 61 0 c 0,2,3
 67 0 67 0 20 0 c 1,4,5
 20 31 20 31 20 92 c 0,6,7
 20 154 20 154 20 225 c 1,8,9
 54 225 54 225 53 225 c 0,10,11
 51 225 51 225 82 225 c 1,12,13
 82 247 82 247 90 267 c 0,14,15
 99 286 99 286 111 304 c 0,16,17
 134 337 134 337 159 363 c 0,18,19
 184 390 184 390 184 410 c 256,20,21
 184 430 184 430 181 458 c 0,22,23
 178 487 178 487 186 508 c 0,24,25
 191 519 191 519 200 526 c 0,26,27
 209 532 209 532 225 532 c 1,28,29
 225 563 225 563 248 576 c 0,30,31
 259 582 259 582 268 582 c 0,32,33
 278 582 278 582 287 573 c 0,34,35
 308 552 308 552 331 529 c 256,36,37
 354 506 354 506 375 484 c 0,38,39
 415 444 415 444 443 411 c 0,40,41
 471 379 471 379 471 369 c 0,42,43
 471 353 471 353 471 302 c 256,44,45
 471 251 471 251 471 205 c 0,46,47
 471 195 471 195 453 173 c 0,48,49
 434 150 434 150 414 128 c 0,50,51
 399 113 399 113 387 100 c 0,52,53
 375 88 375 88 369 82 c 0,54,55
 359 73 359 73 310 55 c 0,56,57
 260 38 260 38 208 23 c 0,58,59
 173 13 173 13 144 7 c 0,60,61
 115 0 115 0 102 0 c 0,0,1
287 430 m 1,62,63
 307 410 307 410 330 389 c 0,64,65
 353 369 353 369 353 348 c 0,66,67
 353 328 353 328 361 328 c 256,68,69
 369 328 369 328 369 348 c 0,70,71
 369 367 369 367 338 399 c 0,72,73
 307 430 307 430 266 471 c 1,74,75
 266 369 266 369 260 328 c 256,76,77
 254 287 254 287 266 287 c 1,78,79
 266 287 266 287 284 277 c 0,80,81
 301 267 301 267 307 266 c 0,82,83
 323 251 323 251 325 259 c 0,84,85
 328 266 328 266 328 266 c 257,86,87
 328 266 328 266 307 276 c 0,88,89
 287 287 287 287 287 287 c 1,90,91
 301 297 301 297 314 317 c 0,92,93
 328 337 328 337 328 348 c 0,94,95
 328 358 328 358 307 384 c 0,96,97
 287 410 287 410 287 430 c 1,62,63
EndSplineSet
EndChar

StartChar: Y
Encoding: 89 89 41
Width: 491
GlyphClass: 1
Flags: W
LayerCount: 2
Fore
SplineSet
102 0 m 0,0,1
 56 0 56 0 61 0 c 0,2,3
 67 0 67 0 20 0 c 1,4,5
 20 31 20 31 20 92 c 0,6,7
 20 154 20 154 20 225 c 1,8,9
 54 225 54 225 53 225 c 0,10,11
 51 225 51 225 82 225 c 1,12,13
 82 247 82 247 90 267 c 0,14,15
 99 286 99 286 111 304 c 0,16,17
 134 337 134 337 159 363 c 0,18,19
 184 390 184 390 184 410 c 256,20,21
 184 430 184 430 181 458 c 0,22,23
 178 487 178 487 186 508 c 0,24,25
 191 519 191 519 200 526 c 0,26,27
 209 532 209 532 225 532 c 1,28,29
 225 563 225 563 248 576 c 0,30,31
 259 582 259 582 268 582 c 0,32,33
 278 582 278 582 287 573 c 0,34,35
 308 552 308 552 331 529 c 256,36,37
 354 506 354 506 375 484 c 0,38,39
 415 444 415 444 443 411 c 0,40,41
 471 379 471 379 471 369 c 0,42,43
 471 353 471 353 471 302 c 256,44,45
 471 251 471 251 471 205 c 0,46,47
 471 195 471 195 453 173 c 0,48,49
 434 150 434 150 414 128 c 0,50,51
 399 113 399 113 387 100 c 0,52,53
 375 88 375 88 369 82 c 0,54,55
 359 73 359 73 310 55 c 0,56,57
 260 38 260 38 208 23 c 0,58,59
 173 13 173 13 144 7 c 0,60,61
 115 0 115 0 102 0 c 0,0,1
287 430 m 1,62,63
 307 410 307 410 330 389 c 0,64,65
 353 369 353 369 353 348 c 0,66,67
 353 328 353 328 361 328 c 256,68,69
 369 328 369 328 369 348 c 0,70,71
 369 367 369 367 338 399 c 0,72,73
 307 430 307 430 266 471 c 1,74,75
 266 369 266 369 260 328 c 256,76,77
 254 287 254 287 266 287 c 1,78,79
 266 287 266 287 284 277 c 0,80,81
 301 267 301 267 307 266 c 0,82,83
 323 251 323 251 325 259 c 0,84,85
 328 266 328 266 328 266 c 257,86,87
 328 266 328 266 307 276 c 0,88,89
 287 287 287 287 287 287 c 1,90,91
 301 297 301 297 314 317 c 0,92,93
 328 337 328 337 328 348 c 0,94,95
 328 358 328 358 307 384 c 0,96,97
 287 410 287 410 287 430 c 1,62,63
EndSplineSet
EndChar

StartChar: Z
Encoding: 90 90 42
Width: 491
GlyphClass: 1
Flags: W
LayerCount: 2
Fore
SplineSet
102 0 m 0,0,1
 56 0 56 0 61 0 c 0,2,3
 67 0 67 0 20 0 c 1,4,5
 20 31 20 31 20 92 c 0,6,7
 20 154 20 154 20 225 c 1,8,9
 54 225 54 225 53 225 c 0,10,11
 51 225 51 225 82 225 c 1,12,13
 82 247 82 247 90 267 c 0,14,15
 99 286 99 286 111 304 c 0,16,17
 134 337 134 337 159 363 c 0,18,19
 184 390 184 390 184 410 c 256,20,21
 184 430 184 430 181 458 c 0,22,23
 178 487 178 487 186 508 c 0,24,25
 191 519 191 519 200 526 c 0,26,27
 209 532 209 532 225 532 c 1,28,29
 225 563 225 563 248 576 c 0,30,31
 259 582 259 582 268 582 c 0,32,33
 278 582 278 582 287 573 c 0,34,35
 308 552 308 552 331 529 c 256,36,37
 354 506 354 506 375 484 c 0,38,39
 415 444 415 444 443 411 c 0,40,41
 471 379 471 379 471 369 c 0,42,43
 471 353 471 353 471 302 c 256,44,45
 471 251 471 251 471 205 c 0,46,47
 471 195 471 195 453 173 c 0,48,49
 434 150 434 150 414 128 c 0,50,51
 399 113 399 113 387 100 c 0,52,53
 375 88 375 88 369 82 c 0,54,55
 359 73 359 73 310 55 c 0,56,57
 260 38 260 38 208 23 c 0,58,59
 173 13 173 13 144 7 c 0,60,61
 115 0 115 0 102 0 c 0,0,1
287 430 m 1,62,63
 307 410 307 410 330 389 c 0,64,65
 353 369 353 369 353 348 c 0,66,67
 353 328 353 328 361 328 c 256,68,69
 369 328 369 328 369 348 c 0,70,71
 369 367 369 367 338 399 c 0,72,73
 307 430 307 430 266 471 c 1,74,75
 266 369 266 369 260 328 c 256,76,77
 254 287 254 287 266 287 c 1,78,79
 266 287 266 287 284 277 c 0,80,81
 301 267 301 267 307 266 c 0,82,83
 323 251 323 251 325 259 c 0,84,85
 328 266 328 266 328 266 c 257,86,87
 328 266 328 266 307 276 c 0,88,89
 287 287 287 287 287 287 c 1,90,91
 301 297 301 297 314 317 c 0,92,93
 328 337 328 337 328 348 c 0,94,95
 328 358 328 358 307 384 c 0,96,97
 287 410 287 410 287 430 c 1,62,63
EndSplineSet
EndChar

StartChar: backslash
Encoding: 92 92 43
Width: 574
GlyphClass: 1
Flags: W
LayerCount: 2
Fore
SplineSet
20 676 m 1,0,1
 41 676 41 676 82 676 c 1,2,3
 239 451 239 451 553 0 c 1,4,5
 532 0 532 0 492 0 c 1,6,7
 335 225 335 225 20 676 c 1,0,1
EndSplineSet
EndChar

StartChar: a
Encoding: 97 97 44
Width: 491
GlyphClass: 1
Flags: W
LayerCount: 2
Fore
SplineSet
102 0 m 0,0,1
 56 0 56 0 61 0 c 0,2,3
 67 0 67 0 20 0 c 1,4,5
 20 31 20 31 20 92 c 0,6,7
 20 154 20 154 20 225 c 1,8,9
 54 225 54 225 53 225 c 0,10,11
 51 225 51 225 82 225 c 1,12,13
 82 247 82 247 90 267 c 0,14,15
 99 286 99 286 111 304 c 0,16,17
 134 337 134 337 159 363 c 0,18,19
 184 390 184 390 184 410 c 256,20,21
 184 430 184 430 181 458 c 0,22,23
 178 487 178 487 186 508 c 0,24,25
 191 519 191 519 200 526 c 0,26,27
 209 532 209 532 225 532 c 1,28,29
 225 563 225 563 248 576 c 0,30,31
 259 582 259 582 268 582 c 0,32,33
 278 582 278 582 287 573 c 0,34,35
 308 552 308 552 331 529 c 256,36,37
 354 506 354 506 375 484 c 0,38,39
 415 444 415 444 443 411 c 0,40,41
 471 379 471 379 471 369 c 0,42,43
 471 353 471 353 471 302 c 256,44,45
 471 251 471 251 471 205 c 0,46,47
 471 195 471 195 453 173 c 0,48,49
 434 150 434 150 414 128 c 0,50,51
 399 113 399 113 387 100 c 0,52,53
 375 88 375 88 369 82 c 0,54,55
 359 73 359 73 310 55 c 0,56,57
 260 38 260 38 208 23 c 0,58,59
 173 13 173 13 144 7 c 0,60,61
 115 0 115 0 102 0 c 0,0,1
287 430 m 1,62,63
 307 410 307 410 330 389 c 0,64,65
 353 369 353 369 353 348 c 0,66,67
 353 328 353 328 361 328 c 256,68,69
 369 328 369 328 369 348 c 0,70,71
 369 367 369 367 338 399 c 0,72,73
 307 430 307 430 266 471 c 1,74,75
 266 369 266 369 260 328 c 256,76,77
 254 287 254 287 266 287 c 1,78,79
 266 287 266 287 284 277 c 0,80,81
 301 267 301 267 307 266 c 0,82,83
 323 251 323 251 325 259 c 0,84,85
 328 266 328 266 328 266 c 257,86,87
 328 266 328 266 307 276 c 0,88,89
 287 287 287 287 287 287 c 1,90,91
 301 297 301 297 314 317 c 0,92,93
 328 337 328 337 328 348 c 0,94,95
 328 358 328 358 307 384 c 0,96,97
 287 410 287 410 287 430 c 1,62,63
EndSplineSet
EndChar

StartChar: b
Encoding: 98 98 45
Width: 491
GlyphClass: 1
Flags: W
LayerCount: 2
Fore
SplineSet
102 0 m 0,0,1
 56 0 56 0 61 0 c 0,2,3
 67 0 67 0 20 0 c 1,4,5
 20 31 20 31 20 92 c 0,6,7
 20 154 20 154 20 225 c 1,8,9
 54 225 54 225 53 225 c 0,10,11
 51 225 51 225 82 225 c 1,12,13
 82 247 82 247 90 267 c 0,14,15
 99 286 99 286 111 304 c 0,16,17
 134 337 134 337 159 363 c 0,18,19
 184 390 184 390 184 410 c 256,20,21
 184 430 184 430 181 458 c 0,22,23
 178 487 178 487 186 508 c 0,24,25
 191 519 191 519 200 526 c 0,26,27
 209 532 209 532 225 532 c 1,28,29
 225 563 225 563 248 576 c 0,30,31
 259 582 259 582 268 582 c 0,32,33
 278 582 278 582 287 573 c 0,34,35
 308 552 308 552 331 529 c 256,36,37
 354 506 354 506 375 484 c 0,38,39
 415 444 415 444 443 411 c 0,40,41
 471 379 471 379 471 369 c 0,42,43
 471 353 471 353 471 302 c 256,44,45
 471 251 471 251 471 205 c 0,46,47
 471 195 471 195 453 173 c 0,48,49
 434 150 434 150 414 128 c 0,50,51
 399 113 399 113 387 100 c 0,52,53
 375 88 375 88 369 82 c 0,54,55
 359 73 359 73 310 55 c 0,56,57
 260 38 260 38 208 23 c 0,58,59
 173 13 173 13 144 7 c 0,60,61
 115 0 115 0 102 0 c 0,0,1
287 430 m 1,62,63
 307 410 307 410 330 389 c 0,64,65
 353 369 353 369 353 348 c 0,66,67
 353 328 353 328 361 328 c 256,68,69
 369 328 369 328 369 348 c 0,70,71
 369 367 369 367 338 399 c 0,72,73
 307 430 307 430 266 471 c 1,74,75
 266 369 266 369 260 328 c 256,76,77
 254 287 254 287 266 287 c 1,78,79
 266 287 266 287 284 277 c 0,80,81
 301 267 301 267 307 266 c 0,82,83
 323 251 323 251 325 259 c 0,84,85
 328 266 328 266 328 266 c 257,86,87
 328 266 328 266 307 276 c 0,88,89
 287 287 287 287 287 287 c 1,90,91
 301 297 301 297 314 317 c 0,92,93
 328 337 328 337 328 348 c 0,94,95
 328 358 328 358 307 384 c 0,96,97
 287 410 287 410 287 430 c 1,62,63
EndSplineSet
EndChar

StartChar: c
Encoding: 99 99 46
Width: 491
GlyphClass: 1
Flags: W
LayerCount: 2
Fore
SplineSet
102 0 m 0,0,1
 56 0 56 0 61 0 c 0,2,3
 67 0 67 0 20 0 c 1,4,5
 20 31 20 31 20 92 c 0,6,7
 20 154 20 154 20 225 c 1,8,9
 54 225 54 225 53 225 c 0,10,11
 51 225 51 225 82 225 c 1,12,13
 82 247 82 247 90 267 c 0,14,15
 99 286 99 286 111 304 c 0,16,17
 134 337 134 337 159 363 c 0,18,19
 184 390 184 390 184 410 c 256,20,21
 184 430 184 430 181 458 c 0,22,23
 178 487 178 487 186 508 c 0,24,25
 191 519 191 519 200 526 c 0,26,27
 209 532 209 532 225 532 c 1,28,29
 225 563 225 563 248 576 c 0,30,31
 259 582 259 582 268 582 c 0,32,33
 278 582 278 582 287 573 c 0,34,35
 308 552 308 552 331 529 c 256,36,37
 354 506 354 506 375 484 c 0,38,39
 415 444 415 444 443 411 c 0,40,41
 471 379 471 379 471 369 c 0,42,43
 471 353 471 353 471 302 c 256,44,45
 471 251 471 251 471 205 c 0,46,47
 471 195 471 195 453 173 c 0,48,49
 434 150 434 150 414 128 c 0,50,51
 399 113 399 113 387 100 c 0,52,53
 375 88 375 88 369 82 c 0,54,55
 359 73 359 73 310 55 c 0,56,57
 260 38 260 38 208 23 c 0,58,59
 173 13 173 13 144 7 c 0,60,61
 115 0 115 0 102 0 c 0,0,1
287 430 m 1,62,63
 307 410 307 410 330 389 c 0,64,65
 353 369 353 369 353 348 c 0,66,67
 353 328 353 328 361 328 c 256,68,69
 369 328 369 328 369 348 c 0,70,71
 369 367 369 367 338 399 c 0,72,73
 307 430 307 430 266 471 c 1,74,75
 266 369 266 369 260 328 c 256,76,77
 254 287 254 287 266 287 c 1,78,79
 266 287 266 287 284 277 c 0,80,81
 301 267 301 267 307 266 c 0,82,83
 323 251 323 251 325 259 c 0,84,85
 328 266 328 266 328 266 c 257,86,87
 328 266 328 266 307 276 c 0,88,89
 287 287 287 287 287 287 c 1,90,91
 301 297 301 297 314 317 c 0,92,93
 328 337 328 337 328 348 c 0,94,95
 328 358 328 358 307 384 c 0,96,97
 287 410 287 410 287 430 c 1,62,63
EndSplineSet
EndChar

StartChar: d
Encoding: 100 100 47
Width: 491
GlyphClass: 1
Flags: W
LayerCount: 2
Fore
SplineSet
102 0 m 0,0,1
 56 0 56 0 61 0 c 0,2,3
 67 0 67 0 20 0 c 1,4,5
 20 31 20 31 20 92 c 0,6,7
 20 154 20 154 20 225 c 1,8,9
 54 225 54 225 53 225 c 0,10,11
 51 225 51 225 82 225 c 1,12,13
 82 247 82 247 90 267 c 0,14,15
 99 286 99 286 111 304 c 0,16,17
 134 337 134 337 159 363 c 0,18,19
 184 390 184 390 184 410 c 256,20,21
 184 430 184 430 181 458 c 0,22,23
 178 487 178 487 186 508 c 0,24,25
 191 519 191 519 200 526 c 0,26,27
 209 532 209 532 225 532 c 1,28,29
 225 563 225 563 248 576 c 0,30,31
 259 582 259 582 268 582 c 0,32,33
 278 582 278 582 287 573 c 0,34,35
 308 552 308 552 331 529 c 256,36,37
 354 506 354 506 375 484 c 0,38,39
 415 444 415 444 443 411 c 0,40,41
 471 379 471 379 471 369 c 0,42,43
 471 353 471 353 471 302 c 256,44,45
 471 251 471 251 471 205 c 0,46,47
 471 195 471 195 453 173 c 0,48,49
 434 150 434 150 414 128 c 0,50,51
 399 113 399 113 387 100 c 0,52,53
 375 88 375 88 369 82 c 0,54,55
 359 73 359 73 310 55 c 0,56,57
 260 38 260 38 208 23 c 0,58,59
 173 13 173 13 144 7 c 0,60,61
 115 0 115 0 102 0 c 0,0,1
287 430 m 1,62,63
 307 410 307 410 330 389 c 0,64,65
 353 369 353 369 353 348 c 0,66,67
 353 328 353 328 361 328 c 256,68,69
 369 328 369 328 369 348 c 0,70,71
 369 367 369 367 338 399 c 0,72,73
 307 430 307 430 266 471 c 1,74,75
 266 369 266 369 260 328 c 256,76,77
 254 287 254 287 266 287 c 1,78,79
 266 287 266 287 284 277 c 0,80,81
 301 267 301 267 307 266 c 0,82,83
 323 251 323 251 325 259 c 0,84,85
 328 266 328 266 328 266 c 257,86,87
 328 266 328 266 307 276 c 0,88,89
 287 287 287 287 287 287 c 1,90,91
 301 297 301 297 314 317 c 0,92,93
 328 337 328 337 328 348 c 0,94,95
 328 358 328 358 307 384 c 0,96,97
 287 410 287 410 287 430 c 1,62,63
EndSplineSet
EndChar

StartChar: e
Encoding: 101 101 48
Width: 491
GlyphClass: 1
Flags: W
LayerCount: 2
Fore
SplineSet
102 0 m 0,0,1
 56 0 56 0 61 0 c 0,2,3
 67 0 67 0 20 0 c 1,4,5
 20 31 20 31 20 92 c 0,6,7
 20 154 20 154 20 225 c 1,8,9
 54 225 54 225 53 225 c 0,10,11
 51 225 51 225 82 225 c 1,12,13
 82 247 82 247 90 267 c 0,14,15
 99 286 99 286 111 304 c 0,16,17
 134 337 134 337 159 363 c 0,18,19
 184 390 184 390 184 410 c 256,20,21
 184 430 184 430 181 458 c 0,22,23
 178 487 178 487 186 508 c 0,24,25
 191 519 191 519 200 526 c 0,26,27
 209 532 209 532 225 532 c 1,28,29
 225 563 225 563 248 576 c 0,30,31
 259 582 259 582 268 582 c 0,32,33
 278 582 278 582 287 573 c 0,34,35
 308 552 308 552 331 529 c 256,36,37
 354 506 354 506 375 484 c 0,38,39
 415 444 415 444 443 411 c 0,40,41
 471 379 471 379 471 369 c 0,42,43
 471 353 471 353 471 302 c 256,44,45
 471 251 471 251 471 205 c 0,46,47
 471 195 471 195 453 173 c 0,48,49
 434 150 434 150 414 128 c 0,50,51
 399 113 399 113 387 100 c 0,52,53
 375 88 375 88 369 82 c 0,54,55
 359 73 359 73 310 55 c 0,56,57
 260 38 260 38 208 23 c 0,58,59
 173 13 173 13 144 7 c 0,60,61
 115 0 115 0 102 0 c 0,0,1
287 430 m 1,62,63
 307 410 307 410 330 389 c 0,64,65
 353 369 353 369 353 348 c 0,66,67
 353 328 353 328 361 328 c 256,68,69
 369 328 369 328 369 348 c 0,70,71
 369 367 369 367 338 399 c 0,72,73
 307 430 307 430 266 471 c 1,74,75
 266 369 266 369 260 328 c 256,76,77
 254 287 254 287 266 287 c 1,78,79
 266 287 266 287 284 277 c 0,80,81
 301 267 301 267 307 266 c 0,82,83
 323 251 323 251 325 259 c 0,84,85
 328 266 328 266 328 266 c 257,86,87
 328 266 328 266 307 276 c 0,88,89
 287 287 287 287 287 287 c 1,90,91
 301 297 301 297 314 317 c 0,92,93
 328 337 328 337 328 348 c 0,94,95
 328 358 328 358 307 384 c 0,96,97
 287 410 287 410 287 430 c 1,62,63
EndSplineSet
EndChar

StartChar: f
Encoding: 102 102 49
Width: 491
GlyphClass: 1
Flags: W
LayerCount: 2
Fore
SplineSet
102 0 m 0,0,1
 56 0 56 0 61 0 c 0,2,3
 67 0 67 0 20 0 c 1,4,5
 20 31 20 31 20 92 c 0,6,7
 20 154 20 154 20 225 c 1,8,9
 54 225 54 225 53 225 c 0,10,11
 51 225 51 225 82 225 c 1,12,13
 82 247 82 247 90 267 c 0,14,15
 99 286 99 286 111 304 c 0,16,17
 134 337 134 337 159 363 c 0,18,19
 184 390 184 390 184 410 c 256,20,21
 184 430 184 430 181 458 c 0,22,23
 178 487 178 487 186 508 c 0,24,25
 191 519 191 519 200 526 c 0,26,27
 209 532 209 532 225 532 c 1,28,29
 225 563 225 563 248 576 c 0,30,31
 259 582 259 582 268 582 c 0,32,33
 278 582 278 582 287 573 c 0,34,35
 308 552 308 552 331 529 c 256,36,37
 354 506 354 506 375 484 c 0,38,39
 415 444 415 444 443 411 c 0,40,41
 471 379 471 379 471 369 c 0,42,43
 471 353 471 353 471 302 c 256,44,45
 471 251 471 251 471 205 c 0,46,47
 471 195 471 195 453 173 c 0,48,49
 434 150 434 150 414 128 c 0,50,51
 399 113 399 113 387 100 c 0,52,53
 375 88 375 88 369 82 c 0,54,55
 359 73 359 73 310 55 c 0,56,57
 260 38 260 38 208 23 c 0,58,59
 173 13 173 13 144 7 c 0,60,61
 115 0 115 0 102 0 c 0,0,1
287 430 m 1,62,63
 307 410 307 410 330 389 c 0,64,65
 353 369 353 369 353 348 c 0,66,67
 353 328 353 328 361 328 c 256,68,69
 369 328 369 328 369 348 c 0,70,71
 369 367 369 367 338 399 c 0,72,73
 307 430 307 430 266 471 c 1,74,75
 266 369 266 369 260 328 c 256,76,77
 254 287 254 287 266 287 c 1,78,79
 266 287 266 287 284 277 c 0,80,81
 301 267 301 267 307 266 c 0,82,83
 323 251 323 251 325 259 c 0,84,85
 328 266 328 266 328 266 c 257,86,87
 328 266 328 266 307 276 c 0,88,89
 287 287 287 287 287 287 c 1,90,91
 301 297 301 297 314 317 c 0,92,93
 328 337 328 337 328 348 c 0,94,95
 328 358 328 358 307 384 c 0,96,97
 287 410 287 410 287 430 c 1,62,63
EndSplineSet
EndChar

StartChar: g
Encoding: 103 103 50
Width: 491
GlyphClass: 1
Flags: W
LayerCount: 2
Fore
SplineSet
102 0 m 0,0,1
 56 0 56 0 61 0 c 0,2,3
 67 0 67 0 20 0 c 1,4,5
 20 31 20 31 20 92 c 0,6,7
 20 154 20 154 20 225 c 1,8,9
 54 225 54 225 53 225 c 0,10,11
 51 225 51 225 82 225 c 1,12,13
 82 247 82 247 90 267 c 0,14,15
 99 286 99 286 111 304 c 0,16,17
 134 337 134 337 159 363 c 0,18,19
 184 390 184 390 184 410 c 256,20,21
 184 430 184 430 181 458 c 0,22,23
 178 487 178 487 186 508 c 0,24,25
 191 519 191 519 200 526 c 0,26,27
 209 532 209 532 225 532 c 1,28,29
 225 563 225 563 248 576 c 0,30,31
 259 582 259 582 268 582 c 0,32,33
 278 582 278 582 287 573 c 0,34,35
 308 552 308 552 331 529 c 256,36,37
 354 506 354 506 375 484 c 0,38,39
 415 444 415 444 443 411 c 0,40,41
 471 379 471 379 471 369 c 0,42,43
 471 353 471 353 471 302 c 256,44,45
 471 251 471 251 471 205 c 0,46,47
 471 195 471 195 453 173 c 0,48,49
 434 150 434 150 414 128 c 0,50,51
 399 113 399 113 387 100 c 0,52,53
 375 88 375 88 369 82 c 0,54,55
 359 73 359 73 310 55 c 0,56,57
 260 38 260 38 208 23 c 0,58,59
 173 13 173 13 144 7 c 0,60,61
 115 0 115 0 102 0 c 0,0,1
287 430 m 1,62,63
 307 410 307 410 330 389 c 0,64,65
 353 369 353 369 353 348 c 0,66,67
 353 328 353 328 361 328 c 256,68,69
 369 328 369 328 369 348 c 0,70,71
 369 367 369 367 338 399 c 0,72,73
 307 430 307 430 266 471 c 1,74,75
 266 369 266 369 260 328 c 256,76,77
 254 287 254 287 266 287 c 1,78,79
 266 287 266 287 284 277 c 0,80,81
 301 267 301 267 307 266 c 0,82,83
 323 251 323 251 325 259 c 0,84,85
 328 266 328 266 328 266 c 257,86,87
 328 266 328 266 307 276 c 0,88,89
 287 287 287 287 287 287 c 1,90,91
 301 297 301 297 314 317 c 0,92,93
 328 337 328 337 328 348 c 0,94,95
 328 358 328 358 307 384 c 0,96,97
 287 410 287 410 287 430 c 1,62,63
EndSplineSet
EndChar

StartChar: h
Encoding: 104 104 51
Width: 491
GlyphClass: 1
Flags: W
LayerCount: 2
Fore
SplineSet
102 0 m 0,0,1
 56 0 56 0 61 0 c 0,2,3
 67 0 67 0 20 0 c 1,4,5
 20 31 20 31 20 92 c 0,6,7
 20 154 20 154 20 225 c 1,8,9
 54 225 54 225 53 225 c 0,10,11
 51 225 51 225 82 225 c 1,12,13
 82 247 82 247 90 267 c 0,14,15
 99 286 99 286 111 304 c 0,16,17
 134 337 134 337 159 363 c 0,18,19
 184 390 184 390 184 410 c 256,20,21
 184 430 184 430 181 458 c 0,22,23
 178 487 178 487 186 508 c 0,24,25
 191 519 191 519 200 526 c 0,26,27
 209 532 209 532 225 532 c 1,28,29
 225 563 225 563 248 576 c 0,30,31
 259 582 259 582 268 582 c 0,32,33
 278 582 278 582 287 573 c 0,34,35
 308 552 308 552 331 529 c 256,36,37
 354 506 354 506 375 484 c 0,38,39
 415 444 415 444 443 411 c 0,40,41
 471 379 471 379 471 369 c 0,42,43
 471 353 471 353 471 302 c 256,44,45
 471 251 471 251 471 205 c 0,46,47
 471 195 471 195 453 173 c 0,48,49
 434 150 434 150 414 128 c 0,50,51
 399 113 399 113 387 100 c 0,52,53
 375 88 375 88 369 82 c 0,54,55
 359 73 359 73 310 55 c 0,56,57
 260 38 260 38 208 23 c 0,58,59
 173 13 173 13 144 7 c 0,60,61
 115 0 115 0 102 0 c 0,0,1
287 430 m 1,62,63
 307 410 307 410 330 389 c 0,64,65
 353 369 353 369 353 348 c 0,66,67
 353 328 353 328 361 328 c 256,68,69
 369 328 369 328 369 348 c 0,70,71
 369 367 369 367 338 399 c 0,72,73
 307 430 307 430 266 471 c 1,74,75
 266 369 266 369 260 328 c 256,76,77
 254 287 254 287 266 287 c 1,78,79
 266 287 266 287 284 277 c 0,80,81
 301 267 301 267 307 266 c 0,82,83
 323 251 323 251 325 259 c 0,84,85
 328 266 328 266 328 266 c 257,86,87
 328 266 328 266 307 276 c 0,88,89
 287 287 287 287 287 287 c 1,90,91
 301 297 301 297 314 317 c 0,92,93
 328 337 328 337 328 348 c 0,94,95
 328 358 328 358 307 384 c 0,96,97
 287 410 287 410 287 430 c 1,62,63
EndSplineSet
EndChar

StartChar: i
Encoding: 105 105 52
Width: 491
GlyphClass: 1
Flags: W
LayerCount: 2
Fore
SplineSet
102 0 m 0,0,1
 56 0 56 0 61 0 c 0,2,3
 67 0 67 0 20 0 c 1,4,5
 20 31 20 31 20 92 c 0,6,7
 20 154 20 154 20 225 c 1,8,9
 54 225 54 225 53 225 c 0,10,11
 51 225 51 225 82 225 c 1,12,13
 82 247 82 247 90 267 c 0,14,15
 99 286 99 286 111 304 c 0,16,17
 134 337 134 337 159 363 c 0,18,19
 184 390 184 390 184 410 c 256,20,21
 184 430 184 430 181 458 c 0,22,23
 178 487 178 487 186 508 c 0,24,25
 191 519 191 519 200 526 c 0,26,27
 209 532 209 532 225 532 c 1,28,29
 225 563 225 563 248 576 c 0,30,31
 259 582 259 582 268 582 c 0,32,33
 278 582 278 582 287 573 c 0,34,35
 308 552 308 552 331 529 c 256,36,37
 354 506 354 506 375 484 c 0,38,39
 415 444 415 444 443 411 c 0,40,41
 471 379 471 379 471 369 c 0,42,43
 471 353 471 353 471 302 c 256,44,45
 471 251 471 251 471 205 c 0,46,47
 471 195 471 195 453 173 c 0,48,49
 434 150 434 150 414 128 c 0,50,51
 399 113 399 113 387 100 c 0,52,53
 375 88 375 88 369 82 c 0,54,55
 359 73 359 73 310 55 c 0,56,57
 260 38 260 38 208 23 c 0,58,59
 173 13 173 13 144 7 c 0,60,61
 115 0 115 0 102 0 c 0,0,1
287 430 m 1,62,63
 307 410 307 410 330 389 c 0,64,65
 353 369 353 369 353 348 c 0,66,67
 353 328 353 328 361 328 c 256,68,69
 369 328 369 328 369 348 c 0,70,71
 369 367 369 367 338 399 c 0,72,73
 307 430 307 430 266 471 c 1,74,75
 266 369 266 369 260 328 c 256,76,77
 254 287 254 287 266 287 c 1,78,79
 266 287 266 287 284 277 c 0,80,81
 301 267 301 267 307 266 c 0,82,83
 323 251 323 251 325 259 c 0,84,85
 328 266 328 266 328 266 c 257,86,87
 328 266 328 266 307 276 c 0,88,89
 287 287 287 287 287 287 c 1,90,91
 301 297 301 297 314 317 c 0,92,93
 328 337 328 337 328 348 c 0,94,95
 328 358 328 358 307 384 c 0,96,97
 287 410 287 410 287 430 c 1,62,63
EndSplineSet
EndChar

StartChar: j
Encoding: 106 106 53
Width: 491
GlyphClass: 1
Flags: W
LayerCount: 2
Fore
SplineSet
102 0 m 0,0,1
 56 0 56 0 61 0 c 0,2,3
 67 0 67 0 20 0 c 1,4,5
 20 31 20 31 20 92 c 0,6,7
 20 154 20 154 20 225 c 1,8,9
 54 225 54 225 53 225 c 0,10,11
 51 225 51 225 82 225 c 1,12,13
 82 247 82 247 90 267 c 0,14,15
 99 286 99 286 111 304 c 0,16,17
 134 337 134 337 159 363 c 0,18,19
 184 390 184 390 184 410 c 256,20,21
 184 430 184 430 181 458 c 0,22,23
 178 487 178 487 186 508 c 0,24,25
 191 519 191 519 200 526 c 0,26,27
 209 532 209 532 225 532 c 1,28,29
 225 563 225 563 248 576 c 0,30,31
 259 582 259 582 268 582 c 0,32,33
 278 582 278 582 287 573 c 0,34,35
 308 552 308 552 331 529 c 256,36,37
 354 506 354 506 375 484 c 0,38,39
 415 444 415 444 443 411 c 0,40,41
 471 379 471 379 471 369 c 0,42,43
 471 353 471 353 471 302 c 256,44,45
 471 251 471 251 471 205 c 0,46,47
 471 195 471 195 453 173 c 0,48,49
 434 150 434 150 414 128 c 0,50,51
 399 113 399 113 387 100 c 0,52,53
 375 88 375 88 369 82 c 0,54,55
 359 73 359 73 310 55 c 0,56,57
 260 38 260 38 208 23 c 0,58,59
 173 13 173 13 144 7 c 0,60,61
 115 0 115 0 102 0 c 0,0,1
287 430 m 1,62,63
 307 410 307 410 330 389 c 0,64,65
 353 369 353 369 353 348 c 0,66,67
 353 328 353 328 361 328 c 256,68,69
 369 328 369 328 369 348 c 0,70,71
 369 367 369 367 338 399 c 0,72,73
 307 430 307 430 266 471 c 1,74,75
 266 369 266 369 260 328 c 256,76,77
 254 287 254 287 266 287 c 1,78,79
 266 287 266 287 284 277 c 0,80,81
 301 267 301 267 307 266 c 0,82,83
 323 251 323 251 325 259 c 0,84,85
 328 266 328 266 328 266 c 257,86,87
 328 266 328 266 307 276 c 0,88,89
 287 287 287 287 287 287 c 1,90,91
 301 297 301 297 314 317 c 0,92,93
 328 337 328 337 328 348 c 0,94,95
 328 358 328 358 307 384 c 0,96,97
 287 410 287 410 287 430 c 1,62,63
EndSplineSet
EndChar

StartChar: k
Encoding: 107 107 54
Width: 491
GlyphClass: 1
Flags: W
LayerCount: 2
Fore
SplineSet
102 0 m 0,0,1
 56 0 56 0 61 0 c 0,2,3
 67 0 67 0 20 0 c 1,4,5
 20 31 20 31 20 92 c 0,6,7
 20 154 20 154 20 225 c 1,8,9
 54 225 54 225 53 225 c 0,10,11
 51 225 51 225 82 225 c 1,12,13
 82 247 82 247 90 267 c 0,14,15
 99 286 99 286 111 304 c 0,16,17
 134 337 134 337 159 363 c 0,18,19
 184 390 184 390 184 410 c 256,20,21
 184 430 184 430 181 458 c 0,22,23
 178 487 178 487 186 508 c 0,24,25
 191 519 191 519 200 526 c 0,26,27
 209 532 209 532 225 532 c 1,28,29
 225 563 225 563 248 576 c 0,30,31
 259 582 259 582 268 582 c 0,32,33
 278 582 278 582 287 573 c 0,34,35
 308 552 308 552 331 529 c 256,36,37
 354 506 354 506 375 484 c 0,38,39
 415 444 415 444 443 411 c 0,40,41
 471 379 471 379 471 369 c 0,42,43
 471 353 471 353 471 302 c 256,44,45
 471 251 471 251 471 205 c 0,46,47
 471 195 471 195 453 173 c 0,48,49
 434 150 434 150 414 128 c 0,50,51
 399 113 399 113 387 100 c 0,52,53
 375 88 375 88 369 82 c 0,54,55
 359 73 359 73 310 55 c 0,56,57
 260 38 260 38 208 23 c 0,58,59
 173 13 173 13 144 7 c 0,60,61
 115 0 115 0 102 0 c 0,0,1
287 430 m 1,62,63
 307 410 307 410 330 389 c 0,64,65
 353 369 353 369 353 348 c 0,66,67
 353 328 353 328 361 328 c 256,68,69
 369 328 369 328 369 348 c 0,70,71
 369 367 369 367 338 399 c 0,72,73
 307 430 307 430 266 471 c 1,74,75
 266 369 266 369 260 328 c 256,76,77
 254 287 254 287 266 287 c 1,78,79
 266 287 266 287 284 277 c 0,80,81
 301 267 301 267 307 266 c 0,82,83
 323 251 323 251 325 259 c 0,84,85
 328 266 328 266 328 266 c 257,86,87
 328 266 328 266 307 276 c 0,88,89
 287 287 287 287 287 287 c 1,90,91
 301 297 301 297 314 317 c 0,92,93
 328 337 328 337 328 348 c 0,94,95
 328 358 328 358 307 384 c 0,96,97
 287 410 287 410 287 430 c 1,62,63
EndSplineSet
EndChar

StartChar: l
Encoding: 108 108 55
Width: 491
GlyphClass: 1
Flags: W
LayerCount: 2
Fore
SplineSet
102 0 m 0,0,1
 56 0 56 0 61 0 c 0,2,3
 67 0 67 0 20 0 c 1,4,5
 20 31 20 31 20 92 c 0,6,7
 20 154 20 154 20 225 c 1,8,9
 54 225 54 225 53 225 c 0,10,11
 51 225 51 225 82 225 c 1,12,13
 82 247 82 247 90 267 c 0,14,15
 99 286 99 286 111 304 c 0,16,17
 134 337 134 337 159 363 c 0,18,19
 184 390 184 390 184 410 c 256,20,21
 184 430 184 430 181 458 c 0,22,23
 178 487 178 487 186 508 c 0,24,25
 191 519 191 519 200 526 c 0,26,27
 209 532 209 532 225 532 c 1,28,29
 225 563 225 563 248 576 c 0,30,31
 259 582 259 582 268 582 c 0,32,33
 278 582 278 582 287 573 c 0,34,35
 308 552 308 552 331 529 c 256,36,37
 354 506 354 506 375 484 c 0,38,39
 415 444 415 444 443 411 c 0,40,41
 471 379 471 379 471 369 c 0,42,43
 471 353 471 353 471 302 c 256,44,45
 471 251 471 251 471 205 c 0,46,47
 471 195 471 195 453 173 c 0,48,49
 434 150 434 150 414 128 c 0,50,51
 399 113 399 113 387 100 c 0,52,53
 375 88 375 88 369 82 c 0,54,55
 359 73 359 73 310 55 c 0,56,57
 260 38 260 38 208 23 c 0,58,59
 173 13 173 13 144 7 c 0,60,61
 115 0 115 0 102 0 c 0,0,1
287 430 m 1,62,63
 307 410 307 410 330 389 c 0,64,65
 353 369 353 369 353 348 c 0,66,67
 353 328 353 328 361 328 c 256,68,69
 369 328 369 328 369 348 c 0,70,71
 369 367 369 367 338 399 c 0,72,73
 307 430 307 430 266 471 c 1,74,75
 266 369 266 369 260 328 c 256,76,77
 254 287 254 287 266 287 c 1,78,79
 266 287 266 287 284 277 c 0,80,81
 301 267 301 267 307 266 c 0,82,83
 323 251 323 251 325 259 c 0,84,85
 328 266 328 266 328 266 c 257,86,87
 328 266 328 266 307 276 c 0,88,89
 287 287 287 287 287 287 c 1,90,91
 301 297 301 297 314 317 c 0,92,93
 328 337 328 337 328 348 c 0,94,95
 328 358 328 358 307 384 c 0,96,97
 287 410 287 410 287 430 c 1,62,63
EndSplineSet
EndChar

StartChar: m
Encoding: 109 109 56
Width: 491
GlyphClass: 1
Flags: W
LayerCount: 2
Fore
SplineSet
102 0 m 0,0,1
 56 0 56 0 61 0 c 0,2,3
 67 0 67 0 20 0 c 1,4,5
 20 31 20 31 20 92 c 0,6,7
 20 154 20 154 20 225 c 1,8,9
 54 225 54 225 53 225 c 0,10,11
 51 225 51 225 82 225 c 1,12,13
 82 247 82 247 90 267 c 0,14,15
 99 286 99 286 111 304 c 0,16,17
 134 337 134 337 159 363 c 0,18,19
 184 390 184 390 184 410 c 256,20,21
 184 430 184 430 181 458 c 0,22,23
 178 487 178 487 186 508 c 0,24,25
 191 519 191 519 200 526 c 0,26,27
 209 532 209 532 225 532 c 1,28,29
 225 563 225 563 248 576 c 0,30,31
 259 582 259 582 268 582 c 0,32,33
 278 582 278 582 287 573 c 0,34,35
 308 552 308 552 331 529 c 256,36,37
 354 506 354 506 375 484 c 0,38,39
 415 444 415 444 443 411 c 0,40,41
 471 379 471 379 471 369 c 0,42,43
 471 353 471 353 471 302 c 256,44,45
 471 251 471 251 471 205 c 0,46,47
 471 195 471 195 453 173 c 0,48,49
 434 150 434 150 414 128 c 0,50,51
 399 113 399 113 387 100 c 0,52,53
 375 88 375 88 369 82 c 0,54,55
 359 73 359 73 310 55 c 0,56,57
 260 38 260 38 208 23 c 0,58,59
 173 13 173 13 144 7 c 0,60,61
 115 0 115 0 102 0 c 0,0,1
287 430 m 1,62,63
 307 410 307 410 330 389 c 0,64,65
 353 369 353 369 353 348 c 0,66,67
 353 328 353 328 361 328 c 256,68,69
 369 328 369 328 369 348 c 0,70,71
 369 367 369 367 338 399 c 0,72,73
 307 430 307 430 266 471 c 1,74,75
 266 369 266 369 260 328 c 256,76,77
 254 287 254 287 266 287 c 1,78,79
 266 287 266 287 284 277 c 0,80,81
 301 267 301 267 307 266 c 0,82,83
 323 251 323 251 325 259 c 0,84,85
 328 266 328 266 328 266 c 257,86,87
 328 266 328 266 307 276 c 0,88,89
 287 287 287 287 287 287 c 1,90,91
 301 297 301 297 314 317 c 0,92,93
 328 337 328 337 328 348 c 0,94,95
 328 358 328 358 307 384 c 0,96,97
 287 410 287 410 287 430 c 1,62,63
EndSplineSet
EndChar

StartChar: n
Encoding: 110 110 57
Width: 491
GlyphClass: 1
Flags: W
LayerCount: 2
Fore
SplineSet
102 0 m 0,0,1
 56 0 56 0 61 0 c 0,2,3
 67 0 67 0 20 0 c 1,4,5
 20 31 20 31 20 92 c 0,6,7
 20 154 20 154 20 225 c 1,8,9
 54 225 54 225 53 225 c 0,10,11
 51 225 51 225 82 225 c 1,12,13
 82 247 82 247 90 267 c 0,14,15
 99 286 99 286 111 304 c 0,16,17
 134 337 134 337 159 363 c 0,18,19
 184 390 184 390 184 410 c 256,20,21
 184 430 184 430 181 458 c 0,22,23
 178 487 178 487 186 508 c 0,24,25
 191 519 191 519 200 526 c 0,26,27
 209 532 209 532 225 532 c 1,28,29
 225 563 225 563 248 576 c 0,30,31
 259 582 259 582 268 582 c 0,32,33
 278 582 278 582 287 573 c 0,34,35
 308 552 308 552 331 529 c 256,36,37
 354 506 354 506 375 484 c 0,38,39
 415 444 415 444 443 411 c 0,40,41
 471 379 471 379 471 369 c 0,42,43
 471 353 471 353 471 302 c 256,44,45
 471 251 471 251 471 205 c 0,46,47
 471 195 471 195 453 173 c 0,48,49
 434 150 434 150 414 128 c 0,50,51
 399 113 399 113 387 100 c 0,52,53
 375 88 375 88 369 82 c 0,54,55
 359 73 359 73 310 55 c 0,56,57
 260 38 260 38 208 23 c 0,58,59
 173 13 173 13 144 7 c 0,60,61
 115 0 115 0 102 0 c 0,0,1
287 430 m 1,62,63
 307 410 307 410 330 389 c 0,64,65
 353 369 353 369 353 348 c 0,66,67
 353 328 353 328 361 328 c 256,68,69
 369 328 369 328 369 348 c 0,70,71
 369 367 369 367 338 399 c 0,72,73
 307 430 307 430 266 471 c 1,74,75
 266 369 266 369 260 328 c 256,76,77
 254 287 254 287 266 287 c 1,78,79
 266 287 266 287 284 277 c 0,80,81
 301 267 301 267 307 266 c 0,82,83
 323 251 323 251 325 259 c 0,84,85
 328 266 328 266 328 266 c 257,86,87
 328 266 328 266 307 276 c 0,88,89
 287 287 287 287 287 287 c 1,90,91
 301 297 301 297 314 317 c 0,92,93
 328 337 328 337 328 348 c 0,94,95
 328 358 328 358 307 384 c 0,96,97
 287 410 287 410 287 430 c 1,62,63
EndSplineSet
EndChar

StartChar: o
Encoding: 111 111 58
Width: 491
GlyphClass: 1
Flags: W
LayerCount: 2
Fore
SplineSet
102 0 m 0,0,1
 56 0 56 0 61 0 c 0,2,3
 67 0 67 0 20 0 c 1,4,5
 20 31 20 31 20 92 c 0,6,7
 20 154 20 154 20 225 c 1,8,9
 54 225 54 225 53 225 c 0,10,11
 51 225 51 225 82 225 c 1,12,13
 82 247 82 247 90 267 c 0,14,15
 99 286 99 286 111 304 c 0,16,17
 134 337 134 337 159 363 c 0,18,19
 184 390 184 390 184 410 c 256,20,21
 184 430 184 430 181 458 c 0,22,23
 178 487 178 487 186 508 c 0,24,25
 191 519 191 519 200 526 c 0,26,27
 209 532 209 532 225 532 c 1,28,29
 225 563 225 563 248 576 c 0,30,31
 259 582 259 582 268 582 c 0,32,33
 278 582 278 582 287 573 c 0,34,35
 308 552 308 552 331 529 c 256,36,37
 354 506 354 506 375 484 c 0,38,39
 415 444 415 444 443 411 c 0,40,41
 471 379 471 379 471 369 c 0,42,43
 471 353 471 353 471 302 c 256,44,45
 471 251 471 251 471 205 c 0,46,47
 471 195 471 195 453 173 c 0,48,49
 434 150 434 150 414 128 c 0,50,51
 399 113 399 113 387 100 c 0,52,53
 375 88 375 88 369 82 c 0,54,55
 359 73 359 73 310 55 c 0,56,57
 260 38 260 38 208 23 c 0,58,59
 173 13 173 13 144 7 c 0,60,61
 115 0 115 0 102 0 c 0,0,1
287 430 m 1,62,63
 307 410 307 410 330 389 c 0,64,65
 353 369 353 369 353 348 c 0,66,67
 353 328 353 328 361 328 c 256,68,69
 369 328 369 328 369 348 c 0,70,71
 369 367 369 367 338 399 c 0,72,73
 307 430 307 430 266 471 c 1,74,75
 266 369 266 369 260 328 c 256,76,77
 254 287 254 287 266 287 c 1,78,79
 266 287 266 287 284 277 c 0,80,81
 301 267 301 267 307 266 c 0,82,83
 323 251 323 251 325 259 c 0,84,85
 328 266 328 266 328 266 c 257,86,87
 328 266 328 266 307 276 c 0,88,89
 287 287 287 287 287 287 c 1,90,91
 301 297 301 297 314 317 c 0,92,93
 328 337 328 337 328 348 c 0,94,95
 328 358 328 358 307 384 c 0,96,97
 287 410 287 410 287 430 c 1,62,63
EndSplineSet
EndChar

StartChar: p
Encoding: 112 112 59
Width: 491
GlyphClass: 1
Flags: W
LayerCount: 2
Fore
SplineSet
102 0 m 0,0,1
 56 0 56 0 61 0 c 0,2,3
 67 0 67 0 20 0 c 1,4,5
 20 31 20 31 20 92 c 0,6,7
 20 154 20 154 20 225 c 1,8,9
 54 225 54 225 53 225 c 0,10,11
 51 225 51 225 82 225 c 1,12,13
 82 247 82 247 90 267 c 0,14,15
 99 286 99 286 111 304 c 0,16,17
 134 337 134 337 159 363 c 0,18,19
 184 390 184 390 184 410 c 256,20,21
 184 430 184 430 181 458 c 0,22,23
 178 487 178 487 186 508 c 0,24,25
 191 519 191 519 200 526 c 0,26,27
 209 532 209 532 225 532 c 1,28,29
 225 563 225 563 248 576 c 0,30,31
 259 582 259 582 268 582 c 0,32,33
 278 582 278 582 287 573 c 0,34,35
 308 552 308 552 331 529 c 256,36,37
 354 506 354 506 375 484 c 0,38,39
 415 444 415 444 443 411 c 0,40,41
 471 379 471 379 471 369 c 0,42,43
 471 353 471 353 471 302 c 256,44,45
 471 251 471 251 471 205 c 0,46,47
 471 195 471 195 453 173 c 0,48,49
 434 150 434 150 414 128 c 0,50,51
 399 113 399 113 387 100 c 0,52,53
 375 88 375 88 369 82 c 0,54,55
 359 73 359 73 310 55 c 0,56,57
 260 38 260 38 208 23 c 0,58,59
 173 13 173 13 144 7 c 0,60,61
 115 0 115 0 102 0 c 0,0,1
287 430 m 1,62,63
 307 410 307 410 330 389 c 0,64,65
 353 369 353 369 353 348 c 0,66,67
 353 328 353 328 361 328 c 256,68,69
 369 328 369 328 369 348 c 0,70,71
 369 367 369 367 338 399 c 0,72,73
 307 430 307 430 266 471 c 1,74,75
 266 369 266 369 260 328 c 256,76,77
 254 287 254 287 266 287 c 1,78,79
 266 287 266 287 284 277 c 0,80,81
 301 267 301 267 307 266 c 0,82,83
 323 251 323 251 325 259 c 0,84,85
 328 266 328 266 328 266 c 257,86,87
 328 266 328 266 307 276 c 0,88,89
 287 287 287 287 287 287 c 1,90,91
 301 297 301 297 314 317 c 0,92,93
 328 337 328 337 328 348 c 0,94,95
 328 358 328 358 307 384 c 0,96,97
 287 410 287 410 287 430 c 1,62,63
EndSplineSet
EndChar

StartChar: q
Encoding: 113 113 60
Width: 491
GlyphClass: 1
Flags: W
LayerCount: 2
Fore
SplineSet
102 0 m 0,0,1
 56 0 56 0 61 0 c 0,2,3
 67 0 67 0 20 0 c 1,4,5
 20 31 20 31 20 92 c 0,6,7
 20 154 20 154 20 225 c 1,8,9
 54 225 54 225 53 225 c 0,10,11
 51 225 51 225 82 225 c 1,12,13
 82 247 82 247 90 267 c 0,14,15
 99 286 99 286 111 304 c 0,16,17
 134 337 134 337 159 363 c 0,18,19
 184 390 184 390 184 410 c 256,20,21
 184 430 184 430 181 458 c 0,22,23
 178 487 178 487 186 508 c 0,24,25
 191 519 191 519 200 526 c 0,26,27
 209 532 209 532 225 532 c 1,28,29
 225 563 225 563 248 576 c 0,30,31
 259 582 259 582 268 582 c 0,32,33
 278 582 278 582 287 573 c 0,34,35
 308 552 308 552 331 529 c 256,36,37
 354 506 354 506 375 484 c 0,38,39
 415 444 415 444 443 411 c 0,40,41
 471 379 471 379 471 369 c 0,42,43
 471 353 471 353 471 302 c 256,44,45
 471 251 471 251 471 205 c 0,46,47
 471 195 471 195 453 173 c 0,48,49
 434 150 434 150 414 128 c 0,50,51
 399 113 399 113 387 100 c 0,52,53
 375 88 375 88 369 82 c 0,54,55
 359 73 359 73 310 55 c 0,56,57
 260 38 260 38 208 23 c 0,58,59
 173 13 173 13 144 7 c 0,60,61
 115 0 115 0 102 0 c 0,0,1
287 430 m 1,62,63
 307 410 307 410 330 389 c 0,64,65
 353 369 353 369 353 348 c 0,66,67
 353 328 353 328 361 328 c 256,68,69
 369 328 369 328 369 348 c 0,70,71
 369 367 369 367 338 399 c 0,72,73
 307 430 307 430 266 471 c 1,74,75
 266 369 266 369 260 328 c 256,76,77
 254 287 254 287 266 287 c 1,78,79
 266 287 266 287 284 277 c 0,80,81
 301 267 301 267 307 266 c 0,82,83
 323 251 323 251 325 259 c 0,84,85
 328 266 328 266 328 266 c 257,86,87
 328 266 328 266 307 276 c 0,88,89
 287 287 287 287 287 287 c 1,90,91
 301 297 301 297 314 317 c 0,92,93
 328 337 328 337 328 348 c 0,94,95
 328 358 328 358 307 384 c 0,96,97
 287 410 287 410 287 430 c 1,62,63
EndSplineSet
EndChar

StartChar: r
Encoding: 114 114 61
Width: 491
GlyphClass: 1
Flags: W
LayerCount: 2
Fore
SplineSet
102 0 m 0,0,1
 56 0 56 0 61 0 c 0,2,3
 67 0 67 0 20 0 c 1,4,5
 20 31 20 31 20 92 c 0,6,7
 20 154 20 154 20 225 c 1,8,9
 54 225 54 225 53 225 c 0,10,11
 51 225 51 225 82 225 c 1,12,13
 82 247 82 247 90 267 c 0,14,15
 99 286 99 286 111 304 c 0,16,17
 134 337 134 337 159 363 c 0,18,19
 184 390 184 390 184 410 c 256,20,21
 184 430 184 430 181 458 c 0,22,23
 178 487 178 487 186 508 c 0,24,25
 191 519 191 519 200 526 c 0,26,27
 209 532 209 532 225 532 c 1,28,29
 225 563 225 563 248 576 c 0,30,31
 259 582 259 582 268 582 c 0,32,33
 278 582 278 582 287 573 c 0,34,35
 308 552 308 552 331 529 c 256,36,37
 354 506 354 506 375 484 c 0,38,39
 415 444 415 444 443 411 c 0,40,41
 471 379 471 379 471 369 c 0,42,43
 471 353 471 353 471 302 c 256,44,45
 471 251 471 251 471 205 c 0,46,47
 471 195 471 195 453 173 c 0,48,49
 434 150 434 150 414 128 c 0,50,51
 399 113 399 113 387 100 c 0,52,53
 375 88 375 88 369 82 c 0,54,55
 359 73 359 73 310 55 c 0,56,57
 260 38 260 38 208 23 c 0,58,59
 173 13 173 13 144 7 c 0,60,61
 115 0 115 0 102 0 c 0,0,1
287 430 m 1,62,63
 307 410 307 410 330 389 c 0,64,65
 353 369 353 369 353 348 c 0,66,67
 353 328 353 328 361 328 c 256,68,69
 369 328 369 328 369 348 c 0,70,71
 369 367 369 367 338 399 c 0,72,73
 307 430 307 430 266 471 c 1,74,75
 266 369 266 369 260 328 c 256,76,77
 254 287 254 287 266 287 c 1,78,79
 266 287 266 287 284 277 c 0,80,81
 301 267 301 267 307 266 c 0,82,83
 323 251 323 251 325 259 c 0,84,85
 328 266 328 266 328 266 c 257,86,87
 328 266 328 266 307 276 c 0,88,89
 287 287 287 287 287 287 c 1,90,91
 301 297 301 297 314 317 c 0,92,93
 328 337 328 337 328 348 c 0,94,95
 328 358 328 358 307 384 c 0,96,97
 287 410 287 410 287 430 c 1,62,63
EndSplineSet
EndChar

StartChar: s
Encoding: 115 115 62
Width: 491
GlyphClass: 1
Flags: W
LayerCount: 2
Fore
SplineSet
102 0 m 0,0,1
 56 0 56 0 61 0 c 0,2,3
 67 0 67 0 20 0 c 1,4,5
 20 31 20 31 20 92 c 0,6,7
 20 154 20 154 20 225 c 1,8,9
 54 225 54 225 53 225 c 0,10,11
 51 225 51 225 82 225 c 1,12,13
 82 247 82 247 90 267 c 0,14,15
 99 286 99 286 111 304 c 0,16,17
 134 337 134 337 159 363 c 0,18,19
 184 390 184 390 184 410 c 256,20,21
 184 430 184 430 181 458 c 0,22,23
 178 487 178 487 186 508 c 0,24,25
 191 519 191 519 200 526 c 0,26,27
 209 532 209 532 225 532 c 1,28,29
 225 563 225 563 248 576 c 0,30,31
 259 582 259 582 268 582 c 0,32,33
 278 582 278 582 287 573 c 0,34,35
 308 552 308 552 331 529 c 256,36,37
 354 506 354 506 375 484 c 0,38,39
 415 444 415 444 443 411 c 0,40,41
 471 379 471 379 471 369 c 0,42,43
 471 353 471 353 471 302 c 256,44,45
 471 251 471 251 471 205 c 0,46,47
 471 195 471 195 453 173 c 0,48,49
 434 150 434 150 414 128 c 0,50,51
 399 113 399 113 387 100 c 0,52,53
 375 88 375 88 369 82 c 0,54,55
 359 73 359 73 310 55 c 0,56,57
 260 38 260 38 208 23 c 0,58,59
 173 13 173 13 144 7 c 0,60,61
 115 0 115 0 102 0 c 0,0,1
287 430 m 1,62,63
 307 410 307 410 330 389 c 0,64,65
 353 369 353 369 353 348 c 0,66,67
 353 328 353 328 361 328 c 256,68,69
 369 328 369 328 369 348 c 0,70,71
 369 367 369 367 338 399 c 0,72,73
 307 430 307 430 266 471 c 1,74,75
 266 369 266 369 260 328 c 256,76,77
 254 287 254 287 266 287 c 1,78,79
 266 287 266 287 284 277 c 0,80,81
 301 267 301 267 307 266 c 0,82,83
 323 251 323 251 325 259 c 0,84,85
 328 266 328 266 328 266 c 257,86,87
 328 266 328 266 307 276 c 0,88,89
 287 287 287 287 287 287 c 1,90,91
 301 297 301 297 314 317 c 0,92,93
 328 337 328 337 328 348 c 0,94,95
 328 358 328 358 307 384 c 0,96,97
 287 410 287 410 287 430 c 1,62,63
EndSplineSet
EndChar

StartChar: t
Encoding: 116 116 63
Width: 491
GlyphClass: 1
Flags: W
LayerCount: 2
Fore
SplineSet
102 0 m 0,0,1
 56 0 56 0 61 0 c 0,2,3
 67 0 67 0 20 0 c 1,4,5
 20 31 20 31 20 92 c 0,6,7
 20 154 20 154 20 225 c 1,8,9
 54 225 54 225 53 225 c 0,10,11
 51 225 51 225 82 225 c 1,12,13
 82 247 82 247 90 267 c 0,14,15
 99 286 99 286 111 304 c 0,16,17
 134 337 134 337 159 363 c 0,18,19
 184 390 184 390 184 410 c 256,20,21
 184 430 184 430 181 458 c 0,22,23
 178 487 178 487 186 508 c 0,24,25
 191 519 191 519 200 526 c 0,26,27
 209 532 209 532 225 532 c 1,28,29
 225 563 225 563 248 576 c 0,30,31
 259 582 259 582 268 582 c 0,32,33
 278 582 278 582 287 573 c 0,34,35
 308 552 308 552 331 529 c 256,36,37
 354 506 354 506 375 484 c 0,38,39
 415 444 415 444 443 411 c 0,40,41
 471 379 471 379 471 369 c 0,42,43
 471 353 471 353 471 302 c 256,44,45
 471 251 471 251 471 205 c 0,46,47
 471 195 471 195 453 173 c 0,48,49
 434 150 434 150 414 128 c 0,50,51
 399 113 399 113 387 100 c 0,52,53
 375 88 375 88 369 82 c 0,54,55
 359 73 359 73 310 55 c 0,56,57
 260 38 260 38 208 23 c 0,58,59
 173 13 173 13 144 7 c 0,60,61
 115 0 115 0 102 0 c 0,0,1
287 430 m 1,62,63
 307 410 307 410 330 389 c 0,64,65
 353 369 353 369 353 348 c 0,66,67
 353 328 353 328 361 328 c 256,68,69
 369 328 369 328 369 348 c 0,70,71
 369 367 369 367 338 399 c 0,72,73
 307 430 307 430 266 471 c 1,74,75
 266 369 266 369 260 328 c 256,76,77
 254 287 254 287 266 287 c 1,78,79
 266 287 266 287 284 277 c 0,80,81
 301 267 301 267 307 266 c 0,82,83
 323 251 323 251 325 259 c 0,84,85
 328 266 328 266 328 266 c 257,86,87
 328 266 328 266 307 276 c 0,88,89
 287 287 287 287 287 287 c 1,90,91
 301 297 301 297 314 317 c 0,92,93
 328 337 328 337 328 348 c 0,94,95
 328 358 328 358 307 384 c 0,96,97
 287 410 287 410 287 430 c 1,62,63
EndSplineSet
EndChar

StartChar: u
Encoding: 117 117 64
Width: 491
GlyphClass: 1
Flags: W
LayerCount: 2
Fore
SplineSet
102 0 m 0,0,1
 56 0 56 0 61 0 c 0,2,3
 67 0 67 0 20 0 c 1,4,5
 20 31 20 31 20 92 c 0,6,7
 20 154 20 154 20 225 c 1,8,9
 54 225 54 225 53 225 c 0,10,11
 51 225 51 225 82 225 c 1,12,13
 82 247 82 247 90 267 c 0,14,15
 99 286 99 286 111 304 c 0,16,17
 134 337 134 337 159 363 c 0,18,19
 184 390 184 390 184 410 c 256,20,21
 184 430 184 430 181 458 c 0,22,23
 178 487 178 487 186 508 c 0,24,25
 191 519 191 519 200 526 c 0,26,27
 209 532 209 532 225 532 c 1,28,29
 225 563 225 563 248 576 c 0,30,31
 259 582 259 582 268 582 c 0,32,33
 278 582 278 582 287 573 c 0,34,35
 308 552 308 552 331 529 c 256,36,37
 354 506 354 506 375 484 c 0,38,39
 415 444 415 444 443 411 c 0,40,41
 471 379 471 379 471 369 c 0,42,43
 471 353 471 353 471 302 c 256,44,45
 471 251 471 251 471 205 c 0,46,47
 471 195 471 195 453 173 c 0,48,49
 434 150 434 150 414 128 c 0,50,51
 399 113 399 113 387 100 c 0,52,53
 375 88 375 88 369 82 c 0,54,55
 359 73 359 73 310 55 c 0,56,57
 260 38 260 38 208 23 c 0,58,59
 173 13 173 13 144 7 c 0,60,61
 115 0 115 0 102 0 c 0,0,1
287 430 m 1,62,63
 307 410 307 410 330 389 c 0,64,65
 353 369 353 369 353 348 c 0,66,67
 353 328 353 328 361 328 c 256,68,69
 369 328 369 328 369 348 c 0,70,71
 369 367 369 367 338 399 c 0,72,73
 307 430 307 430 266 471 c 1,74,75
 266 369 266 369 260 328 c 256,76,77
 254 287 254 287 266 287 c 1,78,79
 266 287 266 287 284 277 c 0,80,81
 301 267 301 267 307 266 c 0,82,83
 323 251 323 251 325 259 c 0,84,85
 328 266 328 266 328 266 c 257,86,87
 328 266 328 266 307 276 c 0,88,89
 287 287 287 287 287 287 c 1,90,91
 301 297 301 297 314 317 c 0,92,93
 328 337 328 337 328 348 c 0,94,95
 328 358 328 358 307 384 c 0,96,97
 287 410 287 410 287 430 c 1,62,63
EndSplineSet
EndChar

StartChar: v
Encoding: 118 118 65
Width: 491
GlyphClass: 1
Flags: W
LayerCount: 2
Fore
SplineSet
102 0 m 0,0,1
 56 0 56 0 61 0 c 0,2,3
 67 0 67 0 20 0 c 1,4,5
 20 31 20 31 20 92 c 0,6,7
 20 154 20 154 20 225 c 1,8,9
 54 225 54 225 53 225 c 0,10,11
 51 225 51 225 82 225 c 1,12,13
 82 247 82 247 90 267 c 0,14,15
 99 286 99 286 111 304 c 0,16,17
 134 337 134 337 159 363 c 0,18,19
 184 390 184 390 184 410 c 256,20,21
 184 430 184 430 181 458 c 0,22,23
 178 487 178 487 186 508 c 0,24,25
 191 519 191 519 200 526 c 0,26,27
 209 532 209 532 225 532 c 1,28,29
 225 563 225 563 248 576 c 0,30,31
 259 582 259 582 268 582 c 0,32,33
 278 582 278 582 287 573 c 0,34,35
 308 552 308 552 331 529 c 256,36,37
 354 506 354 506 375 484 c 0,38,39
 415 444 415 444 443 411 c 0,40,41
 471 379 471 379 471 369 c 0,42,43
 471 353 471 353 471 302 c 256,44,45
 471 251 471 251 471 205 c 0,46,47
 471 195 471 195 453 173 c 0,48,49
 434 150 434 150 414 128 c 0,50,51
 399 113 399 113 387 100 c 0,52,53
 375 88 375 88 369 82 c 0,54,55
 359 73 359 73 310 55 c 0,56,57
 260 38 260 38 208 23 c 0,58,59
 173 13 173 13 144 7 c 0,60,61
 115 0 115 0 102 0 c 0,0,1
287 430 m 1,62,63
 307 410 307 410 330 389 c 0,64,65
 353 369 353 369 353 348 c 0,66,67
 353 328 353 328 361 328 c 256,68,69
 369 328 369 328 369 348 c 0,70,71
 369 367 369 367 338 399 c 0,72,73
 307 430 307 430 266 471 c 1,74,75
 266 369 266 369 260 328 c 256,76,77
 254 287 254 287 266 287 c 1,78,79
 266 287 266 287 284 277 c 0,80,81
 301 267 301 267 307 266 c 0,82,83
 323 251 323 251 325 259 c 0,84,85
 328 266 328 266 328 266 c 257,86,87
 328 266 328 266 307 276 c 0,88,89
 287 287 287 287 287 287 c 1,90,91
 301 297 301 297 314 317 c 0,92,93
 328 337 328 337 328 348 c 0,94,95
 328 358 328 358 307 384 c 0,96,97
 287 410 287 410 287 430 c 1,62,63
EndSplineSet
EndChar

StartChar: w
Encoding: 119 119 66
Width: 491
GlyphClass: 1
Flags: W
LayerCount: 2
Fore
SplineSet
102 0 m 0,0,1
 56 0 56 0 61 0 c 0,2,3
 67 0 67 0 20 0 c 1,4,5
 20 31 20 31 20 92 c 0,6,7
 20 154 20 154 20 225 c 1,8,9
 54 225 54 225 53 225 c 0,10,11
 51 225 51 225 82 225 c 1,12,13
 82 247 82 247 90 267 c 0,14,15
 99 286 99 286 111 304 c 0,16,17
 134 337 134 337 159 363 c 0,18,19
 184 390 184 390 184 410 c 256,20,21
 184 430 184 430 181 458 c 0,22,23
 178 487 178 487 186 508 c 0,24,25
 191 519 191 519 200 526 c 0,26,27
 209 532 209 532 225 532 c 1,28,29
 225 563 225 563 248 576 c 0,30,31
 259 582 259 582 268 582 c 0,32,33
 278 582 278 582 287 573 c 0,34,35
 308 552 308 552 331 529 c 256,36,37
 354 506 354 506 375 484 c 0,38,39
 415 444 415 444 443 411 c 0,40,41
 471 379 471 379 471 369 c 0,42,43
 471 353 471 353 471 302 c 256,44,45
 471 251 471 251 471 205 c 0,46,47
 471 195 471 195 453 173 c 0,48,49
 434 150 434 150 414 128 c 0,50,51
 399 113 399 113 387 100 c 0,52,53
 375 88 375 88 369 82 c 0,54,55
 359 73 359 73 310 55 c 0,56,57
 260 38 260 38 208 23 c 0,58,59
 173 13 173 13 144 7 c 0,60,61
 115 0 115 0 102 0 c 0,0,1
287 430 m 1,62,63
 307 410 307 410 330 389 c 0,64,65
 353 369 353 369 353 348 c 0,66,67
 353 328 353 328 361 328 c 256,68,69
 369 328 369 328 369 348 c 0,70,71
 369 367 369 367 338 399 c 0,72,73
 307 430 307 430 266 471 c 1,74,75
 266 369 266 369 260 328 c 256,76,77
 254 287 254 287 266 287 c 1,78,79
 266 287 266 287 284 277 c 0,80,81
 301 267 301 267 307 266 c 0,82,83
 323 251 323 251 325 259 c 0,84,85
 328 266 328 266 328 266 c 257,86,87
 328 266 328 266 307 276 c 0,88,89
 287 287 287 287 287 287 c 1,90,91
 301 297 301 297 314 317 c 0,92,93
 328 337 328 337 328 348 c 0,94,95
 328 358 328 358 307 384 c 0,96,97
 287 410 287 410 287 430 c 1,62,63
EndSplineSet
EndChar

StartChar: x
Encoding: 120 120 67
Width: 491
GlyphClass: 1
Flags: W
LayerCount: 2
Fore
SplineSet
102 0 m 0,0,1
 56 0 56 0 61 0 c 0,2,3
 67 0 67 0 20 0 c 1,4,5
 20 31 20 31 20 92 c 0,6,7
 20 154 20 154 20 225 c 1,8,9
 54 225 54 225 53 225 c 0,10,11
 51 225 51 225 82 225 c 1,12,13
 82 247 82 247 90 267 c 0,14,15
 99 286 99 286 111 304 c 0,16,17
 134 337 134 337 159 363 c 0,18,19
 184 390 184 390 184 410 c 256,20,21
 184 430 184 430 181 458 c 0,22,23
 178 487 178 487 186 508 c 0,24,25
 191 519 191 519 200 526 c 0,26,27
 209 532 209 532 225 532 c 1,28,29
 225 563 225 563 248 576 c 0,30,31
 259 582 259 582 268 582 c 0,32,33
 278 582 278 582 287 573 c 0,34,35
 308 552 308 552 331 529 c 256,36,37
 354 506 354 506 375 484 c 0,38,39
 415 444 415 444 443 411 c 0,40,41
 471 379 471 379 471 369 c 0,42,43
 471 353 471 353 471 302 c 256,44,45
 471 251 471 251 471 205 c 0,46,47
 471 195 471 195 453 173 c 0,48,49
 434 150 434 150 414 128 c 0,50,51
 399 113 399 113 387 100 c 0,52,53
 375 88 375 88 369 82 c 0,54,55
 359 73 359 73 310 55 c 0,56,57
 260 38 260 38 208 23 c 0,58,59
 173 13 173 13 144 7 c 0,60,61
 115 0 115 0 102 0 c 0,0,1
287 430 m 1,62,63
 307 410 307 410 330 389 c 0,64,65
 353 369 353 369 353 348 c 0,66,67
 353 328 353 328 361 328 c 256,68,69
 369 328 369 328 369 348 c 0,70,71
 369 367 369 367 338 399 c 0,72,73
 307 430 307 430 266 471 c 1,74,75
 266 369 266 369 260 328 c 256,76,77
 254 287 254 287 266 287 c 1,78,79
 266 287 266 287 284 277 c 0,80,81
 301 267 301 267 307 266 c 0,82,83
 323 251 323 251 325 259 c 0,84,85
 328 266 328 266 328 266 c 257,86,87
 328 266 328 266 307 276 c 0,88,89
 287 287 287 287 287 287 c 1,90,91
 301 297 301 297 314 317 c 0,92,93
 328 337 328 337 328 348 c 0,94,95
 328 358 328 358 307 384 c 0,96,97
 287 410 287 410 287 430 c 1,62,63
EndSplineSet
EndChar

StartChar: y
Encoding: 121 121 68
Width: 491
GlyphClass: 1
Flags: W
LayerCount: 2
Fore
SplineSet
102 0 m 0,0,1
 56 0 56 0 61 0 c 0,2,3
 67 0 67 0 20 0 c 1,4,5
 20 31 20 31 20 92 c 0,6,7
 20 154 20 154 20 225 c 1,8,9
 54 225 54 225 53 225 c 0,10,11
 51 225 51 225 82 225 c 1,12,13
 82 247 82 247 90 267 c 0,14,15
 99 286 99 286 111 304 c 0,16,17
 134 337 134 337 159 363 c 0,18,19
 184 390 184 390 184 410 c 256,20,21
 184 430 184 430 181 458 c 0,22,23
 178 487 178 487 186 508 c 0,24,25
 191 519 191 519 200 526 c 0,26,27
 209 532 209 532 225 532 c 1,28,29
 225 563 225 563 248 576 c 0,30,31
 259 582 259 582 268 582 c 0,32,33
 278 582 278 582 287 573 c 0,34,35
 308 552 308 552 331 529 c 256,36,37
 354 506 354 506 375 484 c 0,38,39
 415 444 415 444 443 411 c 0,40,41
 471 379 471 379 471 369 c 0,42,43
 471 353 471 353 471 302 c 256,44,45
 471 251 471 251 471 205 c 0,46,47
 471 195 471 195 453 173 c 0,48,49
 434 150 434 150 414 128 c 0,50,51
 399 113 399 113 387 100 c 0,52,53
 375 88 375 88 369 82 c 0,54,55
 359 73 359 73 310 55 c 0,56,57
 260 38 260 38 208 23 c 0,58,59
 173 13 173 13 144 7 c 0,60,61
 115 0 115 0 102 0 c 0,0,1
287 430 m 1,62,63
 307 410 307 410 330 389 c 0,64,65
 353 369 353 369 353 348 c 0,66,67
 353 328 353 328 361 328 c 256,68,69
 369 328 369 328 369 348 c 0,70,71
 369 367 369 367 338 399 c 0,72,73
 307 430 307 430 266 471 c 1,74,75
 266 369 266 369 260 328 c 256,76,77
 254 287 254 287 266 287 c 1,78,79
 266 287 266 287 284 277 c 0,80,81
 301 267 301 267 307 266 c 0,82,83
 323 251 323 251 325 259 c 0,84,85
 328 266 328 266 328 266 c 257,86,87
 328 266 328 266 307 276 c 0,88,89
 287 287 287 287 287 287 c 1,90,91
 301 297 301 297 314 317 c 0,92,93
 328 337 328 337 328 348 c 0,94,95
 328 358 328 358 307 384 c 0,96,97
 287 410 287 410 287 430 c 1,62,63
EndSplineSet
EndChar

StartChar: z
Encoding: 122 122 69
Width: 491
GlyphClass: 1
Flags: W
LayerCount: 2
Fore
SplineSet
102 0 m 0,0,1
 56 0 56 0 61 0 c 0,2,3
 67 0 67 0 20 0 c 1,4,5
 20 31 20 31 20 92 c 0,6,7
 20 154 20 154 20 225 c 1,8,9
 54 225 54 225 53 225 c 0,10,11
 51 225 51 225 82 225 c 1,12,13
 82 247 82 247 90 267 c 0,14,15
 99 286 99 286 111 304 c 0,16,17
 134 337 134 337 159 363 c 0,18,19
 184 390 184 390 184 410 c 256,20,21
 184 430 184 430 181 458 c 0,22,23
 178 487 178 487 186 508 c 0,24,25
 191 519 191 519 200 526 c 0,26,27
 209 532 209 532 225 532 c 1,28,29
 225 563 225 563 248 576 c 0,30,31
 259 582 259 582 268 582 c 0,32,33
 278 582 278 582 287 573 c 0,34,35
 308 552 308 552 331 529 c 256,36,37
 354 506 354 506 375 484 c 0,38,39
 415 444 415 444 443 411 c 0,40,41
 471 379 471 379 471 369 c 0,42,43
 471 353 471 353 471 302 c 256,44,45
 471 251 471 251 471 205 c 0,46,47
 471 195 471 195 453 173 c 0,48,49
 434 150 434 150 414 128 c 0,50,51
 399 113 399 113 387 100 c 0,52,53
 375 88 375 88 369 82 c 0,54,55
 359 73 359 73 310 55 c 0,56,57
 260 38 260 38 208 23 c 0,58,59
 173 13 173 13 144 7 c 0,60,61
 115 0 115 0 102 0 c 0,0,1
287 430 m 1,62,63
 307 410 307 410 330 389 c 0,64,65
 353 369 353 369 353 348 c 0,66,67
 353 328 353 328 361 328 c 256,68,69
 369 328 369 328 369 348 c 0,70,71
 369 367 369 367 338 399 c 0,72,73
 307 430 307 430 266 471 c 1,74,75
 266 369 266 369 260 328 c 256,76,77
 254 287 254 287 266 287 c 1,78,79
 266 287 266 287 284 277 c 0,80,81
 301 267 301 267 307 266 c 0,82,83
 323 251 323 251 325 259 c 0,84,85
 328 266 328 266 328 266 c 257,86,87
 328 266 328 266 307 276 c 0,88,89
 287 287 287 287 287 287 c 1,90,91
 301 297 301 297 314 317 c 0,92,93
 328 337 328 337 328 348 c 0,94,95
 328 358 328 358 307 384 c 0,96,97
 287 410 287 410 287 430 c 1,62,63
EndSplineSet
EndChar

StartChar: dieresis
Encoding: 168 168 70
Width: 246
GlyphClass: 1
Flags: W
LayerCount: 2
Fore
SplineSet
61 676 m 0,0,1
 92 676 92 676 97 655 c 0,2,3
 102 635 102 635 102 635 c 257,4,5
 102 635 102 635 97 614 c 0,6,7
 92 594 92 594 61 594 c 0,8,9
 31 594 31 594 26 614 c 0,10,11
 20 635 20 635 20 635 c 257,12,13
 20 635 20 635 26 655 c 0,14,15
 31 676 31 676 61 676 c 0,0,1
184 676 m 0,16,17
 215 676 215 676 220 655 c 0,18,19
 225 635 225 635 225 635 c 257,20,21
 225 635 225 635 220 614 c 0,22,23
 215 594 215 594 184 594 c 0,24,25
 154 594 154 594 148 614 c 0,26,27
 143 635 143 635 143 635 c 257,28,29
 143 635 143 635 148 655 c 0,30,31
 154 676 154 676 184 676 c 0,16,17
EndSplineSet
EndChar

StartChar: Ecircumflex
Encoding: 202 202 71
Width: 656
GlyphClass: 1
Flags: W
LayerCount: 2
Fore
SplineSet
123 348 m 1,0,1
 157 314 157 314 225 246 c 1,2,3
 205 246 205 246 164 246 c 1,4,5
 164 246 164 246 148 261 c 0,6,7
 133 276 133 276 123 287 c 1,8,9
 109 273 109 273 82 246 c 1,10,11
 61 246 61 246 20 246 c 1,12,13
 55 280 55 280 123 348 c 1,0,1
266 0 m 0,14,15
 236 0 236 0 191 0 c 256,16,17
 146 0 146 0 102 0 c 0,18,19
 79 0 79 0 58 0 c 256,20,21
 37 0 37 0 20 0 c 1,22,23
 20 31 20 31 20 92 c 0,24,25
 20 154 20 154 20 225 c 1,26,27
 32 225 32 225 52 225 c 0,28,29
 71 225 71 225 94 225 c 0,30,31
 137 225 137 225 181 225 c 0,32,33
 226 225 226 225 246 225 c 1,34,35
 246 247 246 247 254 267 c 0,36,37
 262 286 262 286 275 304 c 0,38,39
 297 337 297 337 323 363 c 0,40,41
 348 390 348 390 348 410 c 256,42,43
 348 430 348 430 345 458 c 0,44,45
 342 487 342 487 350 508 c 0,46,47
 355 519 355 519 364 526 c 0,48,49
 373 532 373 532 389 532 c 1,50,51
 389 563 389 563 412 576 c 0,52,53
 423 582 423 582 432 582 c 0,54,55
 442 582 442 582 451 573 c 0,56,57
 472 552 472 552 495 529 c 0,58,59
 517 506 517 506 539 484 c 0,60,61
 578 444 578 444 607 411 c 0,62,63
 635 379 635 379 635 369 c 0,64,65
 635 353 635 353 635 302 c 256,66,67
 635 251 635 251 635 205 c 0,68,69
 635 195 635 195 617 173 c 0,70,71
 598 150 598 150 577 128 c 0,72,73
 563 113 563 113 551 100 c 0,74,75
 539 88 539 88 532 82 c 0,76,77
 523 73 523 73 474 55 c 0,78,79
 424 38 424 38 372 23 c 0,80,81
 337 13 337 13 308 7 c 0,82,83
 279 0 279 0 266 0 c 0,14,15
451 430 m 1,84,85
 471 410 471 410 494 389 c 0,86,87
 517 369 517 369 517 348 c 0,88,89
 517 328 517 328 525 328 c 0,90,91
 532 328 532 328 532 348 c 0,92,93
 532 367 532 367 502 399 c 0,94,95
 471 430 471 430 430 471 c 1,96,97
 430 369 430 369 424 328 c 256,98,99
 418 287 418 287 430 287 c 1,100,101
 430 287 430 287 447 277 c 0,102,103
 465 267 465 267 471 266 c 0,104,105
 486 251 486 251 489 259 c 0,106,107
 492 266 492 266 492 266 c 257,108,109
 492 266 492 266 471 276 c 0,110,111
 451 287 451 287 451 287 c 1,112,113
 465 297 465 297 478 317 c 0,114,115
 492 337 492 337 492 348 c 0,116,117
 492 358 492 358 471 384 c 0,118,119
 451 410 451 410 451 430 c 1,84,85
EndSplineSet
EndChar

StartChar: Udieresis
Encoding: 220 220 72
Width: 655
GlyphClass: 1
Flags: W
LayerCount: 2
Fore
SplineSet
184 328 m 0,0,1
 215 328 215 328 220 307 c 0,2,3
 225 287 225 287 225 287 c 257,4,5
 225 287 225 287 220 266 c 0,6,7
 215 246 215 246 184 246 c 0,8,9
 154 246 154 246 148 266 c 0,10,11
 143 287 143 287 143 287 c 257,12,13
 143 287 143 287 148 307 c 0,14,15
 154 328 154 328 184 328 c 0,0,1
61 328 m 0,16,17
 92 328 92 328 97 307 c 0,18,19
 102 287 102 287 102 287 c 257,20,21
 102 287 102 287 97 266 c 0,22,23
 92 246 92 246 61 246 c 0,24,25
 31 246 31 246 26 266 c 0,26,27
 20 287 20 287 20 287 c 257,28,29
 20 287 20 287 26 307 c 0,30,31
 31 328 31 328 61 328 c 0,16,17
451 430 m 1,32,33
 471 410 471 410 494 389 c 0,34,35
 517 369 517 369 517 348 c 0,36,37
 517 328 517 328 525 328 c 0,38,39
 532 328 532 328 532 348 c 0,40,41
 532 367 532 367 502 399 c 0,42,43
 471 430 471 430 430 471 c 1,44,45
 430 369 430 369 424 328 c 256,46,47
 418 287 418 287 430 287 c 1,48,49
 430 287 430 287 447 277 c 0,50,51
 465 267 465 267 471 266 c 0,52,53
 486 251 486 251 489 259 c 0,54,55
 492 266 492 266 492 266 c 257,56,57
 492 266 492 266 471 276 c 0,58,59
 451 287 451 287 451 287 c 1,60,61
 465 297 465 297 478 317 c 0,62,63
 492 337 492 337 492 348 c 0,64,65
 492 358 492 358 471 384 c 0,66,67
 451 410 451 410 451 430 c 1,32,33
266 0 m 0,68,69
 236 0 236 0 191 0 c 256,70,71
 146 0 146 0 102 0 c 0,72,73
 79 0 79 0 58 0 c 256,74,75
 37 0 37 0 20 0 c 1,76,77
 20 31 20 31 20 92 c 0,78,79
 20 154 20 154 20 225 c 1,80,81
 32 225 32 225 52 225 c 0,82,83
 71 225 71 225 94 225 c 0,84,85
 137 225 137 225 181 225 c 0,86,87
 226 225 226 225 246 225 c 1,88,89
 246 247 246 247 254 267 c 0,90,91
 262 286 262 286 275 304 c 0,92,93
 297 337 297 337 323 363 c 0,94,95
 348 390 348 390 348 410 c 256,96,97
 348 430 348 430 345 458 c 0,98,99
 342 487 342 487 350 508 c 0,100,101
 355 519 355 519 364 526 c 0,102,103
 373 532 373 532 389 532 c 1,104,105
 389 563 389 563 412 576 c 0,106,107
 423 582 423 582 432 582 c 0,108,109
 442 582 442 582 451 573 c 0,110,111
 472 552 472 552 495 529 c 0,112,113
 517 506 517 506 539 484 c 0,114,115
 578 444 578 444 607 411 c 0,116,117
 635 379 635 379 635 369 c 0,118,119
 635 353 635 353 635 302 c 256,120,121
 635 251 635 251 635 205 c 0,122,123
 635 195 635 195 617 173 c 0,124,125
 598 150 598 150 577 128 c 0,126,127
 563 113 563 113 551 100 c 0,128,129
 539 88 539 88 532 82 c 0,130,131
 523 73 523 73 474 55 c 0,132,133
 424 38 424 38 372 23 c 0,134,135
 337 13 337 13 308 7 c 0,136,137
 279 0 279 0 266 0 c 0,68,69
EndSplineSet
EndChar

StartChar: ecircumflex
Encoding: 234 234 73
Width: 635
GlyphClass: 1
Flags: W
LayerCount: 2
Fore
SplineSet
102 553 m 0,0,1
 116 553 116 553 143 553 c 0,2,3
 159 553 159 553 174 522 c 0,4,5
 189 492 189 492 205 492 c 0,6,7
 220 492 220 492 236 522 c 0,8,9
 251 553 251 553 266 553 c 1,10,11
 253 553 253 553 225 553 c 1,12,13
 225 553 225 553 256 584 c 0,14,15
 287 614 287 614 287 614 c 257,16,17
 287 614 287 614 310 591 c 256,18,19
 333 568 333 568 348 553 c 1,20,21
 335 553 335 553 307 553 c 0,22,23
 292 553 292 553 266 512 c 0,24,25
 241 471 241 471 225 471 c 0,26,27
 210 471 210 471 197 471 c 256,28,29
 184 471 184 471 184 471 c 2,30,31
 169 471 169 471 154 502 c 0,32,33
 138 532 138 532 123 532 c 256,34,35
 108 532 108 532 92 502 c 0,36,37
 77 471 77 471 61 471 c 0,38,39
 48 471 48 471 20 471 c 1,40,41
 36 471 36 471 61 512 c 0,42,43
 87 553 87 553 102 553 c 0,0,1
246 0 m 0,44,45
 200 0 200 0 133 0 c 0,46,47
 67 0 67 0 20 0 c 1,48,49
 20 31 20 31 20 92 c 0,50,51
 20 154 20 154 20 225 c 1,52,53
 32 225 32 225 50 225 c 256,54,55
 68 225 68 225 88 225 c 0,56,57
 126 225 126 225 166 225 c 0,58,59
 205 225 205 225 225 225 c 1,60,61
 225 247 225 247 234 267 c 0,62,63
 242 286 242 286 254 304 c 0,64,65
 277 337 277 337 302 363 c 0,66,67
 328 390 328 390 328 410 c 256,68,69
 328 430 328 430 325 458 c 0,70,71
 322 487 322 487 330 508 c 0,72,73
 334 519 334 519 343 526 c 0,74,75
 353 532 353 532 369 532 c 1,76,77
 369 563 369 563 392 576 c 256,78,79
 415 589 415 589 430 573 c 0,80,81
 452 552 452 552 474 529 c 0,82,83
 497 506 497 506 518 484 c 0,84,85
 558 444 558 444 586 411 c 0,86,87
 614 379 614 379 614 369 c 0,88,89
 614 353 614 353 614 302 c 256,90,91
 614 251 614 251 614 205 c 0,92,93
 614 195 614 195 596 173 c 0,94,95
 578 150 578 150 557 128 c 0,96,97
 543 113 543 113 530 100 c 0,98,99
 518 88 518 88 512 82 c 0,100,101
 503 73 503 73 453 55 c 0,102,103
 404 38 404 38 351 23 c 0,104,105
 316 13 316 13 287 7 c 0,106,107
 258 0 258 0 246 0 c 0,44,45
430 430 m 1,108,109
 451 410 451 410 474 389 c 0,110,111
 497 369 497 369 497 348 c 0,112,113
 497 328 497 328 504 328 c 0,114,115
 512 328 512 328 512 348 c 0,116,117
 512 367 512 367 481 399 c 0,118,119
 451 430 451 430 410 471 c 1,120,121
 410 369 410 369 403 328 c 0,122,123
 397 287 397 287 410 287 c 1,124,125
 410 287 410 287 427 277 c 256,126,127
 444 267 444 267 451 266 c 1,128,129
 466 251 466 251 468 259 c 0,130,131
 471 266 471 266 471 266 c 257,132,133
 471 266 471 266 451 276 c 0,134,135
 430 287 430 287 430 287 c 1,136,137
 444 297 444 297 458 317 c 0,138,139
 471 337 471 337 471 348 c 0,140,141
 471 358 471 358 451 384 c 0,142,143
 430 410 430 410 430 430 c 1,108,109
EndSplineSet
EndChar

StartChar: udieresis
Encoding: 252 252 74
Width: 656
GlyphClass: 1
Flags: W
LayerCount: 2
Fore
SplineSet
573 328 m 0,0,1
 573 314 573 314 573 287 c 0,2,3
 573 271 573 271 543 256 c 0,4,5
 512 241 512 241 512 225 c 0,6,7
 512 210 512 210 543 195 c 0,8,9
 573 179 573 179 573 164 c 1,10,11
 573 177 573 177 573 205 c 1,12,13
 573 205 573 205 604 174 c 256,14,15
 635 143 635 143 635 143 c 257,16,17
 635 143 635 143 612 120 c 256,18,19
 589 97 589 97 573 82 c 1,20,21
 573 96 573 96 573 123 c 0,22,23
 573 138 573 138 532 164 c 0,24,25
 492 189 492 189 492 205 c 0,26,27
 492 220 492 220 492 233 c 256,28,29
 492 246 492 246 492 246 c 2,30,31
 492 261 492 261 522 276 c 0,32,33
 553 292 553 292 553 307 c 0,34,35
 553 323 553 323 522 338 c 0,36,37
 492 353 492 353 492 369 c 0,38,39
 492 382 492 382 492 410 c 1,40,41
 492 394 492 394 532 369 c 0,42,43
 573 343 573 343 573 328 c 0,0,1
102 0 m 0,44,45
 56 0 56 0 61 0 c 0,46,47
 67 0 67 0 20 0 c 1,48,49
 20 31 20 31 20 92 c 0,50,51
 20 154 20 154 20 225 c 1,52,53
 54 225 54 225 53 225 c 0,54,55
 51 225 51 225 82 225 c 1,56,57
 82 247 82 247 90 267 c 0,58,59
 99 286 99 286 111 304 c 0,60,61
 134 337 134 337 159 363 c 0,62,63
 184 390 184 390 184 410 c 256,64,65
 184 430 184 430 181 458 c 0,66,67
 178 487 178 487 186 508 c 0,68,69
 191 519 191 519 200 526 c 0,70,71
 209 532 209 532 225 532 c 1,72,73
 225 563 225 563 248 576 c 0,74,75
 259 582 259 582 268 582 c 0,76,77
 278 582 278 582 287 573 c 0,78,79
 327 533 327 533 369 491 c 0,80,81
 411 448 411 448 439 416 c 0,82,83
 454 399 454 399 462 386 c 0,84,85
 471 374 471 374 471 369 c 0,86,87
 471 353 471 353 471 302 c 256,88,89
 471 251 471 251 471 205 c 0,90,91
 471 195 471 195 453 173 c 0,92,93
 434 150 434 150 414 128 c 0,94,95
 399 113 399 113 387 100 c 0,96,97
 375 88 375 88 369 82 c 0,98,99
 359 73 359 73 310 55 c 0,100,101
 260 38 260 38 208 23 c 0,102,103
 173 13 173 13 144 7 c 0,104,105
 115 0 115 0 102 0 c 0,44,45
287 430 m 1,106,107
 307 410 307 410 330 389 c 0,108,109
 353 369 353 369 353 348 c 0,110,111
 353 328 353 328 361 328 c 256,112,113
 369 328 369 328 369 348 c 0,114,115
 369 367 369 367 338 399 c 0,116,117
 307 430 307 430 266 471 c 1,118,119
 266 369 266 369 260 328 c 256,120,121
 254 287 254 287 266 287 c 1,122,123
 266 287 266 287 284 277 c 0,124,125
 301 267 301 267 307 266 c 0,126,127
 323 251 323 251 325 259 c 0,128,129
 328 266 328 266 328 266 c 257,130,131
 328 266 328 266 307 276 c 0,132,133
 287 287 287 287 287 287 c 1,134,135
 301 297 301 297 314 317 c 0,136,137
 328 337 328 337 328 348 c 0,138,139
 328 358 328 358 307 384 c 0,140,141
 287 410 287 410 287 430 c 1,106,107
EndSplineSet
EndChar

StartChar: uni0109
Encoding: 265 265 75
Width: 491
GlyphClass: 1
Flags: W
LayerCount: 2
Fore
SplineSet
102 0 m 0,0,1
 56 0 56 0 61 0 c 0,2,3
 67 0 67 0 20 0 c 1,4,5
 20 31 20 31 20 92 c 0,6,7
 20 154 20 154 20 225 c 1,8,9
 54 225 54 225 53 225 c 0,10,11
 51 225 51 225 82 225 c 1,12,13
 82 247 82 247 90 267 c 0,14,15
 99 286 99 286 111 304 c 0,16,17
 134 337 134 337 159 363 c 0,18,19
 184 390 184 390 184 410 c 256,20,21
 184 430 184 430 181 458 c 0,22,23
 178 487 178 487 186 508 c 0,24,25
 191 519 191 519 200 526 c 0,26,27
 209 532 209 532 225 532 c 1,28,29
 225 563 225 563 248 576 c 0,30,31
 259 582 259 582 268 582 c 0,32,33
 278 582 278 582 287 573 c 0,34,35
 308 552 308 552 331 529 c 256,36,37
 354 506 354 506 375 484 c 0,38,39
 415 444 415 444 443 411 c 0,40,41
 471 379 471 379 471 369 c 0,42,43
 471 353 471 353 471 302 c 256,44,45
 471 251 471 251 471 205 c 0,46,47
 471 195 471 195 453 173 c 0,48,49
 434 150 434 150 414 128 c 0,50,51
 399 113 399 113 387 100 c 0,52,53
 375 88 375 88 369 82 c 0,54,55
 359 73 359 73 310 55 c 0,56,57
 260 38 260 38 208 23 c 0,58,59
 173 13 173 13 144 7 c 0,60,61
 115 0 115 0 102 0 c 0,0,1
287 430 m 1,62,63
 307 410 307 410 330 389 c 0,64,65
 353 369 353 369 353 348 c 0,66,67
 353 328 353 328 361 328 c 256,68,69
 369 328 369 328 369 348 c 0,70,71
 369 367 369 367 338 399 c 0,72,73
 307 430 307 430 266 471 c 1,74,75
 266 369 266 369 260 328 c 256,76,77
 254 287 254 287 266 287 c 1,78,79
 266 287 266 287 284 277 c 0,80,81
 301 267 301 267 307 266 c 0,82,83
 323 251 323 251 325 259 c 0,84,85
 328 266 328 266 328 266 c 257,86,87
 328 266 328 266 307 276 c 0,88,89
 287 287 287 287 287 287 c 1,90,91
 301 297 301 297 314 317 c 0,92,93
 328 337 328 337 328 348 c 0,94,95
 328 358 328 358 307 384 c 0,96,97
 287 410 287 410 287 430 c 1,62,63
EndSplineSet
EndChar

StartChar: uni014b
Encoding: 331 331 76
Width: 491
GlyphClass: 1
Flags: W
LayerCount: 2
Fore
SplineSet
102 0 m 0,0,1
 56 0 56 0 61 0 c 0,2,3
 67 0 67 0 20 0 c 1,4,5
 20 31 20 31 20 92 c 0,6,7
 20 154 20 154 20 225 c 1,8,9
 54 225 54 225 53 225 c 0,10,11
 51 225 51 225 82 225 c 1,12,13
 82 247 82 247 90 267 c 0,14,15
 99 286 99 286 111 304 c 0,16,17
 134 337 134 337 159 363 c 0,18,19
 184 390 184 390 184 410 c 256,20,21
 184 430 184 430 181 458 c 0,22,23
 178 487 178 487 186 508 c 0,24,25
 191 519 191 519 200 526 c 0,26,27
 209 532 209 532 225 532 c 1,28,29
 225 563 225 563 248 576 c 0,30,31
 259 582 259 582 268 582 c 0,32,33
 278 582 278 582 287 573 c 0,34,35
 308 552 308 552 331 529 c 256,36,37
 354 506 354 506 375 484 c 0,38,39
 415 444 415 444 443 411 c 0,40,41
 471 379 471 379 471 369 c 0,42,43
 471 353 471 353 471 302 c 256,44,45
 471 251 471 251 471 205 c 0,46,47
 471 195 471 195 453 173 c 0,48,49
 434 150 434 150 414 128 c 0,50,51
 399 113 399 113 387 100 c 0,52,53
 375 88 375 88 369 82 c 0,54,55
 359 73 359 73 310 55 c 0,56,57
 260 38 260 38 208 23 c 0,58,59
 173 13 173 13 144 7 c 0,60,61
 115 0 115 0 102 0 c 0,0,1
287 430 m 1,62,63
 307 410 307 410 330 389 c 0,64,65
 353 369 353 369 353 348 c 0,66,67
 353 328 353 328 361 328 c 256,68,69
 369 328 369 328 369 348 c 0,70,71
 369 367 369 367 338 399 c 0,72,73
 307 430 307 430 266 471 c 1,74,75
 266 369 266 369 260 328 c 256,76,77
 254 287 254 287 266 287 c 1,78,79
 266 287 266 287 284 277 c 0,80,81
 301 267 301 267 307 266 c 0,82,83
 323 251 323 251 325 259 c 0,84,85
 328 266 328 266 328 266 c 257,86,87
 328 266 328 266 307 276 c 0,88,89
 287 287 287 287 287 287 c 1,90,91
 301 297 301 297 314 317 c 0,92,93
 328 337 328 337 328 348 c 0,94,95
 328 358 328 358 307 384 c 0,96,97
 287 410 287 410 287 430 c 1,62,63
EndSplineSet
EndChar

StartChar: uni015d
Encoding: 349 349 77
Width: 491
GlyphClass: 1
Flags: W
LayerCount: 2
Fore
SplineSet
102 0 m 0,0,1
 56 0 56 0 61 0 c 0,2,3
 67 0 67 0 20 0 c 1,4,5
 20 31 20 31 20 92 c 0,6,7
 20 154 20 154 20 225 c 1,8,9
 54 225 54 225 53 225 c 0,10,11
 51 225 51 225 82 225 c 1,12,13
 82 247 82 247 90 267 c 0,14,15
 99 286 99 286 111 304 c 0,16,17
 134 337 134 337 159 363 c 0,18,19
 184 390 184 390 184 410 c 256,20,21
 184 430 184 430 181 458 c 0,22,23
 178 487 178 487 186 508 c 0,24,25
 191 519 191 519 200 526 c 0,26,27
 209 532 209 532 225 532 c 1,28,29
 225 563 225 563 248 576 c 0,30,31
 259 582 259 582 268 582 c 0,32,33
 278 582 278 582 287 573 c 0,34,35
 308 552 308 552 331 529 c 256,36,37
 354 506 354 506 375 484 c 0,38,39
 415 444 415 444 443 411 c 0,40,41
 471 379 471 379 471 369 c 0,42,43
 471 353 471 353 471 302 c 256,44,45
 471 251 471 251 471 205 c 0,46,47
 471 195 471 195 453 173 c 0,48,49
 434 150 434 150 414 128 c 0,50,51
 399 113 399 113 387 100 c 0,52,53
 375 88 375 88 369 82 c 0,54,55
 359 73 359 73 310 55 c 0,56,57
 260 38 260 38 208 23 c 0,58,59
 173 13 173 13 144 7 c 0,60,61
 115 0 115 0 102 0 c 0,0,1
287 430 m 1,62,63
 307 410 307 410 330 389 c 0,64,65
 353 369 353 369 353 348 c 0,66,67
 353 328 353 328 361 328 c 256,68,69
 369 328 369 328 369 348 c 0,70,71
 369 367 369 367 338 399 c 0,72,73
 307 430 307 430 266 471 c 1,74,75
 266 369 266 369 260 328 c 256,76,77
 254 287 254 287 266 287 c 1,78,79
 266 287 266 287 284 277 c 0,80,81
 301 267 301 267 307 266 c 0,82,83
 323 251 323 251 325 259 c 0,84,85
 328 266 328 266 328 266 c 257,86,87
 328 266 328 266 307 276 c 0,88,89
 287 287 287 287 287 287 c 1,90,91
 301 297 301 297 314 317 c 0,92,93
 328 337 328 337 328 348 c 0,94,95
 328 358 328 358 307 384 c 0,96,97
 287 410 287 410 287 430 c 1,62,63
EndSplineSet
EndChar

StartChar: circumflex
Encoding: 710 710 78
Width: 287
GlyphClass: 1
Flags: W
LayerCount: 2
Fore
SplineSet
143 676 m 1,0,1
 184 635 184 635 266 553 c 1,2,3
 246 553 246 553 205 553 c 1,4,5
 184 573 184 573 143 614 c 1,6,7
 123 594 123 594 82 553 c 1,8,9
 61 553 61 553 20 553 c 1,10,11
 61 594 61 594 143 676 c 1,0,1
EndSplineSet
EndChar

StartChar: combining-4-tone
Encoding: 768 768 79
Width: 123
GlyphClass: 1
Flags: W
LayerCount: 2
Fore
SplineSet
82 655 m 1,0,1
 82 587 82 587 82 451 c 1,2,3
 96 451 96 451 123 451 c 1,4,5
 102 430 102 430 61 389 c 1,6,7
 41 410 41 410 0 451 c 1,8,9
 14 451 14 451 41 451 c 1,10,11
 41 519 41 519 41 655 c 1,12,13
 55 655 55 655 82 655 c 1,0,1
EndSplineSet
EndChar

StartChar: uni0301
Encoding: 769 769 80
Width: 123
GlyphClass: 1
Flags: W
LayerCount: 2
Fore
SplineSet
41 389 m 1,0,1
 41 457 41 457 41 594 c 1,2,3
 27 594 27 594 0 594 c 1,4,5
 20 614 20 614 61 655 c 1,6,7
 82 635 82 635 123 594 c 1,8,9
 109 594 109 594 82 594 c 1,10,11
 82 526 82 526 82 389 c 1,12,13
 68 389 68 389 41 389 c 1,0,1
EndSplineSet
EndChar

StartChar: uni0304
Encoding: 772 772 81
Width: 267
GlyphClass: 1
Flags: W
LayerCount: 2
Fore
SplineSet
0 430 m 1,0,1
 68 430 68 430 205 430 c 1,2,3
 205 444 205 444 205 471 c 1,4,5
 225 451 225 451 266 410 c 1,6,7
 246 389 246 389 205 348 c 1,8,9
 205 362 205 362 205 389 c 1,10,11
 137 389 137 389 0 389 c 1,12,13
 0 403 0 403 0 430 c 1,0,1
EndSplineSet
EndChar

StartChar: uni030c
Encoding: 780 780 82
Width: 287
GlyphClass: 1
Flags: W
LayerCount: 2
Fore
SplineSet
0 512 m 1,0,1
 0 512 0 512 20 512 c 0,2,3
 41 512 41 512 41 512 c 1,4,5
 41 481 41 481 59 456 c 0,6,7
 77 430 77 430 123 430 c 256,8,9
 169 430 169 430 187 456 c 0,10,11
 205 481 205 481 205 512 c 1,12,13
 191 512 191 512 164 512 c 1,14,15
 184 532 184 532 225 573 c 1,16,17
 246 553 246 553 287 512 c 1,18,19
 273 512 273 512 246 512 c 1,20,21
 246 466 246 466 215 428 c 0,22,23
 184 389 184 389 123 389 c 0,24,25
 61 389 61 389 31 428 c 0,26,27
 0 466 0 466 0 512 c 1,0,1
EndSplineSet
EndChar

StartChar: uni1e91
Encoding: 7825 7825 83
Width: 491
GlyphClass: 1
Flags: W
LayerCount: 2
Fore
SplineSet
102 0 m 0,0,1
 56 0 56 0 61 0 c 0,2,3
 67 0 67 0 20 0 c 1,4,5
 20 31 20 31 20 92 c 0,6,7
 20 154 20 154 20 225 c 1,8,9
 54 225 54 225 53 225 c 0,10,11
 51 225 51 225 82 225 c 1,12,13
 82 247 82 247 90 267 c 0,14,15
 99 286 99 286 111 304 c 0,16,17
 134 337 134 337 159 363 c 0,18,19
 184 390 184 390 184 410 c 256,20,21
 184 430 184 430 181 458 c 0,22,23
 178 487 178 487 186 508 c 0,24,25
 191 519 191 519 200 526 c 0,26,27
 209 532 209 532 225 532 c 1,28,29
 225 563 225 563 248 576 c 0,30,31
 259 582 259 582 268 582 c 0,32,33
 278 582 278 582 287 573 c 0,34,35
 308 552 308 552 331 529 c 256,36,37
 354 506 354 506 375 484 c 0,38,39
 415 444 415 444 443 411 c 0,40,41
 471 379 471 379 471 369 c 0,42,43
 471 353 471 353 471 302 c 256,44,45
 471 251 471 251 471 205 c 0,46,47
 471 195 471 195 453 173 c 0,48,49
 434 150 434 150 414 128 c 0,50,51
 399 113 399 113 387 100 c 0,52,53
 375 88 375 88 369 82 c 0,54,55
 359 73 359 73 310 55 c 0,56,57
 260 38 260 38 208 23 c 0,58,59
 173 13 173 13 144 7 c 0,60,61
 115 0 115 0 102 0 c 0,0,1
287 430 m 1,62,63
 307 410 307 410 330 389 c 0,64,65
 353 369 353 369 353 348 c 0,66,67
 353 328 353 328 361 328 c 256,68,69
 369 328 369 328 369 348 c 0,70,71
 369 367 369 367 338 399 c 0,72,73
 307 430 307 430 266 471 c 1,74,75
 266 369 266 369 260 328 c 256,76,77
 254 287 254 287 266 287 c 1,78,79
 266 287 266 287 284 277 c 0,80,81
 301 267 301 267 307 266 c 0,82,83
 323 251 323 251 325 259 c 0,84,85
 328 266 328 266 328 266 c 257,86,87
 328 266 328 266 307 276 c 0,88,89
 287 287 287 287 287 287 c 1,90,91
 301 297 301 297 314 317 c 0,92,93
 328 337 328 337 328 348 c 0,94,95
 328 358 328 358 307 384 c 0,96,97
 287 410 287 410 287 430 c 1,62,63
EndSplineSet
EndChar

StartChar: 1-tone
Encoding: 1114113 -1 84
Width: 164
GlyphClass: 1
Flags: W
LayerCount: 2
Fore
SplineSet
-410 -82 m 1,0,1
 -239 -82 -239 -82 102 -82 c 1,2,3
 102 -82 102 -82 89 -93 c 0,4,5
 76 -103 76 -103 59 -117 c 0,6,7
 38 -134 38 -134 19 -149 c 256,8,9
 0 -164 0 -164 0 -164 c 1,10,11
 0 -150 0 -150 0 -123 c 1,12,13
 -137 -123 -137 -123 -410 -123 c 1,14,15
 -410 -109 -410 -109 -410 -82 c 1,0,1
EndSplineSet
Ligature2: "'clig' Contextual Ligatures in Latin lookup 10 subtable" backslash one
EndChar

StartChar: 2-tone
Encoding: 1114114 -1 85
Width: 144
GlyphClass: 1
Flags: W
LayerCount: 2
Fore
SplineSet
0 143 m 1,0,1
 0 157 0 157 0 224 c 256,2,3
 0 291 0 291 0 373 c 0,4,5
 0 408 0 408 0 443 c 0,6,7
 0 479 0 479 0 512 c 0,8,9
 0 574 0 574 0 619 c 0,10,11
 0 665 0 665 0 676 c 1,12,13
 27 642 27 642 82 573 c 1,14,15
 68 573 68 573 41 573 c 1,16,17
 41 430 41 430 41 143 c 1,18,19
 27 143 27 143 0 143 c 1,0,1
EndSplineSet
Ligature2: "'clig' Contextual Ligatures in Latin lookup 10 subtable" backslash two
EndChar

StartChar: 3-tone
Encoding: 1114115 -1 86
Width: 144
GlyphClass: 1
Flags: W
LayerCount: 2
Fore
SplineSet
-41 -123 m 256,0,1
 -10 -123 -10 -123 -5 -102 c 0,2,3
 0 -82 0 -82 0 -82 c 1,4,5
 0 -36 0 -36 0 29 c 256,6,7
 0 94 0 94 0 162 c 0,8,9
 0 264 0 264 0 350 c 256,10,11
 0 436 0 436 0 451 c 1,12,13
 27 416 27 416 82 348 c 1,14,15
 68 348 68 348 41 348 c 1,16,17
 41 205 41 205 41 -82 c 0,18,19
 41 -128 41 -128 15 -146 c 0,20,21
 -10 -164 -10 -164 -41 -164 c 256,22,23
 -72 -164 -72 -164 -97 -138 c 0,24,25
 -123 -113 -123 -113 -123 -82 c 1,26,27
 -109 -82 -109 -82 -82 -82 c 1,28,29
 -82 -82 -82 -82 -77 -102 c 0,30,31
 -72 -123 -72 -123 -41 -123 c 256,0,1
EndSplineSet
Ligature2: "'clig' Contextual Ligatures in Latin lookup 10 subtable" backslash three
EndChar

StartChar: 4-tone
Encoding: 1114116 -1 87
Width: 144
GlyphClass: 1
Flags: W
LayerCount: 2
Fore
SplineSet
41 389 m 1,0,1
 41 246 41 246 41 -41 c 1,2,3
 55 -41 55 -41 82 -41 c 1,4,5
 55 -75 55 -75 0 -143 c 1,6,7
 0 -130 0 -130 0 -63 c 256,8,9
 0 4 0 4 0 86 c 0,10,11
 0 152 0 152 0 216 c 0,12,13
 0 281 0 281 0 326 c 0,14,15
 0 350 0 350 0 367 c 0,16,17
 0 383 0 383 0 389 c 1,18,19
 14 389 14 389 41 389 c 1,0,1
EndSplineSet
Ligature2: "'clig' Contextual Ligatures in Latin lookup 10 subtable" backslash four
EndChar

StartChar: CH
Encoding: 1114117 -1 88
Width: 491
GlyphClass: 1
Flags: W
LayerCount: 2
Fore
SplineSet
102 0 m 0,0,1
 56 0 56 0 61 0 c 0,2,3
 67 0 67 0 20 0 c 1,4,5
 20 31 20 31 20 92 c 0,6,7
 20 154 20 154 20 225 c 1,8,9
 54 225 54 225 53 225 c 0,10,11
 51 225 51 225 82 225 c 1,12,13
 82 247 82 247 90 267 c 0,14,15
 99 286 99 286 111 304 c 0,16,17
 134 337 134 337 159 363 c 0,18,19
 184 390 184 390 184 410 c 256,20,21
 184 430 184 430 181 458 c 0,22,23
 178 487 178 487 186 508 c 0,24,25
 191 519 191 519 200 526 c 0,26,27
 209 532 209 532 225 532 c 1,28,29
 225 563 225 563 248 576 c 0,30,31
 259 582 259 582 268 582 c 0,32,33
 278 582 278 582 287 573 c 0,34,35
 308 552 308 552 331 529 c 256,36,37
 354 506 354 506 375 484 c 0,38,39
 415 444 415 444 443 411 c 0,40,41
 471 379 471 379 471 369 c 0,42,43
 471 353 471 353 471 302 c 256,44,45
 471 251 471 251 471 205 c 0,46,47
 471 195 471 195 453 173 c 0,48,49
 434 150 434 150 414 128 c 0,50,51
 399 113 399 113 387 100 c 0,52,53
 375 88 375 88 369 82 c 0,54,55
 359 73 359 73 310 55 c 0,56,57
 260 38 260 38 208 23 c 0,58,59
 173 13 173 13 144 7 c 0,60,61
 115 0 115 0 102 0 c 0,0,1
287 430 m 1,62,63
 307 410 307 410 330 389 c 0,64,65
 353 369 353 369 353 348 c 0,66,67
 353 328 353 328 361 328 c 256,68,69
 369 328 369 328 369 348 c 0,70,71
 369 367 369 367 338 399 c 0,72,73
 307 430 307 430 266 471 c 1,74,75
 266 369 266 369 260 328 c 256,76,77
 254 287 254 287 266 287 c 1,78,79
 266 287 266 287 284 277 c 0,80,81
 301 267 301 267 307 266 c 0,82,83
 323 251 323 251 325 259 c 0,84,85
 328 266 328 266 328 266 c 257,86,87
 328 266 328 266 307 276 c 0,88,89
 287 287 287 287 287 287 c 1,90,91
 301 297 301 297 314 317 c 0,92,93
 328 337 328 337 328 348 c 0,94,95
 328 358 328 358 307 384 c 0,96,97
 287 410 287 410 287 430 c 1,62,63
EndSplineSet
Ligature2: "'clig' Contextual Ligatures in Latin lookup 10 subtable" C h
Ligature2: "'clig' Contextual Ligatures in Latin lookup 10 subtable" C H
EndChar

StartChar: SH
Encoding: 1114118 -1 89
Width: 491
GlyphClass: 1
Flags: W
LayerCount: 2
Fore
SplineSet
102 0 m 0,0,1
 56 0 56 0 61 0 c 0,2,3
 67 0 67 0 20 0 c 1,4,5
 20 31 20 31 20 92 c 0,6,7
 20 154 20 154 20 225 c 1,8,9
 54 225 54 225 53 225 c 0,10,11
 51 225 51 225 82 225 c 1,12,13
 82 247 82 247 90 267 c 0,14,15
 99 286 99 286 111 304 c 0,16,17
 134 337 134 337 159 363 c 0,18,19
 184 390 184 390 184 410 c 256,20,21
 184 430 184 430 181 458 c 0,22,23
 178 487 178 487 186 508 c 0,24,25
 191 519 191 519 200 526 c 0,26,27
 209 532 209 532 225 532 c 1,28,29
 225 563 225 563 248 576 c 0,30,31
 259 582 259 582 268 582 c 0,32,33
 278 582 278 582 287 573 c 0,34,35
 308 552 308 552 331 529 c 256,36,37
 354 506 354 506 375 484 c 0,38,39
 415 444 415 444 443 411 c 0,40,41
 471 379 471 379 471 369 c 0,42,43
 471 353 471 353 471 302 c 256,44,45
 471 251 471 251 471 205 c 0,46,47
 471 195 471 195 453 173 c 0,48,49
 434 150 434 150 414 128 c 0,50,51
 399 113 399 113 387 100 c 0,52,53
 375 88 375 88 369 82 c 0,54,55
 359 73 359 73 310 55 c 0,56,57
 260 38 260 38 208 23 c 0,58,59
 173 13 173 13 144 7 c 0,60,61
 115 0 115 0 102 0 c 0,0,1
287 430 m 1,62,63
 307 410 307 410 330 389 c 0,64,65
 353 369 353 369 353 348 c 0,66,67
 353 328 353 328 361 328 c 256,68,69
 369 328 369 328 369 348 c 0,70,71
 369 367 369 367 338 399 c 0,72,73
 307 430 307 430 266 471 c 1,74,75
 266 369 266 369 260 328 c 256,76,77
 254 287 254 287 266 287 c 1,78,79
 266 287 266 287 284 277 c 0,80,81
 301 267 301 267 307 266 c 0,82,83
 323 251 323 251 325 259 c 0,84,85
 328 266 328 266 328 266 c 257,86,87
 328 266 328 266 307 276 c 0,88,89
 287 287 287 287 287 287 c 1,90,91
 301 297 301 297 314 317 c 0,92,93
 328 337 328 337 328 348 c 0,94,95
 328 358 328 358 307 384 c 0,96,97
 287 410 287 410 287 430 c 1,62,63
EndSplineSet
Ligature2: "'clig' Contextual Ligatures in Latin lookup 10 subtable" S h
Ligature2: "'clig' Contextual Ligatures in Latin lookup 10 subtable" S H
EndChar

StartChar: ZH
Encoding: 1114119 -1 90
Width: 491
GlyphClass: 1
Flags: W
LayerCount: 2
Fore
SplineSet
102 0 m 0,0,1
 56 0 56 0 61 0 c 0,2,3
 67 0 67 0 20 0 c 1,4,5
 20 31 20 31 20 92 c 0,6,7
 20 154 20 154 20 225 c 1,8,9
 54 225 54 225 53 225 c 0,10,11
 51 225 51 225 82 225 c 1,12,13
 82 247 82 247 90 267 c 0,14,15
 99 286 99 286 111 304 c 0,16,17
 134 337 134 337 159 363 c 0,18,19
 184 390 184 390 184 410 c 256,20,21
 184 430 184 430 181 458 c 0,22,23
 178 487 178 487 186 508 c 0,24,25
 191 519 191 519 200 526 c 0,26,27
 209 532 209 532 225 532 c 1,28,29
 225 563 225 563 248 576 c 0,30,31
 259 582 259 582 268 582 c 0,32,33
 278 582 278 582 287 573 c 0,34,35
 308 552 308 552 331 529 c 256,36,37
 354 506 354 506 375 484 c 0,38,39
 415 444 415 444 443 411 c 0,40,41
 471 379 471 379 471 369 c 0,42,43
 471 353 471 353 471 302 c 256,44,45
 471 251 471 251 471 205 c 0,46,47
 471 195 471 195 453 173 c 0,48,49
 434 150 434 150 414 128 c 0,50,51
 399 113 399 113 387 100 c 0,52,53
 375 88 375 88 369 82 c 0,54,55
 359 73 359 73 310 55 c 0,56,57
 260 38 260 38 208 23 c 0,58,59
 173 13 173 13 144 7 c 0,60,61
 115 0 115 0 102 0 c 0,0,1
287 430 m 1,62,63
 307 410 307 410 330 389 c 0,64,65
 353 369 353 369 353 348 c 0,66,67
 353 328 353 328 361 328 c 256,68,69
 369 328 369 328 369 348 c 0,70,71
 369 367 369 367 338 399 c 0,72,73
 307 430 307 430 266 471 c 1,74,75
 266 369 266 369 260 328 c 256,76,77
 254 287 254 287 266 287 c 1,78,79
 266 287 266 287 284 277 c 0,80,81
 301 267 301 267 307 266 c 0,82,83
 323 251 323 251 325 259 c 0,84,85
 328 266 328 266 328 266 c 257,86,87
 328 266 328 266 307 276 c 0,88,89
 287 287 287 287 287 287 c 1,90,91
 301 297 301 297 314 317 c 0,92,93
 328 337 328 337 328 348 c 0,94,95
 328 358 328 358 307 384 c 0,96,97
 287 410 287 410 287 430 c 1,62,63
EndSplineSet
Ligature2: "'clig' Contextual Ligatures in Latin lookup 10 subtable" Z h
Ligature2: "'clig' Contextual Ligatures in Latin lookup 10 subtable" Z H
EndChar

StartChar: ch
Encoding: 1114120 -1 91
Width: 491
GlyphClass: 1
Flags: W
LayerCount: 2
Fore
SplineSet
102 0 m 0,0,1
 56 0 56 0 61 0 c 0,2,3
 67 0 67 0 20 0 c 1,4,5
 20 31 20 31 20 92 c 0,6,7
 20 154 20 154 20 225 c 1,8,9
 54 225 54 225 53 225 c 0,10,11
 51 225 51 225 82 225 c 1,12,13
 82 247 82 247 90 267 c 0,14,15
 99 286 99 286 111 304 c 0,16,17
 134 337 134 337 159 363 c 0,18,19
 184 390 184 390 184 410 c 256,20,21
 184 430 184 430 181 458 c 0,22,23
 178 487 178 487 186 508 c 0,24,25
 191 519 191 519 200 526 c 0,26,27
 209 532 209 532 225 532 c 1,28,29
 225 563 225 563 248 576 c 0,30,31
 259 582 259 582 268 582 c 0,32,33
 278 582 278 582 287 573 c 0,34,35
 308 552 308 552 331 529 c 256,36,37
 354 506 354 506 375 484 c 0,38,39
 415 444 415 444 443 411 c 0,40,41
 471 379 471 379 471 369 c 0,42,43
 471 353 471 353 471 302 c 256,44,45
 471 251 471 251 471 205 c 0,46,47
 471 195 471 195 453 173 c 0,48,49
 434 150 434 150 414 128 c 0,50,51
 399 113 399 113 387 100 c 0,52,53
 375 88 375 88 369 82 c 0,54,55
 359 73 359 73 310 55 c 0,56,57
 260 38 260 38 208 23 c 0,58,59
 173 13 173 13 144 7 c 0,60,61
 115 0 115 0 102 0 c 0,0,1
287 430 m 1,62,63
 307 410 307 410 330 389 c 0,64,65
 353 369 353 369 353 348 c 0,66,67
 353 328 353 328 361 328 c 256,68,69
 369 328 369 328 369 348 c 0,70,71
 369 367 369 367 338 399 c 0,72,73
 307 430 307 430 266 471 c 1,74,75
 266 369 266 369 260 328 c 256,76,77
 254 287 254 287 266 287 c 1,78,79
 266 287 266 287 284 277 c 0,80,81
 301 267 301 267 307 266 c 0,82,83
 323 251 323 251 325 259 c 0,84,85
 328 266 328 266 328 266 c 257,86,87
 328 266 328 266 307 276 c 0,88,89
 287 287 287 287 287 287 c 1,90,91
 301 297 301 297 314 317 c 0,92,93
 328 337 328 337 328 348 c 0,94,95
 328 355 328 355 307 382 c 0,96,97
 287 410 287 410 287 430 c 1,62,63
EndSplineSet
Ligature2: "'clig' Contextual Ligatures in Latin lookup 10 subtable" c h
EndChar

StartChar: ng
Encoding: 1114122 -1 93
Width: 491
GlyphClass: 1
Flags: W
LayerCount: 2
Fore
SplineSet
102 0 m 0,0,1
 56 0 56 0 61 0 c 0,2,3
 67 0 67 0 20 0 c 1,4,5
 20 31 20 31 20 92 c 0,6,7
 20 154 20 154 20 225 c 1,8,9
 54 225 54 225 53 225 c 0,10,11
 51 225 51 225 82 225 c 1,12,13
 82 247 82 247 90 267 c 0,14,15
 99 286 99 286 111 304 c 0,16,17
 134 337 134 337 159 363 c 0,18,19
 184 390 184 390 184 410 c 256,20,21
 184 430 184 430 181 458 c 0,22,23
 178 487 178 487 186 508 c 0,24,25
 191 519 191 519 200 526 c 0,26,27
 209 532 209 532 225 532 c 1,28,29
 225 563 225 563 248 576 c 0,30,31
 259 582 259 582 268 582 c 0,32,33
 278 582 278 582 287 573 c 0,34,35
 308 552 308 552 331 529 c 256,36,37
 354 506 354 506 375 484 c 0,38,39
 415 444 415 444 443 411 c 0,40,41
 471 379 471 379 471 369 c 0,42,43
 471 353 471 353 471 302 c 256,44,45
 471 251 471 251 471 205 c 0,46,47
 471 195 471 195 453 173 c 0,48,49
 434 150 434 150 414 128 c 0,50,51
 399 113 399 113 387 100 c 0,52,53
 375 88 375 88 369 82 c 0,54,55
 359 73 359 73 310 55 c 0,56,57
 260 38 260 38 208 23 c 0,58,59
 173 13 173 13 144 7 c 0,60,61
 115 0 115 0 102 0 c 0,0,1
287 430 m 1,62,63
 307 410 307 410 330 389 c 0,64,65
 353 369 353 369 353 348 c 0,66,67
 353 328 353 328 361 328 c 256,68,69
 369 328 369 328 369 348 c 0,70,71
 369 367 369 367 338 399 c 0,72,73
 307 430 307 430 266 471 c 1,74,75
 266 369 266 369 260 328 c 256,76,77
 254 287 254 287 266 287 c 1,78,79
 266 287 266 287 284 277 c 0,80,81
 301 267 301 267 307 266 c 0,82,83
 323 251 323 251 325 259 c 0,84,85
 328 266 328 266 328 266 c 257,86,87
 328 266 328 266 307 276 c 0,88,89
 287 287 287 287 287 287 c 1,90,91
 301 297 301 297 314 317 c 0,92,93
 328 337 328 337 328 348 c 0,94,95
 328 358 328 358 307 384 c 0,96,97
 287 410 287 410 287 430 c 1,62,63
EndSplineSet
Ligature2: "'clig' Contextual Ligatures in Latin lookup 10 subtable" n g
EndChar

StartChar: sh
Encoding: 1114123 -1 94
Width: 491
GlyphClass: 1
Flags: W
LayerCount: 2
Fore
SplineSet
102 0 m 0,0,1
 56 0 56 0 61 0 c 0,2,3
 67 0 67 0 20 0 c 1,4,5
 20 31 20 31 20 92 c 0,6,7
 20 154 20 154 20 225 c 1,8,9
 54 225 54 225 53 225 c 0,10,11
 51 225 51 225 82 225 c 1,12,13
 82 247 82 247 90 267 c 0,14,15
 99 286 99 286 111 304 c 0,16,17
 134 337 134 337 159 363 c 0,18,19
 184 390 184 390 184 410 c 256,20,21
 184 430 184 430 181 458 c 0,22,23
 178 487 178 487 186 508 c 0,24,25
 191 519 191 519 200 526 c 0,26,27
 209 532 209 532 225 532 c 1,28,29
 225 563 225 563 248 576 c 0,30,31
 259 582 259 582 268 582 c 0,32,33
 278 582 278 582 287 573 c 0,34,35
 308 552 308 552 331 529 c 256,36,37
 354 506 354 506 375 484 c 0,38,39
 415 444 415 444 443 411 c 0,40,41
 471 379 471 379 471 369 c 0,42,43
 471 353 471 353 471 302 c 256,44,45
 471 251 471 251 471 205 c 0,46,47
 471 195 471 195 453 173 c 0,48,49
 434 150 434 150 414 128 c 0,50,51
 399 113 399 113 387 100 c 0,52,53
 375 88 375 88 369 82 c 0,54,55
 359 73 359 73 310 55 c 0,56,57
 260 38 260 38 208 23 c 0,58,59
 173 13 173 13 144 7 c 0,60,61
 115 0 115 0 102 0 c 0,0,1
287 430 m 1,62,63
 307 410 307 410 330 389 c 0,64,65
 353 369 353 369 353 348 c 0,66,67
 353 328 353 328 361 328 c 256,68,69
 369 328 369 328 369 348 c 0,70,71
 369 367 369 367 338 399 c 0,72,73
 307 430 307 430 266 471 c 1,74,75
 266 369 266 369 260 328 c 256,76,77
 254 287 254 287 266 287 c 1,78,79
 266 287 266 287 284 277 c 0,80,81
 301 267 301 267 307 266 c 0,82,83
 323 251 323 251 325 259 c 0,84,85
 328 266 328 266 328 266 c 257,86,87
 328 266 328 266 307 276 c 0,88,89
 287 287 287 287 287 287 c 1,90,91
 301 297 301 297 314 317 c 0,92,93
 328 337 328 337 328 348 c 0,94,95
 328 358 328 358 307 384 c 0,96,97
 287 410 287 410 287 430 c 1,62,63
EndSplineSet
Ligature2: "'clig' Contextual Ligatures in Latin lookup 10 subtable" s h
EndChar

StartChar: vbis
Encoding: 1114124 -1 95
Width: 656
GlyphClass: 1
Flags: W
LayerCount: 2
Fore
SplineSet
573 328 m 0,0,1
 573 314 573 314 573 287 c 0,2,3
 573 271 573 271 543 256 c 0,4,5
 512 241 512 241 512 225 c 0,6,7
 512 210 512 210 543 195 c 0,8,9
 573 179 573 179 573 164 c 1,10,11
 573 177 573 177 573 205 c 1,12,13
 573 205 573 205 604 174 c 256,14,15
 635 143 635 143 635 143 c 257,16,17
 635 143 635 143 612 120 c 256,18,19
 589 97 589 97 573 82 c 1,20,21
 573 96 573 96 573 123 c 0,22,23
 573 138 573 138 532 164 c 0,24,25
 492 189 492 189 492 205 c 0,26,27
 492 220 492 220 492 233 c 256,28,29
 492 246 492 246 492 246 c 2,30,31
 492 261 492 261 522 276 c 0,32,33
 553 292 553 292 553 307 c 0,34,35
 553 323 553 323 522 338 c 0,36,37
 492 353 492 353 492 369 c 0,38,39
 492 382 492 382 492 410 c 1,40,41
 492 394 492 394 532 369 c 0,42,43
 573 343 573 343 573 328 c 0,0,1
102 0 m 0,44,45
 56 0 56 0 61 0 c 0,46,47
 67 0 67 0 20 0 c 1,48,49
 20 31 20 31 20 92 c 0,50,51
 20 154 20 154 20 225 c 1,52,53
 54 225 54 225 53 225 c 0,54,55
 51 225 51 225 82 225 c 1,56,57
 82 247 82 247 90 267 c 0,58,59
 99 286 99 286 111 304 c 0,60,61
 134 337 134 337 159 363 c 0,62,63
 184 390 184 390 184 410 c 256,64,65
 184 430 184 430 181 458 c 0,66,67
 178 487 178 487 186 508 c 0,68,69
 191 519 191 519 200 526 c 0,70,71
 209 532 209 532 225 532 c 1,72,73
 225 563 225 563 248 576 c 0,74,75
 259 582 259 582 268 582 c 0,76,77
 278 582 278 582 287 573 c 0,78,79
 327 533 327 533 369 491 c 0,80,81
 411 448 411 448 439 416 c 0,82,83
 454 399 454 399 462 386 c 0,84,85
 471 374 471 374 471 369 c 0,86,87
 471 353 471 353 471 302 c 256,88,89
 471 251 471 251 471 205 c 0,90,91
 471 195 471 195 453 173 c 0,92,93
 434 150 434 150 414 128 c 0,94,95
 399 113 399 113 387 100 c 0,96,97
 375 88 375 88 369 82 c 0,98,99
 359 73 359 73 310 55 c 0,100,101
 260 38 260 38 208 23 c 0,102,103
 173 13 173 13 144 7 c 0,104,105
 115 0 115 0 102 0 c 0,44,45
287 430 m 1,106,107
 307 410 307 410 330 389 c 0,108,109
 353 369 353 369 353 348 c 0,110,111
 353 328 353 328 361 328 c 256,112,113
 369 328 369 328 369 348 c 0,114,115
 369 367 369 367 338 399 c 0,116,117
 307 430 307 430 266 471 c 1,118,119
 266 369 266 369 260 328 c 256,120,121
 254 287 254 287 266 287 c 1,122,123
 266 287 266 287 284 277 c 0,124,125
 301 267 301 267 307 266 c 0,126,127
 323 251 323 251 325 259 c 0,128,129
 328 266 328 266 328 266 c 257,130,131
 328 266 328 266 307 276 c 0,132,133
 287 287 287 287 287 287 c 1,134,135
 301 297 301 297 314 317 c 0,136,137
 328 337 328 337 328 348 c 0,138,139
 328 358 328 358 307 384 c 0,140,141
 287 410 287 410 287 430 c 1,106,107
EndSplineSet
Ligature2: "'clig' Contextual Ligatures in Latin lookup 10 subtable" v quotesingle
EndChar

StartChar: zh
Encoding: 1114125 -1 96
Width: 491
GlyphClass: 1
Flags: W
LayerCount: 2
Fore
SplineSet
102 0 m 0,0,1
 56 0 56 0 61 0 c 0,2,3
 67 0 67 0 20 0 c 1,4,5
 20 31 20 31 20 92 c 0,6,7
 20 154 20 154 20 225 c 1,8,9
 54 225 54 225 53 225 c 0,10,11
 51 225 51 225 82 225 c 1,12,13
 82 247 82 247 90 267 c 0,14,15
 99 286 99 286 111 304 c 0,16,17
 134 337 134 337 159 363 c 0,18,19
 184 390 184 390 184 410 c 256,20,21
 184 430 184 430 181 458 c 0,22,23
 178 487 178 487 186 508 c 0,24,25
 191 519 191 519 200 526 c 0,26,27
 209 532 209 532 225 532 c 1,28,29
 225 563 225 563 248 576 c 0,30,31
 259 582 259 582 268 582 c 0,32,33
 278 582 278 582 287 573 c 0,34,35
 308 552 308 552 331 529 c 256,36,37
 354 506 354 506 375 484 c 0,38,39
 415 444 415 444 443 411 c 0,40,41
 471 379 471 379 471 369 c 0,42,43
 471 353 471 353 471 302 c 256,44,45
 471 251 471 251 471 205 c 0,46,47
 471 195 471 195 453 173 c 0,48,49
 434 150 434 150 414 128 c 0,50,51
 399 113 399 113 387 100 c 0,52,53
 375 88 375 88 369 82 c 0,54,55
 359 73 359 73 310 55 c 0,56,57
 260 38 260 38 208 23 c 0,58,59
 173 13 173 13 144 7 c 0,60,61
 115 0 115 0 102 0 c 0,0,1
287 430 m 1,62,63
 307 410 307 410 330 389 c 0,64,65
 353 369 353 369 353 348 c 0,66,67
 353 328 353 328 361 328 c 256,68,69
 369 328 369 328 369 348 c 0,70,71
 369 367 369 367 338 399 c 0,72,73
 307 430 307 430 266 471 c 1,74,75
 266 369 266 369 260 328 c 256,76,77
 254 287 254 287 266 287 c 1,78,79
 266 287 266 287 284 277 c 0,80,81
 301 267 301 267 307 266 c 0,82,83
 323 251 323 251 325 259 c 0,84,85
 328 266 328 266 328 266 c 257,86,87
 328 266 328 266 307 276 c 0,88,89
 287 287 287 287 287 287 c 1,90,91
 301 297 301 297 314 317 c 0,92,93
 328 337 328 337 328 348 c 0,94,95
 328 358 328 358 307 384 c 0,96,97
 287 410 287 410 287 430 c 1,62,63
EndSplineSet
Ligature2: "'clig' Contextual Ligatures in Latin lookup 10 subtable" z h
EndChar

StartChar: _-ligature
Encoding: 1114126 -1 97
Width: 655
GlyphClass: 1
Flags: W
LayerCount: 2
Fore
SplineSet
184 328 m 0,0,1
 215 328 215 328 220 307 c 0,2,3
 225 287 225 287 225 287 c 257,4,5
 225 287 225 287 220 266 c 0,6,7
 215 246 215 246 184 246 c 0,8,9
 154 246 154 246 148 266 c 0,10,11
 143 287 143 287 143 287 c 257,12,13
 143 287 143 287 148 307 c 0,14,15
 154 328 154 328 184 328 c 0,0,1
61 328 m 0,16,17
 92 328 92 328 97 307 c 0,18,19
 102 287 102 287 102 287 c 257,20,21
 102 287 102 287 97 266 c 0,22,23
 92 246 92 246 61 246 c 0,24,25
 31 246 31 246 26 266 c 0,26,27
 20 287 20 287 20 287 c 257,28,29
 20 287 20 287 26 307 c 0,30,31
 31 328 31 328 61 328 c 0,16,17
451 430 m 1,32,33
 471 410 471 410 494 389 c 0,34,35
 517 369 517 369 517 348 c 0,36,37
 517 328 517 328 525 328 c 0,38,39
 532 328 532 328 532 348 c 0,40,41
 532 367 532 367 502 399 c 0,42,43
 471 430 471 430 430 471 c 1,44,45
 430 369 430 369 424 328 c 256,46,47
 418 287 418 287 430 287 c 1,48,49
 430 287 430 287 447 277 c 0,50,51
 465 267 465 267 471 266 c 0,52,53
 486 251 486 251 489 259 c 0,54,55
 492 266 492 266 492 266 c 257,56,57
 492 266 492 266 471 276 c 0,58,59
 451 287 451 287 451 287 c 1,60,61
 465 297 465 297 478 317 c 0,62,63
 492 337 492 337 492 348 c 0,64,65
 492 358 492 358 471 384 c 0,66,67
 451 410 451 410 451 430 c 1,32,33
266 0 m 0,68,69
 236 0 236 0 191 0 c 256,70,71
 146 0 146 0 102 0 c 0,72,73
 79 0 79 0 58 0 c 256,74,75
 37 0 37 0 20 0 c 1,76,77
 20 31 20 31 20 92 c 0,78,79
 20 154 20 154 20 225 c 1,80,81
 32 225 32 225 52 225 c 0,82,83
 71 225 71 225 94 225 c 0,84,85
 137 225 137 225 181 225 c 0,86,87
 226 225 226 225 246 225 c 1,88,89
 246 247 246 247 254 267 c 0,90,91
 262 286 262 286 275 304 c 0,92,93
 297 337 297 337 323 363 c 0,94,95
 348 390 348 390 348 410 c 256,96,97
 348 430 348 430 345 458 c 0,98,99
 342 487 342 487 350 508 c 0,100,101
 355 519 355 519 364 526 c 0,102,103
 373 532 373 532 389 532 c 1,104,105
 389 563 389 563 412 576 c 0,106,107
 423 582 423 582 432 582 c 0,108,109
 442 582 442 582 451 573 c 0,110,111
 472 552 472 552 495 529 c 0,112,113
 517 506 517 506 539 484 c 0,114,115
 578 444 578 444 607 411 c 0,116,117
 635 379 635 379 635 369 c 0,118,119
 635 353 635 353 635 302 c 256,120,121
 635 251 635 251 635 205 c 0,122,123
 635 195 635 195 617 173 c 0,124,125
 598 150 598 150 577 128 c 0,126,127
 563 113 563 113 551 100 c 0,128,129
 539 88 539 88 532 82 c 0,130,131
 523 73 523 73 474 55 c 0,132,133
 424 38 424 38 372 23 c 0,134,135
 337 13 337 13 308 7 c 0,136,137
 279 0 279 0 266 0 c 0,68,69
EndSplineSet
Ligature2: "'clig' Contextual Ligatures in Latin lookup 10 subtable" U quotesingle
Ligature2: "Ligature Substitution lookup 8 subtable" U
Ligature2: "Ligature Substitution lookup 7 subtable" U
Ligature2: "Ligature Substitution lookup 6 subtable" U
EndChar

StartChar: _-ligature_2
Encoding: 1114127 -1 98
Width: 656
GlyphClass: 1
Flags: W
LayerCount: 2
Fore
SplineSet
573 328 m 0,0,1
 573 314 573 314 573 287 c 0,2,3
 573 271 573 271 543 256 c 0,4,5
 512 241 512 241 512 225 c 0,6,7
 512 210 512 210 543 195 c 0,8,9
 573 179 573 179 573 164 c 1,10,11
 573 177 573 177 573 205 c 1,12,13
 573 205 573 205 604 174 c 256,14,15
 635 143 635 143 635 143 c 257,16,17
 635 143 635 143 612 120 c 256,18,19
 589 97 589 97 573 82 c 1,20,21
 573 96 573 96 573 123 c 0,22,23
 573 138 573 138 532 164 c 0,24,25
 492 189 492 189 492 205 c 0,26,27
 492 220 492 220 492 233 c 256,28,29
 492 246 492 246 492 246 c 2,30,31
 492 261 492 261 522 276 c 0,32,33
 553 292 553 292 553 307 c 0,34,35
 553 323 553 323 522 338 c 0,36,37
 492 353 492 353 492 369 c 0,38,39
 492 382 492 382 492 410 c 1,40,41
 492 394 492 394 532 369 c 0,42,43
 573 343 573 343 573 328 c 0,0,1
102 0 m 0,44,45
 56 0 56 0 61 0 c 0,46,47
 67 0 67 0 20 0 c 1,48,49
 20 31 20 31 20 92 c 0,50,51
 20 154 20 154 20 225 c 1,52,53
 54 225 54 225 53 225 c 0,54,55
 51 225 51 225 82 225 c 1,56,57
 82 247 82 247 90 267 c 0,58,59
 99 286 99 286 111 304 c 0,60,61
 134 337 134 337 159 363 c 0,62,63
 184 390 184 390 184 410 c 256,64,65
 184 430 184 430 181 458 c 0,66,67
 178 487 178 487 186 508 c 0,68,69
 191 519 191 519 200 526 c 0,70,71
 209 532 209 532 225 532 c 1,72,73
 225 563 225 563 248 576 c 0,74,75
 259 582 259 582 268 582 c 0,76,77
 278 582 278 582 287 573 c 0,78,79
 327 533 327 533 369 491 c 0,80,81
 411 448 411 448 439 416 c 0,82,83
 454 399 454 399 462 386 c 0,84,85
 471 374 471 374 471 369 c 0,86,87
 471 353 471 353 471 302 c 256,88,89
 471 251 471 251 471 205 c 0,90,91
 471 195 471 195 453 173 c 0,92,93
 434 150 434 150 414 128 c 0,94,95
 399 113 399 113 387 100 c 0,96,97
 375 88 375 88 369 82 c 0,98,99
 359 73 359 73 310 55 c 0,100,101
 260 38 260 38 208 23 c 0,102,103
 173 13 173 13 144 7 c 0,104,105
 115 0 115 0 102 0 c 0,44,45
287 430 m 1,106,107
 307 410 307 410 330 389 c 0,108,109
 353 369 353 369 353 348 c 0,110,111
 353 328 353 328 361 328 c 256,112,113
 369 328 369 328 369 348 c 0,114,115
 369 367 369 367 338 399 c 0,116,117
 307 430 307 430 266 471 c 1,118,119
 266 369 266 369 260 328 c 256,120,121
 254 287 254 287 266 287 c 1,122,123
 266 287 266 287 284 277 c 0,124,125
 301 267 301 267 307 266 c 0,126,127
 323 251 323 251 325 259 c 0,128,129
 328 266 328 266 328 266 c 257,130,131
 328 266 328 266 307 276 c 0,132,133
 287 287 287 287 287 287 c 1,134,135
 301 297 301 297 314 317 c 0,136,137
 328 337 328 337 328 348 c 0,138,139
 328 358 328 358 307 384 c 0,140,141
 287 410 287 410 287 430 c 1,106,107
EndSplineSet
Ligature2: "'clig' Contextual Ligatures in Latin lookup 10 subtable" u quotesingle
Ligature2: "Ligature Substitution lookup 5 subtable" u
Ligature2: "Ligature Substitution lookup 4 subtable" u
Ligature2: "Ligature Substitution lookup 3 subtable" u
Ligature2: "Ligature Substitution lookup 2 subtable" u
Ligature2: "Ligature Substitution lookup 1 subtable" u
Ligature2: "Ligature Substitution lookup 0 subtable" u
EndChar
